<svg width="32" height="32" viewBox="0 0 32 32" fill="none" xmlns="http://www.w3.org/2000/svg">
<g clip-path="url(#clip0)">
<path d="M26.9461 8.05812C26.947 7.27269 26.6417 6.53406 26.0866 5.97844C25.5316 5.42281 24.7933 5.11675 24.0079 5.11675C23.6342 5.11675 23.2766 5.188 22.9472 5.31637L22.9502 3.71619C22.9521 2.93006 22.6473 2.19062 22.0921 1.63406C21.5368 1.07756 20.7981 0.771 20.012 0.771H19.9686C19.3795 0.771 18.8305 0.946312 18.3698 1.24662C18.2741 1.11131 18.167 0.982625 18.0475 0.862938C17.4923 0.306437 16.7536 0 15.9675 0H15.9142C14.5713 0 13.4368 0.905875 13.0876 2.13831C12.7276 1.98063 12.3304 1.8925 11.9128 1.8925H11.8788C10.2586 1.8925 8.94058 3.21056 8.94058 4.83069V10.7607C8.60545 10.6286 8.24089 10.5551 7.85933 10.5551C6.22926 10.5551 4.90308 11.8812 4.90308 13.5112V20.834C4.90308 26.9076 9.84433 31.8487 15.9179 31.8487C18.8628 31.8487 21.6307 30.7012 23.7117 28.6174C25.7927 26.5337 26.9366 23.7643 26.9327 20.8193L26.9285 17.6905L26.9461 8.05812ZM25.0576 20.8218C25.0609 23.2654 24.1117 25.5634 22.385 27.2924C20.6582 29.0215 18.3615 29.9737 15.9178 29.9737C10.8781 29.9737 6.77808 25.8736 6.77808 20.8339V13.5112C6.77808 12.9151 7.26314 12.4301 7.85933 12.4301C8.45551 12.4301 8.94058 12.9151 8.94058 13.5112V18.437C8.94058 18.9548 9.36033 19.3745 9.87808 19.3745C11.5429 19.3745 12.8973 20.7289 12.8973 22.3937V23.928C12.8973 24.4457 13.3171 24.8655 13.8348 24.8655C14.3526 24.8655 14.7723 24.4457 14.7723 23.928V22.3937C14.7723 20.0156 13.0674 18.0281 10.8156 17.5896V4.83069C10.8156 4.24444 11.2925 3.7675 11.8788 3.7675H11.9128C12.499 3.7675 12.9759 4.24438 12.976 4.8305V13.4785C12.976 13.9963 13.3958 14.416 13.9135 14.416C14.4313 14.416 14.851 13.9963 14.851 13.4785C14.851 12.0899 14.851 4.10556 14.851 2.93812C14.851 2.35187 15.328 1.87494 15.9142 1.87494H15.9675C16.252 1.87494 16.5193 1.98581 16.7201 2.18719C16.921 2.3885 17.0313 2.65606 17.0307 2.94075C17.0245 6.07687 17.0152 10.3699 17.0099 13.4854C17.0089 14.0031 17.4278 14.4237 17.9455 14.4247H17.9474C18.4643 14.4247 18.8838 14.0062 18.8849 13.489C18.889 11.3807 18.9 5.72475 18.9055 3.70662C18.9068 3.12175 19.3838 2.64587 19.9686 2.64587H20.012C20.2965 2.64587 20.5638 2.75675 20.7647 2.95819C20.9656 3.15956 21.0759 3.42719 21.0752 3.71206C21.0692 6.76056 21.0593 11.5814 21.0546 14.6036C21.0536 15.1213 21.4726 15.5419 21.9904 15.5428H21.9922C22.5091 15.5427 22.9287 15.1242 22.9297 14.6071C22.9309 14.142 22.9401 8.25012 22.9448 8.04925C22.9478 7.466 23.4247 6.9915 24.0079 6.9915C24.2921 6.9915 24.5593 7.10219 24.7601 7.30331C24.961 7.50437 25.0715 7.77163 25.0711 8.05513L25.0536 17.6899L25.0576 20.8218Z" fill="#FFB629"/>
</g>
<defs>
<clipPath id="clip0">
<rect width="32" height="32" fill="white"/>
</clipPath>
</defs>
</svg>
