<svg width="32" height="32" viewBox="0 0 32 32" fill="none" xmlns="http://www.w3.org/2000/svg">
<path opacity="0.3" d="M4 16.0003V18.667H15.6933L14.2133 25.787L20 20.0003V6.66699H8L4 16.0003Z" fill="#0094FF"/>
<path d="M19.9999 4H7.99992C6.89325 4 5.94658 4.66667 5.54658 5.62667L1.51992 15.0267C1.39992 15.3333 1.33325 15.6533 1.33325 16V18.6667C1.33325 20.1333 2.53325 21.3333 3.99992 21.3333H12.4133L11.1466 27.4267L11.1066 27.8533C11.1066 28.4 11.3333 28.9067 11.6933 29.2667L13.1066 30.6667L21.8799 21.88C22.3733 21.4 22.6666 20.7333 22.6666 20V6.66667C22.6666 5.2 21.4666 4 19.9999 4ZM19.9999 20L14.2133 25.7867L15.6933 18.6667H3.99992V16L7.99992 6.66667H19.9999V20ZM25.3333 4H30.6666V20H25.3333V4Z" fill="#0094FF"/>
</svg>
