<svg width="16" height="12" viewBox="0 0 16 12" fill="none" xmlns="http://www.w3.org/2000/svg">
<path d="M15.85 2.79961C15.85 2.79961 15.7 1.69961 15.2 1.19961C14.6 0.54961 13.9 0.549609 13.6 0.499609C11.35 0.349609 8 0.349609 8 0.349609C8 0.349609 4.65 0.349609 2.4 0.499609C2.1 0.549609 1.4 0.54961 0.8 1.19961C0.3 1.69961 0.15 2.79961 0.15 2.79961C0.15 2.79961 0 4.09961 0 5.39961V6.59961C0 7.89961 0.15 9.19961 0.15 9.19961C0.15 9.19961 0.3 10.2996 0.8 10.7996C1.4 11.4496 2.2 11.3996 2.55 11.4996C3.85 11.5996 8 11.6496 8 11.6496C8 11.6496 11.35 11.6496 13.6 11.4996C13.9 11.4496 14.6 11.4496 15.2 10.7996C15.7 10.2996 15.85 9.19961 15.85 9.19961C15.85 9.19961 16 7.89961 16 6.59961V5.39961C16 4.09961 15.85 2.79961 15.85 2.79961ZM6.35 8.09961V3.59961L10.65 5.84961L6.35 8.09961Z" fill="#0094FF"/>
</svg>
