<svg width="32" height="32" viewBox="0 0 32 32" fill="none" xmlns="http://www.w3.org/2000/svg">
<g clip-path="url(#clip0)">
<path d="M31.07 26.4038H30.1404V23.6018C30.1404 23.084 29.7206 22.6643 29.2029 22.6643H26.8878V10.888C26.8878 4.88653 22.0052 0.00390625 16.0037 0.00390625C10.0022 0.00390625 5.11969 4.88647 5.11969 10.888V22.6643H2.80469C2.28694 22.6643 1.86719 23.084 1.86719 23.6018V26.4038H0.9375C0.41975 26.4038 0 26.8235 0 27.3413V31.0665C0 31.5842 0.41975 32.004 0.9375 32.004H31.07C31.5877 32.004 32.0075 31.5842 32.0075 31.0665V27.3413C32.0075 26.8235 31.5877 26.4038 31.07 26.4038ZM6.99469 10.888C6.99469 5.92041 11.0361 1.87891 16.0037 1.87891C20.9714 1.87891 25.0128 5.92034 25.0128 10.888V22.6643H6.99469V10.888ZM3.74219 24.5393H28.2654V26.4038H3.74219V24.5393ZM30.1325 30.129H1.875V28.2788H30.1325V30.129Z" fill="#0094FF"/>
<path d="M19.8459 16.6748H12.1611C11.6434 16.6748 11.2236 17.0946 11.2236 17.6123C11.2236 18.1301 11.6434 18.5498 12.1611 18.5498H19.8458C20.3636 18.5498 20.7833 18.1301 20.7833 17.6123C20.7833 17.0946 20.3636 16.6748 19.8459 16.6748Z" fill="#0094FF"/>
<path d="M19.8459 12.9248H12.1611C11.6434 12.9248 11.2236 13.3446 11.2236 13.8623C11.2236 14.3801 11.6434 14.7998 12.1611 14.7998H19.8458C20.3636 14.7998 20.7833 14.3801 20.7833 13.8623C20.7834 13.3446 20.3636 12.9248 19.8459 12.9248Z" fill="#0094FF"/>
<path d="M19.8459 9.1748H12.1611C11.6434 9.1748 11.2236 9.59455 11.2236 10.1123C11.2236 10.6301 11.6434 11.0498 12.1611 11.0498H19.8458C20.3636 11.0498 20.7833 10.6301 20.7833 10.1123C20.7834 9.59455 20.3636 9.1748 19.8459 9.1748Z" fill="#0094FF"/>
</g>
<defs>
<clipPath id="clip0">
<rect width="32" height="32" fill="white"/>
</clipPath>
</defs>
</svg>
