<svg width="32" height="32" viewBox="0 0 32 32" fill="none" xmlns="http://www.w3.org/2000/svg">
<path d="M29.1858 3.95456C25.3582 3.95456 22.1277 2.98287 20.0915 2.16769C17.8705 1.27856 16.5445 0.375875 16.5324 0.367563L15.9998 0L15.4673 0.367563C15.4153 0.403437 10.185 3.95462 2.81396 3.95462H1.87646V13.5627C1.87646 15.6596 2.21721 17.7255 2.88928 19.7033C3.54509 21.6334 4.50171 23.4386 5.73253 25.0685C6.9634 26.6985 8.43765 28.1127 10.1145 29.2718C11.8328 30.4596 13.7266 31.3529 15.7432 31.9269L15.9998 32L16.2565 31.9269C18.2732 31.3529 20.167 30.4596 21.8853 29.2718C23.5622 28.1127 25.0365 26.6984 26.2672 25.0685C27.498 23.4385 28.4546 21.6334 29.1105 19.7033C29.7825 17.7254 30.1233 15.6595 30.1233 13.5627V3.95456H29.1858ZM28.2483 13.5627C28.2483 17.338 27.0458 20.9259 24.7708 23.9387C22.5497 26.8804 19.5214 28.9886 15.9998 30.0485C12.4783 28.9886 9.45009 26.8803 7.22884 23.9387C4.9539 20.9259 3.7514 17.338 3.7514 13.5627V5.81219C9.91978 5.58337 14.4884 3.16038 15.9998 2.24919C17.5112 3.16038 22.0798 5.58344 28.2482 5.81219V13.5627H28.2483Z" fill="#FFB629"/>
<path d="M25.5613 7.45927C21.5839 6.92239 18.3971 5.61652 16.4241 4.61558L15.9999 4.40039L15.5757 4.61558C13.6027 5.61652 10.416 6.92233 6.43853 7.45927L5.62646 7.56889V13.5626C5.62646 16.9268 6.69796 20.124 8.72521 22.8087C10.5095 25.1716 12.9137 26.9549 15.678 27.9658L15.9999 28.0835L16.3218 27.9658C19.0862 26.9549 21.4903 25.1716 23.2746 22.8087C25.3018 20.124 26.3733 16.9268 26.3733 13.5626V7.56889L25.5613 7.45927ZM24.4983 13.5627C24.4983 16.5158 23.5578 19.3223 21.7783 21.6789C20.2817 23.6608 18.2892 25.1779 15.9999 26.0824C13.7106 25.1778 11.718 23.6607 10.2215 21.6789C8.44203 19.3223 7.50146 16.5158 7.50146 13.5627V9.19639C11.094 8.61027 14.0258 7.45933 15.9999 6.49852C17.974 7.45939 20.9058 8.61027 24.4983 9.19639V13.5627Z" fill="#FFB629"/>
<path d="M22.4786 13.297L18.002 12.6465L15.9999 8.58984L13.9979 12.6465L9.52124 13.297L12.7606 16.4546L11.9959 20.9132L15.9999 18.8081L20.004 20.9132L19.2393 16.4546L22.4786 13.297ZM17.5137 17.4857L15.9999 16.6898L14.486 17.4857L14.7751 15.8L13.5504 14.6062L15.2429 14.3602L15.9999 12.8265L16.7568 14.3602L18.4494 14.6062L17.2246 15.8L17.5137 17.4857Z" fill="#FFB629"/>
</svg>
