<svg width="16" height="14" viewBox="0 0 16 14" fill="none" xmlns="http://www.w3.org/2000/svg">
<path d="M1.33333 3.00065H0V6.33398H0.00666667L0 12.334C0 13.0673 0.6 13.6673 1.33333 13.6673H13.3333V12.334H1.33333V3.00065ZM14.6667 1.66732H9.33333L8 0.333984H4C3.26667 0.333984 2.67333 0.933984 2.67333 1.66732L2.66667 9.66732C2.66667 10.4007 3.26667 11.0007 4 11.0007H14.6667C15.4 11.0007 16 10.4007 16 9.66732V3.00065C16 2.26732 15.4 1.66732 14.6667 1.66732ZM4.66667 9.00065L7.66667 5.00065L10 8.00732L11.6667 6.00065L14 9.00065H4.66667Z" fill="#CACACA"/>
</svg>
