<svg width="33" height="37" viewBox="0 0 33 37" fill="none" xmlns="http://www.w3.org/2000/svg">
<path d="M7.49889 28.5663L11.4332 35.3812C12.2822 36.8533 14.192 37.3984 15.7023 36.5253C17.1968 35.6616 17.7104 33.7521 16.8458 32.2565L14.5021 28.1964L16.5318 27.0245C16.9053 26.8085 17.0335 26.3309 16.8177 25.9573L15.8018 24.1977C15.923 24.1742 16.7195 24.0179 30.7658 21.2625C32.5022 21.1682 33.5426 19.2691 32.6655 17.7509L30.0691 13.2538L31.7283 10.7407C31.8913 10.4935 31.901 10.1758 31.753 9.91943L30.1905 7.21313C30.0425 6.95679 29.7615 6.80664 29.467 6.82404L26.4613 7.00439L23.5789 2.01172C23.1614 1.28845 22.4134 0.850525 21.5785 0.840149C21.5684 0.839844 21.5586 0.839844 21.5486 0.839844C20.7417 0.839844 20.0093 1.24146 19.5753 1.92047L9.36962 14.9216L2.73479 18.7521C0.125232 20.2582 -0.778699 23.606 0.733142 26.2225C2.11437 28.6151 5.02635 29.5563 7.49889 28.5663ZM15.493 33.038C15.9245 33.7845 15.6691 34.7397 14.9205 35.1721C14.1694 35.6064 13.213 35.3397 12.7864 34.6002L8.88011 27.8336L11.5864 26.2711C16.1073 34.1025 15.4203 32.9126 15.493 33.038ZM13.7208 26.843L12.9396 25.4898L14.2927 24.7086L15.074 26.0617L13.7208 26.843ZM29.0788 8.41248L30.1585 10.2826L29.1957 11.7407L27.3347 8.51715L29.0788 8.41248ZM20.8821 2.7771C21.0917 2.43408 21.4244 2.39868 21.5593 2.40234C21.6926 2.40387 22.025 2.44537 22.2255 2.79266L31.3124 18.5321C31.6084 19.0445 31.2486 19.6887 30.655 19.7034C30.5485 19.7058 30.4994 19.725 30.2265 19.776L20.6144 3.12714C20.8161 2.86774 20.8421 2.84271 20.8821 2.7771ZM19.5747 4.4516L28.6058 20.094L14.976 22.7673L10.8317 15.5893L19.5747 4.4516ZM2.08629 25.4413C1.74327 24.8477 1.562 24.1739 1.562 23.4921C1.562 22.0987 2.3109 20.8011 3.51604 20.1053L9.60521 16.5897L13.5115 23.3554L7.42229 26.8713C5.55675 27.948 3.16326 27.3065 2.08629 25.4413Z" fill="white"/>
</svg>
