<svg width="203" height="160" viewBox="0 0 203 160" fill="none" xmlns="http://www.w3.org/2000/svg">
<path d="M120.663 26.3512C133.166 31.7062 150.215 31.1913 157.242 38.1941C164.268 45.0938 161.375 59.6142 161.788 74.3405C162.305 89.0668 166.231 103.999 162.201 116.254C158.275 128.509 146.289 137.88 133.269 143.956C120.25 150.032 106.094 152.812 95.761 146.119C85.4281 139.528 79.0217 123.463 73.132 113.37C67.1389 103.175 61.7658 98.8501 56.1861 93.2891C50.6063 87.7281 44.9233 80.8283 42.8567 72.8988C40.7901 64.8662 42.4434 55.7009 48.0231 50.1399C53.6029 44.5789 63.1091 42.6223 71.0654 34.5897C79.0217 26.5572 85.5314 12.5517 92.7644 11.11C99.9974 9.7712 108.057 20.9962 120.663 26.3512Z" fill="#E4F4FF"/>
<path d="M14.613 57.0208C17.2077 58.2028 20.0826 59.6098 23.0561 61.235L16.6234 49.5482L16.7906 49.5595C14.4367 49.2475 12.0649 49.2751 9.74512 49.6416L9.90617 49.6424L14.613 57.0208Z" fill="#0071C2"/>
<path d="M9.42205 49.8388C7.24969 50.1238 5.23231 50.9943 3.55857 52.369C3.47992 52.4377 3.40429 52.5081 3.32901 52.5788C4.06043 52.8467 8.34605 54.4485 14.1246 57.2539L9.42205 49.8388Z" fill="#0071C2"/>
<path d="M37.5521 69.7952C38.1529 70.2384 38.7386 70.6849 39.3093 71.1347L36.5301 55.9874L36.7256 56.0306C35.6545 55.3871 34.5669 54.7881 33.4628 54.2336L37.6424 69.8114L37.5521 69.7952Z" fill="#0071C2"/>
<path d="M32.0999 66.1632L26.8217 51.459L27.0162 51.4832C23.8171 50.4309 20.4809 49.7568 17.0771 49.4752L23.7076 61.5827C26.6942 63.0485 29.4917 64.5753 32.0999 66.1632Z" fill="#0071C2"/>
<path d="M3.95979 69.4057L3.81152 69.2666C5.20395 71.2475 6.77954 73.0887 8.51429 74.7622L29.9446 65.3772C27.7044 63.9179 25.5036 62.6058 23.4333 61.4471L3.95979 69.4057Z" fill="#0071C2"/>
<path d="M8.98433 74.6148L8.83789 74.4805C9.43369 75.055 10.058 75.6234 10.7109 76.1856L10.5635 76.0522L31.5818 66.4615C31.0535 66.1003 30.5263 65.7474 30.0002 65.4027L8.98433 74.6148Z" fill="#0071C2"/>
<path d="M36.9737 69.4397L32.6474 54.4971L32.8266 54.5369C30.9497 53.5143 29.0111 52.6198 27.0242 51.8595L32.4163 66.1518C34.017 67.2289 35.5362 68.3249 36.9737 69.4397Z" fill="#0071C2"/>
<path d="M39.2631 71.6551L17.8994 81.4268C19.8301 82.2322 21.817 82.9079 23.8466 83.4493L23.6962 83.3041L44.3557 76.3381C42.7576 74.6757 41.057 73.1119 39.2631 71.6551Z" fill="#0071C2"/>
<path d="M2.87422 52.7214L2.86006 52.5883C0.500343 54.8191 -0.301056 57.8972 0.272932 61.3549L14.1249 57.253C7.61939 54.2903 2.94139 52.7434 2.87422 52.7214Z" fill="#0071C2"/>
<path d="M40.0433 71.8869C41.669 73.2226 43.217 74.6465 44.6803 76.1522L42.7486 61.4925L42.9345 61.5396C41.6767 60.0688 40.2296 58.766 38.628 57.6625C37.9966 57.2318 37.3569 56.8178 36.7089 56.4206L39.5284 71.4695C39.7005 71.6086 39.8741 71.7473 40.0433 71.8869Z" fill="#0071C2"/>
<path d="M23.3956 61.0393C20.3524 59.4375 17.4096 58.055 14.7523 56.8956L0.484839 61.2629L0.349365 61.1263C0.770323 63.6787 1.96657 66.4237 3.8624 69.1675L23.3956 61.0393Z" fill="#0071C2"/>
<path d="M18.113 80.8155L39.3249 71.1252L39.3222 71.1112C37.1588 69.3706 34.8993 67.7484 32.5536 66.2517L10.9121 76.3262C11.7817 77.0279 12.7023 77.713 13.6741 78.3817C15.0727 79.3262 16.5584 80.1408 18.113 80.8155Z" fill="#0071C2"/>
<path d="M68.5461 56.8505L68.6742 56.9668C66.9717 55.2121 65.0294 53.7063 62.9047 52.494L63.0348 52.5983L61.9605 61.2881C63.2814 63.8652 64.6805 66.7952 66.0149 69.9562L68.5461 56.8505Z" fill="#0071C2"/>
<path d="M63.2621 52.8419C61.2544 51.7601 58.9639 51.2051 56.6047 51.2287C56.491 51.2328 56.3785 51.2401 56.2661 51.2477C56.6862 51.882 59.125 55.6222 61.9593 61.1444L63.2621 52.8419Z" fill="#0071C2"/>
<path d="M71.6911 85.5704C71.8629 86.2854 72.022 86.9934 72.1683 87.6943L79.0699 74.4941L79.1852 74.6504C78.7926 73.4866 78.3621 72.3458 77.8935 71.2282L71.7465 85.6398L71.6911 85.5704Z" fill="#0071C2"/>
<path d="M69.3102 79.2058L74.9586 64.447L75.0833 64.5841C73.4536 61.8152 71.4818 59.2602 69.2091 56.9727L66.205 70.5119C67.4158 73.4767 68.4509 76.3747 69.3102 79.2058Z" fill="#0071C2"/>
<path d="M75.1484 64.702L70.0724 79.404C70.6658 81.2995 71.18 83.1559 71.615 84.9732L77.9934 70.4667L78.1134 70.6159C77.2581 68.5809 76.2675 66.6051 75.1484 64.702Z" fill="#0071C2"/>
<path d="M72.4827 106.634C72.4123 106.491 72.3393 106.345 72.2638 106.194C72.8368 102.968 73.019 99.6835 72.8066 96.4126L62.1825 92.2557C61.95 92.0391 61.7141 91.8253 61.4748 91.6144L72.7832 96.0389C72.6247 93.6862 72.3253 91.3451 71.8866 89.0281L51.3329 83.4266C51.3144 83.3005 51.295 83.1714 51.2749 83.0403L71.8023 88.6346L71.8093 88.6217C71.2604 85.8169 70.561 83.0436 69.714 80.3139L49.4387 74.948C49.3974 74.8136 49.3555 74.6788 49.3128 74.5436L69.5888 79.9096C69.3996 79.3049 69.206 78.7071 69.0079 78.116L48.5816 72.4003C48.5311 72.2627 48.4797 72.1249 48.4275 71.987L68.8698 77.7073C68.0388 75.2613 67.1451 72.9469 66.2561 70.8248L45.8763 64.6056L45.8485 64.4127C45.8003 65.0208 45.7728 65.6454 45.7621 66.2821C44.9077 64.7796 43.9254 63.3535 42.8261 62.0196L44.9754 76.9452C46.3294 78.3946 47.5865 79.9317 48.7384 81.5466C48.8756 81.8528 49.0166 82.1591 49.1648 82.4653L49.4157 82.5336C49.5155 82.6839 49.6144 82.8342 49.7114 82.9848L49.3777 82.8938C49.4657 83.0699 49.5569 83.2459 49.6483 83.4218C48.2206 81.1693 46.5842 79.0562 44.7606 77.1104L24.3418 83.8542C25.805 84.27 27.297 84.6337 28.7915 84.9526C26.5345 85.4528 24.3554 86.2549 22.3129 87.3371L22.4712 87.2831L29.2619 92.852C32.1557 93.1178 35.3907 93.5067 38.7868 94.0742L29.1691 85.0322C29.355 85.071 29.5409 85.109 29.7267 85.1464L39.3197 94.1653C42.5003 94.7117 45.5294 95.3649 48.407 96.1248L40.9723 86.7203C41.1218 86.7334 41.2703 86.7461 41.4178 86.7585L48.9329 96.2648C50.8489 96.7824 52.6895 97.3464 54.4548 97.9566L47.2339 87.1108C47.3761 87.1161 47.5157 87.121 47.6525 87.1257L54.9497 98.0861L54.8611 98.0962C55.5592 98.3418 56.2444 98.5947 56.9168 98.8549L50.3927 87.1854C50.5394 87.1867 50.6749 87.1875 50.7991 87.1879L57.436 99.0594C57.6439 99.1416 57.853 99.2231 58.0584 99.3068C60.0291 100.105 61.955 101.01 63.8276 102.018L63.2897 100.924C63.5542 101.188 63.8157 101.447 64.0743 101.7L64.3801 102.322C64.6574 102.476 64.9303 102.633 65.2012 102.79C65.5134 103.088 65.8189 103.377 66.1175 103.657C65.4975 103.273 64.8674 102.903 64.227 102.545L46.8968 115.275C59.5864 114.8 73.0708 110.278 73.9282 109.986C73.2802 109.283 72.5968 108.609 71.8843 107.962C71.9107 107.854 71.9358 107.745 71.9611 107.637C72.0471 107.714 72.1342 107.79 72.2191 107.867C72.2059 107.924 72.1938 107.981 72.1803 108.038C72.2081 107.998 72.2371 107.956 72.2674 107.912C72.7666 108.368 73.2463 108.833 73.7065 109.306C73.5036 108.823 73.1853 108.095 72.7532 107.192C75.1273 103.601 80.9561 93.7457 80.9361 83.5634L73.0775 96.4224C73.304 99.8383 73.1041 103.269 72.4827 106.634ZM58.2756 90.7272L58.0537 90.2759L58.5531 90.4712L58.775 90.9226L58.2756 90.7272Z" fill="#0071C2"/>
<path d="M55.7969 50.7152L55.8673 50.6095C52.6524 50.7183 50.1409 52.4403 48.4754 55.3187L61.8445 61.2109C58.5571 54.8933 55.8361 50.7742 55.7969 50.7152Z" fill="#0071C2"/>
<path d="M71.9369 89.4209C72.2803 91.442 72.5106 93.4836 72.6267 95.5366L80.5278 83.0662L80.6343 83.2159C80.6466 81.3152 80.4133 79.4285 79.94 77.6009C79.7507 76.8837 79.5446 76.1744 79.3218 75.4729L71.8244 88.7851C71.8623 88.9972 71.9014 89.2101 71.9369 89.4209Z" fill="#0071C2"/>
<path d="M62.1361 61.4531L48.6277 55.8375L48.61 55.6517C47.3425 57.8124 46.5418 60.598 46.2712 63.8174L66.1007 69.9067C64.7936 66.824 63.4261 63.9669 62.1361 61.4531Z" fill="#0071C2"/>
<path d="M22.4681 86.9169C20.3015 88.0534 18.4398 89.6912 17.0571 91.6771C16.9931 91.7743 16.9327 91.8721 16.8727 91.97C17.6925 91.9371 22.5037 91.7753 29.1511 92.1777L22.4681 86.9169Z" fill="#0071C2"/>
<path d="M39.3342 94.4257L23.2835 108.169L23.108 108.091C24.9357 109.435 26.897 110.59 28.9622 111.539L46.4586 95.8432C43.9789 95.2578 41.5752 94.7935 39.3342 94.4257Z" fill="#0071C2"/>
<path d="M48.4625 95.8034C47.8466 95.6272 47.2341 95.4587 46.6252 95.2977L29.1328 111.286L28.9519 111.204C29.6962 111.565 30.4662 111.912 31.2618 112.243L31.0803 112.162L48.4625 95.8034Z" fill="#0071C2"/>
<path d="M64.0268 101.721C61.9962 100.702 59.8963 99.8052 57.7384 99.0357L40.0807 114.695C42.1772 114.825 44.2892 114.819 46.4025 114.677L46.2147 114.591L64.0268 101.721Z" fill="#0071C2"/>
<path d="M16.9688 92.2446L16.9173 92.1244C15.4013 94.9531 15.5586 98.0873 17.0863 101.146L28.5912 92.9649C21.7716 92.2276 17.0367 92.2442 16.9688 92.2446Z" fill="#0071C2"/>
<path d="M29.7928 92.8224L17.4344 101.507L17.2642 101.422C18.4242 103.691 20.3832 105.893 23.0114 107.87L39.2937 93.9553C35.9061 93.4219 32.6798 93.0629 29.7928 92.8224Z" fill="#0071C2"/>
<path d="M57.1571 98.5877C54.5084 97.5545 51.8061 96.6648 49.0618 95.9223L31.536 112.173C32.6013 112.59 33.7103 112.976 34.863 113.331C36.5162 113.824 38.211 114.165 39.9262 114.35L57.1642 98.6004L57.1571 98.5877Z" fill="#0071C2"/>
<path d="M14.613 57.0208C17.2077 58.2028 20.0826 59.6098 23.0561 61.235L16.6234 49.5482L16.7906 49.5595C14.4367 49.2475 12.0649 49.2751 9.74512 49.6416L9.90617 49.6424L14.613 57.0208Z" fill="#A3D8FF"/>
<path d="M9.42205 49.8388C7.24969 50.1238 5.23231 50.9943 3.55857 52.369C3.47992 52.4377 3.40429 52.5081 3.32901 52.5788C4.06043 52.8467 8.34605 54.4485 14.1246 57.2539L9.42205 49.8388Z" fill="#A3D8FF"/>
<path d="M37.5521 69.7952C38.1529 70.2384 38.7386 70.6849 39.3093 71.1347L36.5301 55.9874L36.7256 56.0306C35.6545 55.3871 34.5669 54.7881 33.4628 54.2336L37.6424 69.8114L37.5521 69.7952Z" fill="#A3D8FF"/>
<path d="M32.0999 66.1632L26.8217 51.459L27.0162 51.4832C23.8171 50.4309 20.4809 49.7568 17.0771 49.4752L23.7076 61.5827C26.6942 63.0485 29.4917 64.5753 32.0999 66.1632Z" fill="#A3D8FF"/>
<path d="M3.95979 69.4057L3.81152 69.2666C5.20395 71.2475 6.77954 73.0887 8.51429 74.7622L29.9446 65.3772C27.7044 63.9179 25.5036 62.6058 23.4333 61.4471L3.95979 69.4057Z" fill="#A3D8FF"/>
<path d="M8.98433 74.6148L8.83789 74.4805C9.43369 75.055 10.058 75.6234 10.7109 76.1856L10.5635 76.0522L31.5818 66.4615C31.0535 66.1003 30.5263 65.7474 30.0002 65.4027L8.98433 74.6148Z" fill="#A3D8FF"/>
<path d="M36.9737 69.4397L32.6474 54.4971L32.8266 54.5369C30.9497 53.5143 29.0111 52.6198 27.0242 51.8595L32.4163 66.1518C34.017 67.2289 35.5362 68.3249 36.9737 69.4397Z" fill="#A3D8FF"/>
<path d="M39.2631 71.6551L17.8994 81.4268C19.8301 82.2322 21.817 82.9079 23.8466 83.4493L23.6962 83.3041L44.3557 76.3381C42.7576 74.6757 41.057 73.1119 39.2631 71.6551Z" fill="#A3D8FF"/>
<path d="M2.87422 52.7214L2.86006 52.5883C0.500343 54.8191 -0.301056 57.8972 0.272932 61.3549L14.1249 57.253C7.61939 54.2903 2.94139 52.7434 2.87422 52.7214Z" fill="#A3D8FF"/>
<path d="M40.0433 71.8869C41.669 73.2226 43.217 74.6465 44.6803 76.1522L42.7486 61.4925L42.9345 61.5396C41.6767 60.0688 40.2296 58.766 38.628 57.6625C37.9966 57.2318 37.3569 56.8178 36.7089 56.4206L39.5284 71.4695C39.7005 71.6086 39.8741 71.7473 40.0433 71.8869Z" fill="#A3D8FF"/>
<path d="M23.3956 61.0393C20.3524 59.4375 17.4096 58.055 14.7523 56.8956L0.484839 61.2629L0.349365 61.1263C0.770323 63.6787 1.96657 66.4237 3.8624 69.1675L23.3956 61.0393Z" fill="#A3D8FF"/>
<path d="M18.113 80.8155L39.3249 71.1252L39.3222 71.1112C37.1588 69.3706 34.8993 67.7484 32.5536 66.2517L10.9121 76.3262C11.7817 77.0279 12.7023 77.713 13.6741 78.3817C15.0727 79.3262 16.5584 80.1408 18.113 80.8155Z" fill="#A3D8FF"/>
<path d="M68.5461 56.8505L68.6742 56.9668C66.9717 55.2121 65.0294 53.7063 62.9047 52.494L63.0348 52.5983L61.9605 61.2881C63.2814 63.8652 64.6805 66.7952 66.0149 69.9562L68.5461 56.8505Z" fill="#A3D8FF"/>
<path d="M63.2621 52.8419C61.2544 51.7601 58.9639 51.2051 56.6047 51.2287C56.491 51.2328 56.3785 51.2401 56.2661 51.2477C56.6862 51.882 59.125 55.6222 61.9593 61.1444L63.2621 52.8419Z" fill="#A3D8FF"/>
<path d="M71.6911 85.5704C71.8629 86.2854 72.022 86.9934 72.1683 87.6943L79.0699 74.4941L79.1852 74.6504C78.7926 73.4866 78.3621 72.3458 77.8935 71.2282L71.7465 85.6398L71.6911 85.5704Z" fill="#A3D8FF"/>
<path d="M69.3102 79.2058L74.9586 64.447L75.0833 64.5841C73.4536 61.8152 71.4818 59.2602 69.2091 56.9727L66.205 70.5119C67.4158 73.4767 68.4509 76.3747 69.3102 79.2058Z" fill="#A3D8FF"/>
<path d="M75.1484 64.702L70.0724 79.404C70.6658 81.2995 71.18 83.1559 71.615 84.9732L77.9934 70.4667L78.1134 70.6159C77.2581 68.5809 76.2675 66.6051 75.1484 64.702Z" fill="#A3D8FF"/>
<path d="M72.4827 106.634C72.4123 106.491 72.3393 106.345 72.2638 106.194C72.8368 102.968 73.019 99.6835 72.8066 96.4126L62.1825 92.2557C61.95 92.0391 61.7141 91.8253 61.4748 91.6144L72.7832 96.0389C72.6247 93.6862 72.3253 91.3451 71.8866 89.0281L51.3329 83.4266C51.3144 83.3005 51.295 83.1714 51.2749 83.0403L71.8023 88.6346L71.8093 88.6217C71.2604 85.8169 70.561 83.0436 69.714 80.3139L49.4387 74.948C49.3974 74.8136 49.3555 74.6788 49.3128 74.5436L69.5888 79.9096C69.3996 79.3049 69.206 78.7071 69.0079 78.116L48.5816 72.4003C48.5311 72.2627 48.4797 72.1249 48.4275 71.987L68.8698 77.7073C68.0388 75.2613 67.1451 72.9469 66.2561 70.8248L45.8763 64.6056L45.8485 64.4127C45.8003 65.0208 45.7728 65.6454 45.7621 66.2821C44.9077 64.7796 43.9254 63.3535 42.8261 62.0196L44.9754 76.9452C46.3294 78.3946 47.5865 79.9317 48.7384 81.5466C48.8756 81.8528 49.0166 82.1591 49.1648 82.4653L49.4157 82.5336C49.5155 82.6839 49.6144 82.8342 49.7114 82.9848L49.3777 82.8938C49.4657 83.0699 49.5569 83.2459 49.6483 83.4218C48.2206 81.1693 46.5842 79.0562 44.7606 77.1104L24.3418 83.8542C25.805 84.27 27.297 84.6337 28.7915 84.9526C26.5345 85.4528 24.3554 86.2549 22.3129 87.3371L22.4712 87.2831L29.2619 92.852C32.1557 93.1178 35.3907 93.5067 38.7868 94.0742L29.1691 85.0322C29.355 85.071 29.5409 85.109 29.7267 85.1464L39.3197 94.1653C42.5003 94.7117 45.5294 95.3649 48.407 96.1248L40.9723 86.7203C41.1218 86.7334 41.2703 86.7461 41.4178 86.7585L48.9329 96.2648C50.8489 96.7824 52.6895 97.3464 54.4548 97.9566L47.2339 87.1108C47.3761 87.1161 47.5157 87.121 47.6525 87.1257L54.9497 98.0861L54.8611 98.0962C55.5592 98.3418 56.2444 98.5947 56.9168 98.8549L50.3927 87.1854C50.5394 87.1867 50.6749 87.1875 50.7991 87.1879L57.436 99.0594C57.6439 99.1416 57.853 99.2231 58.0584 99.3068C60.0291 100.105 61.955 101.01 63.8276 102.018L63.2897 100.924C63.5542 101.188 63.8157 101.447 64.0743 101.7L64.3801 102.322C64.6574 102.476 64.9303 102.633 65.2012 102.79C65.5134 103.088 65.8189 103.377 66.1175 103.657C65.4975 103.273 64.8674 102.903 64.227 102.545L46.8968 115.275C59.5864 114.8 73.0708 110.278 73.9282 109.986C73.2802 109.283 72.5968 108.609 71.8843 107.962C71.9107 107.854 71.9358 107.745 71.9611 107.637C72.0471 107.714 72.1342 107.79 72.2191 107.867C72.2059 107.924 72.1938 107.981 72.1803 108.038C72.2081 107.998 72.2371 107.956 72.2674 107.912C72.7666 108.368 73.2463 108.833 73.7065 109.306C73.5036 108.823 73.1853 108.095 72.7532 107.192C75.1273 103.601 80.9561 93.7457 80.9361 83.5634L73.0775 96.4224C73.304 99.8383 73.1041 103.269 72.4827 106.634ZM58.2756 90.7272L58.0537 90.2759L58.5531 90.4712L58.775 90.9226L58.2756 90.7272Z" fill="#A3D8FF"/>
<path d="M55.7969 50.7152L55.8673 50.6095C52.6524 50.7183 50.1409 52.4403 48.4754 55.3187L61.8445 61.2109C58.5571 54.8933 55.8361 50.7742 55.7969 50.7152Z" fill="#A3D8FF"/>
<path d="M71.9369 89.4209C72.2803 91.442 72.5106 93.4836 72.6267 95.5366L80.5278 83.0662L80.6343 83.2159C80.6466 81.3152 80.4133 79.4285 79.94 77.6009C79.7507 76.8837 79.5446 76.1744 79.3218 75.4729L71.8244 88.7851C71.8623 88.9972 71.9014 89.2101 71.9369 89.4209Z" fill="#A3D8FF"/>
<path d="M62.1361 61.4531L48.6277 55.8375L48.61 55.6517C47.3425 57.8124 46.5418 60.598 46.2712 63.8174L66.1007 69.9067C64.7936 66.824 63.4261 63.9669 62.1361 61.4531Z" fill="#A3D8FF"/>
<path d="M22.4681 86.9169C20.3015 88.0534 18.4398 89.6912 17.0571 91.6771C16.9931 91.7743 16.9327 91.8721 16.8727 91.97C17.6925 91.9371 22.5037 91.7753 29.1511 92.1777L22.4681 86.9169Z" fill="#A3D8FF"/>
<path d="M39.3342 94.4257L23.2835 108.169L23.108 108.091C24.9357 109.435 26.897 110.59 28.9622 111.539L46.4586 95.8432C43.9789 95.2578 41.5752 94.7935 39.3342 94.4257Z" fill="#A3D8FF"/>
<path d="M48.4625 95.8034C47.8466 95.6272 47.2341 95.4587 46.6252 95.2977L29.1328 111.286L28.9519 111.204C29.6962 111.565 30.4662 111.912 31.2618 112.243L31.0803 112.162L48.4625 95.8034Z" fill="#A3D8FF"/>
<path d="M64.0268 101.721C61.9962 100.702 59.8963 99.8052 57.7384 99.0357L40.0807 114.695C42.1772 114.825 44.2892 114.819 46.4025 114.677L46.2147 114.591L64.0268 101.721Z" fill="#A3D8FF"/>
<path d="M16.9688 92.2446L16.9173 92.1244C15.4013 94.9531 15.5586 98.0873 17.0863 101.146L28.5912 92.9649C21.7716 92.2276 17.0367 92.2442 16.9688 92.2446Z" fill="#A3D8FF"/>
<path d="M29.7928 92.8224L17.4344 101.507L17.2642 101.422C18.4242 103.691 20.3832 105.893 23.0114 107.87L39.2937 93.9553C35.9061 93.4219 32.6798 93.0629 29.7928 92.8224Z" fill="#A3D8FF"/>
<path d="M57.1571 98.5877C54.5084 97.5545 51.8061 96.6648 49.0618 95.9223L31.536 112.173C32.6013 112.59 33.7103 112.976 34.863 113.331C36.5162 113.824 38.211 114.165 39.9262 114.35L57.1642 98.6004L57.1571 98.5877Z" fill="#A3D8FF"/>
<path d="M172.803 82.1886C172.803 82.1886 188.691 98.3194 149.609 106.922C149.609 106.922 145.592 90.8092 156.983 81.4183C159.195 79.5857 162.002 78.628 164.873 78.7267C167.744 78.8254 170.479 79.9736 172.56 81.9538L172.803 82.1886Z" fill="#A3D8FF"/>
<path d="M172.646 81.8945C172.646 81.8945 153.432 90.0873 149.609 106.922" stroke="#72B7E9" stroke-miterlimit="10"/>
<path d="M148.572 107.342C148.572 107.342 159.563 88.8625 156.33 72.3683C154.972 65.4467 155.769 58.2673 158.835 51.9142C160.296 48.899 162.03 46.0241 164.015 43.3257" stroke="#72B7E9" stroke-miterlimit="10"/>
<path d="M162.046 32.9339C161.42 35.3841 164.044 43.61 164.044 43.61C164.044 43.61 170.293 37.6405 170.917 35.1998C171.081 34.6124 171.127 33.998 171.051 33.3927C170.975 32.7874 170.778 32.2034 170.473 31.6751C170.168 31.1468 169.76 30.6848 169.274 30.3163C168.788 29.9477 168.233 29.6801 167.642 29.5291C167.051 29.3781 166.436 29.3468 165.832 29.437C165.229 29.5272 164.65 29.7371 164.128 30.0544C163.607 30.3716 163.155 30.7898 162.798 31.2844C162.441 31.779 162.186 32.34 162.049 32.9345L162.046 32.9339Z" fill="#C1E5FF"/>
<path d="M151.242 44.6252C152.048 47.0218 158.723 52.5088 158.723 52.5088C158.723 52.5088 160.724 44.1017 159.918 41.705C159.509 40.5831 158.677 39.6654 157.601 39.1478C156.525 38.6301 155.289 38.5535 154.158 38.9342C153.026 39.3149 152.087 40.1228 151.543 41.1855C150.998 42.2483 150.891 43.4818 151.243 44.6228L151.242 44.6252Z" fill="#C1E5FF"/>
<path d="M145.643 67.8899C147.549 69.551 156.079 70.9194 156.079 70.9194C156.079 70.9194 153.563 62.6522 151.657 60.9911C150.739 60.2216 149.555 59.843 148.36 59.9365C147.166 60.03 146.055 60.5882 145.268 61.4912C144.48 62.3943 144.078 63.5702 144.148 64.7664C144.217 65.9626 144.753 67.0838 145.64 67.8893L145.643 67.8899Z" fill="#C1E5FF"/>
<path d="M145.368 86.4461C146.965 88.4042 155.144 91.1952 155.144 91.1952C155.144 91.1952 154.061 82.623 152.465 80.6625C152.087 80.1911 151.619 79.7991 151.089 79.5093C150.559 79.2195 149.977 79.0375 149.376 78.9738C148.775 78.9101 148.167 78.966 147.588 79.1383C147.009 79.3106 146.47 79.5958 146.001 79.9775C145.533 80.3592 145.145 80.8299 144.859 81.3623C144.574 81.8948 144.396 82.4785 144.337 83.0799C144.279 83.6812 144.339 84.2883 144.516 84.866C144.693 85.4438 144.983 85.9808 145.368 86.4461Z" fill="#C1E5FF"/>
<path d="M167.914 55.3623C165.722 56.6195 157.085 56.2963 157.085 56.2963C157.085 56.2963 161.165 48.6799 163.358 47.4202C163.88 47.104 164.46 46.8953 165.064 46.8065C165.667 46.7177 166.283 46.7505 166.874 46.9031C167.465 47.0557 168.019 47.3248 168.505 47.6948C168.99 48.0648 169.397 48.5282 169.7 49.0576C170.004 49.587 170.199 50.1718 170.273 50.7775C170.348 51.3833 170.3 51.9979 170.133 52.585C169.967 53.1722 169.684 53.7201 169.303 54.1965C168.922 54.6729 168.449 55.0683 167.912 55.3593L167.914 55.3623Z" fill="#C1E5FF"/>
<path d="M167.317 77.0589C164.848 77.6023 156.707 74.7117 156.707 74.7117C156.707 74.7117 162.88 68.6642 165.349 68.1208C166.524 67.8862 167.744 68.1216 168.748 68.7766C169.751 69.4316 170.458 70.454 170.716 71.6241C170.974 72.7943 170.762 74.0189 170.128 75.0352C169.493 76.0514 168.485 76.7782 167.32 77.0595L167.317 77.0589Z" fill="#C1E5FF"/>
<path d="M163.844 98.0691C161.504 99.0216 152.988 97.5476 152.988 97.5476C152.988 97.5476 158.051 90.543 160.393 89.5911C161.515 89.1445 162.769 89.1594 163.88 89.6326C164.991 90.1058 165.87 90.999 166.326 92.1175C166.781 93.236 166.776 94.4892 166.312 95.6041C165.848 96.719 164.961 97.6052 163.847 98.0697L163.844 98.0691Z" fill="#C1E5FF"/>
<path opacity="0.25" d="M162.046 32.9339C161.42 35.3841 164.044 43.61 164.044 43.61C164.044 43.61 170.293 37.6405 170.917 35.1998C171.081 34.6124 171.127 33.998 171.051 33.3927C170.975 32.7874 170.778 32.2034 170.473 31.6751C170.168 31.1468 169.76 30.6848 169.274 30.3163C168.788 29.9477 168.233 29.6801 167.642 29.5291C167.051 29.3781 166.436 29.3468 165.832 29.437C165.229 29.5272 164.65 29.7371 164.128 30.0544C163.607 30.3716 163.155 30.7898 162.798 31.2844C162.441 31.779 162.186 32.34 162.049 32.9345L162.046 32.9339Z" fill="#C1E5FF"/>
<path opacity="0.25" d="M151.242 44.6252C152.048 47.0218 158.723 52.5088 158.723 52.5088C158.723 52.5088 160.724 44.1017 159.918 41.705C159.509 40.5831 158.677 39.6654 157.601 39.1478C156.525 38.6301 155.289 38.5535 154.158 38.9342C153.026 39.3149 152.087 40.1228 151.543 41.1855C150.998 42.2483 150.891 43.4818 151.243 44.6228L151.242 44.6252Z" fill="#C1E5FF"/>
<path opacity="0.25" d="M145.643 67.8899C147.549 69.551 156.079 70.9194 156.079 70.9194C156.079 70.9194 153.563 62.6522 151.657 60.9911C150.739 60.2216 149.555 59.843 148.36 59.9365C147.166 60.03 146.055 60.5882 145.268 61.4912C144.48 62.3943 144.078 63.5702 144.148 64.7664C144.217 65.9626 144.753 67.0838 145.64 67.8893L145.643 67.8899Z" fill="#C1E5FF"/>
<path opacity="0.25" d="M145.368 86.4461C146.965 88.4042 155.144 91.1952 155.144 91.1952C155.144 91.1952 154.061 82.623 152.465 80.6625C152.087 80.1911 151.619 79.7991 151.089 79.5093C150.559 79.2195 149.977 79.0375 149.376 78.9738C148.775 78.9101 148.167 78.966 147.588 79.1383C147.009 79.3106 146.47 79.5958 146.001 79.9775C145.533 80.3592 145.145 80.8299 144.859 81.3623C144.574 81.8948 144.396 82.4785 144.337 83.0799C144.279 83.6812 144.339 84.2883 144.516 84.866C144.693 85.4438 144.983 85.9808 145.368 86.4461Z" fill="#C1E5FF"/>
<path opacity="0.25" d="M167.914 55.3623C165.722 56.6195 157.085 56.2963 157.085 56.2963C157.085 56.2963 161.165 48.6799 163.358 47.4202C163.88 47.104 164.46 46.8953 165.064 46.8065C165.667 46.7177 166.283 46.7505 166.874 46.9031C167.465 47.0557 168.019 47.3248 168.505 47.6948C168.99 48.0648 169.397 48.5282 169.7 49.0576C170.004 49.587 170.199 50.1718 170.273 50.7775C170.348 51.3833 170.3 51.9979 170.133 52.585C169.967 53.1722 169.684 53.7201 169.303 54.1965C168.922 54.6729 168.449 55.0683 167.912 55.3593L167.914 55.3623Z" fill="#C1E5FF"/>
<path opacity="0.25" d="M167.317 77.0589C164.848 77.6023 156.707 74.7117 156.707 74.7117C156.707 74.7117 162.88 68.6642 165.349 68.1208C166.524 67.8862 167.744 68.1216 168.748 68.7766C169.751 69.4316 170.458 70.454 170.716 71.6241C170.974 72.7943 170.762 74.0189 170.128 75.0352C169.493 76.0514 168.485 76.7782 167.32 77.0595L167.317 77.0589Z" fill="#C1E5FF"/>
<path opacity="0.25" d="M163.844 98.0691C161.504 99.0216 152.988 97.5476 152.988 97.5476C152.988 97.5476 158.051 90.543 160.393 89.5911C161.515 89.1445 162.769 89.1594 163.88 89.6326C164.991 90.1058 165.87 90.999 166.326 92.1175C166.781 93.236 166.776 94.4892 166.312 95.6041C165.848 96.719 164.961 97.6052 163.847 98.0697L163.844 98.0691Z" fill="#C1E5FF"/>
</svg>
