<svg width="100" height="100" viewBox="0 0 100 100" fill="none" xmlns="http://www.w3.org/2000/svg">
<path d="M82.3204 87.64C81.0803 87.64 79.9104 87.16 79.0404 86.28L48.3604 55.6L54.9203 49.04L85.6003 79.72C87.4104 81.53 87.4104 84.47 85.6003 86.28C84.7203 87.16 83.5604 87.64 82.3204 87.64Z" fill="#C5E7FF"/>
<path d="M54.9202 51.1599L84.5402 80.7799C85.1302 81.3699 85.4602 82.1599 85.4602 82.9999C85.4602 83.8399 85.1302 84.6299 84.5402 85.2199C83.9502 85.8099 83.1602 86.1399 82.3202 86.1399C81.4802 86.1399 80.6902 85.8099 80.1002 85.2199L50.4802 55.5999L54.9202 51.1599ZM54.9202 46.9199L46.2402 55.5999L77.9802 87.3399C79.1802 88.5399 80.7502 89.1399 82.3202 89.1399C83.8902 89.1399 85.4602 88.5399 86.6602 87.3399C89.0602 84.9399 89.0602 81.0599 86.6602 78.6599L54.9202 46.9199Z" fill="#007AD2"/>
<path d="M36.5 61.5C50.3071 61.5 61.5 50.3071 61.5 36.5C61.5 22.6929 50.3071 11.5 36.5 11.5C22.6929 11.5 11.5 22.6929 11.5 36.5C11.5 50.3071 22.6929 61.5 36.5 61.5Z" fill="#C5E7FF"/>
<path d="M36.5 13C49.46 13 60 23.54 60 36.5C60 49.46 49.46 60 36.5 60C23.54 60 13 49.46 13 36.5C13 23.54 23.54 13 36.5 13ZM36.5 10C21.86 10 10 21.86 10 36.5C10 51.14 21.86 63 36.5 63C51.14 63 63 51.14 63 36.5C63 21.86 51.14 10 36.5 10Z" fill="#007AD2"/>
<path d="M36.5 54.5C46.4411 54.5 54.5 46.4411 54.5 36.5C54.5 26.5589 46.4411 18.5 36.5 18.5C26.5589 18.5 18.5 26.5589 18.5 36.5C18.5 46.4411 26.5589 54.5 36.5 54.5Z" fill="#C5E7FF"/>
<path d="M36.5 20C45.6 20 53 27.4 53 36.5C53 45.6 45.6 53 36.5 53C27.4 53 20 45.6 20 36.5C20 27.4 27.4 20 36.5 20ZM36.5 17C25.73 17 17 25.73 17 36.5C17 47.27 25.73 56 36.5 56C47.27 56 56 47.27 56 36.5C56 25.73 47.27 17 36.5 17Z" fill="#0094FF"/>
</svg>
