<svg width="32" height="32" viewBox="0 0 32 32" fill="none" xmlns="http://www.w3.org/2000/svg">
<path opacity="0.3" d="M17.7867 6.21387L12 12.0005V25.3339H24L28 16.0005V13.3339H16.3067L17.7867 6.21387Z" fill="#0094FF"/>
<path d="M27.9999 10.6663H19.5866L20.8533 4.57301L20.8933 4.14634C20.8933 3.59967 20.6666 3.09301 20.3066 2.73301L18.8933 1.33301L10.1199 10.1197C9.62659 10.5997 9.33325 11.2663 9.33325 11.9997V25.333C9.33325 26.7997 10.5333 27.9997 11.9999 27.9997H23.9999C25.1066 27.9997 26.0533 27.333 26.4533 26.373L30.4799 16.973C30.5999 16.6663 30.6666 16.3463 30.6666 15.9997V13.333C30.6666 11.8663 29.4666 10.6663 27.9999 10.6663ZM27.9999 15.9997L23.9999 25.333H11.9999V11.9997L17.7866 6.21301L16.3066 13.333H27.9999V15.9997ZM1.33325 11.9997H6.66658V27.9997H1.33325V11.9997Z" fill="#0094FF"/>
</svg>
