<svg width="32" height="32" viewBox="0 0 32 32" fill="none" xmlns="http://www.w3.org/2000/svg">
<path d="M0.474628 13.7056L5.25049 16.0062V19.8359C5.25049 20.1579 5.43498 20.4516 5.72512 20.5914L14.8617 24.9925C14.9752 25.0471 15.0996 25.0755 15.2257 25.0755H16.761C16.887 25.0755 17.0113 25.0471 17.125 24.9925L26.2363 20.6035C26.4129 20.5183 26.5542 20.374 26.6355 20.1956C26.6469 20.1705 26.6579 20.1451 26.6688 20.1196C26.7133 20.0155 26.7362 19.9034 26.7362 19.7902V16.0061L28.039 15.3786V20.5718C27.7571 20.7597 27.5398 21.0413 27.4345 21.3841L26.6933 23.7993C26.602 24.0972 26.6045 24.4114 26.7006 24.7078L27.388 26.8262C27.584 27.4305 28.1423 27.8495 28.7772 27.8691C28.7815 27.8692 28.7856 27.8693 28.7898 27.8693L28.8108 27.8697C28.8151 27.8697 28.8195 27.8697 28.8239 27.8697C29.4481 27.8697 29.9993 27.4944 30.2281 26.9136L31.0228 24.8962C31.1455 24.5851 31.161 24.2371 31.0664 23.9164L30.3254 21.4005C30.2222 21.0497 30.003 20.7617 29.7161 20.5708V14.5708L31.5254 13.6992C31.8155 13.5594 32 13.2659 32 12.9437V12.2759C32 11.9538 31.8155 11.6602 31.5254 11.5204L16.3572 4.21393C16.1272 4.10317 15.8593 4.10317 15.6293 4.21393L0.474628 11.514C0.184484 11.6537 0 11.9474 0 12.2695V12.9502C0 13.2722 0.184484 13.5658 0.474628 13.7056ZM28.839 25.8643L28.3122 24.2407L28.8741 22.4096L29.4414 24.3352L28.839 25.8643ZM25.059 19.309L16.5695 23.3985H15.4171L6.92763 19.309V16.8141L15.6294 21.0058C15.7444 21.0612 15.8688 21.0889 15.9933 21.0889C16.1178 21.0889 16.2422 21.0612 16.3573 21.0058L25.0591 16.8142L25.059 19.309ZM15.9933 5.90018L29.9223 12.6098L25.6447 14.6704C25.607 14.6823 25.5699 14.6963 25.5337 14.7137L15.9933 19.3094L6.45293 14.7137C6.41677 14.6963 6.37961 14.6823 6.34197 14.6704L2.06435 12.6098L15.9933 5.90018Z" fill="#0094FF"/>
</svg>
