<svg width="32" height="32" viewBox="0 0 32 32" fill="none" xmlns="http://www.w3.org/2000/svg">
<g clip-path="url(#clip0)">
<path d="M31.9003 13.8264L31.901 13.8261L28.6623 7.34877C28.9467 7.20552 29.1629 7.03121 29.3202 6.87052C30.0875 6.08714 30.1182 5.02533 30.1172 4.83177C30.1172 4.83158 30.1172 4.83145 30.1172 4.83127C30.1172 4.83108 30.1172 4.83089 30.1172 4.8307C30.1171 4.8232 30.1171 4.81652 30.117 4.81177H30.1162C30.1058 4.30308 29.6909 3.89371 29.1798 3.89371C28.662 3.89371 28.2423 4.31346 28.2423 4.83121C28.2423 4.83777 28.2431 4.84414 28.2432 4.85064H28.2424L28.2423 4.83908C28.2418 4.92114 28.2151 5.18114 28.0991 5.39508C27.9989 5.57958 27.829 5.76821 27.3302 5.77627C27.1158 5.68408 26.6319 5.12196 26.3089 4.74677C25.2872 3.55983 23.8879 1.93421 21.6281 1.76933C20.4559 1.68377 19.2217 2.00539 17.897 2.74608C17.3957 2.28958 16.7297 2.01089 15.9999 2.01089C15.27 2.01089 14.604 2.28964 14.1027 2.74627C12.7778 2.00583 11.5434 1.68446 10.3719 1.76939C8.11206 1.93427 6.71275 3.55983 5.691 4.74683C5.368 5.12202 4.88413 5.68414 4.66975 5.77633C4.17106 5.76827 4.001 5.5797 3.90088 5.39514C3.78481 5.1812 3.75819 4.92127 3.75769 4.83914L3.75756 4.8507H3.75681C3.75694 4.8442 3.75781 4.83783 3.75781 4.83127C3.75781 4.31352 3.33806 3.89377 2.82031 3.89377C2.30912 3.89377 1.89425 4.30314 1.88381 4.81183H1.88306C1.88044 4.93664 1.88081 6.05483 2.67981 6.87052C2.83719 7.03121 3.05325 7.20546 3.33769 7.34877L0.0989375 13.8261L0.099625 13.8265C0.0364375 13.9526 0 14.0946 0 14.2453C0 16.6921 1.99069 18.6828 4.4375 18.6828H4.96875C7.41556 18.6828 9.40625 16.6921 9.40625 14.2453C9.40625 14.0946 9.36981 13.9526 9.30656 13.8265L9.30725 13.8261L5.97106 7.15371C6.35819 6.84571 6.72175 6.42346 7.11206 5.97008C8.00881 4.92839 9.02512 3.74771 10.5083 3.63952C11.3065 3.58096 12.2111 3.83583 13.2129 4.39877C13.1911 4.53983 13.1797 4.68421 13.1797 4.83127C13.1797 6.05777 13.9669 7.10339 15.0625 7.49077V24.6047H14.6283C12.7913 24.6047 11.2969 26.0991 11.2969 27.9361V28.3703H10.3516C9.83381 28.3703 9.41406 28.7901 9.41406 29.3078C9.41406 29.8256 9.83381 30.2453 10.3516 30.2453H21.6484C22.1662 30.2453 22.5859 29.8256 22.5859 29.3078C22.5859 28.7901 22.1662 28.3703 21.6484 28.3703H20.7031V27.9361C20.7031 26.0991 19.2087 24.6047 17.3717 24.6047H16.9375V7.49077C18.0331 7.10339 18.8203 6.05783 18.8203 4.83127C18.8203 4.68427 18.8089 4.53996 18.7871 4.39896C19.7891 3.83602 20.6938 3.58127 21.4917 3.63946C22.9748 3.74764 23.9912 4.92833 24.8879 5.97002C25.2782 6.42346 25.6418 6.84564 26.0289 7.15364L22.6928 13.826L22.6934 13.8263C22.6302 13.9525 22.5938 14.0945 22.5938 14.2453C22.5938 16.6921 24.5844 18.6828 27.0312 18.6828H27.5625C30.0093 18.6828 32 16.6921 32 14.2453C32 14.0946 31.9636 13.9526 31.9003 13.8264ZM4.70312 8.81039L6.95181 13.3078H2.45444L4.70312 8.81039ZM4.96875 16.8078H4.4375C3.35525 16.8078 2.42756 16.1335 2.05256 15.1828H7.35362C6.97869 16.1335 6.051 16.8078 4.96875 16.8078ZM16 3.88596C16.5212 3.88596 16.9453 4.31002 16.9453 4.83127C16.9453 5.35252 16.5212 5.77658 16 5.77658C15.4788 5.77658 15.0547 5.35252 15.0547 4.83127C15.0547 4.31002 15.4788 3.88596 16 3.88596ZM18.8281 27.9361V28.3703H13.1719V27.9361C13.1719 27.133 13.8252 26.4797 14.6283 26.4797H17.3717C18.1748 26.4797 18.8281 27.133 18.8281 27.9361ZM29.5456 13.3078H25.0481L27.2969 8.81039L29.5456 13.3078ZM27.5625 16.8078H27.0312C25.9491 16.8078 25.0213 16.1335 24.6463 15.1828H29.9474C29.5724 16.1335 28.6447 16.8078 27.5625 16.8078Z" fill="#0094FF"/>
</g>
<defs>
<clipPath id="clip0">
<rect width="32" height="32" fill="white"/>
</clipPath>
</defs>
</svg>
