<svg width="100" height="100" viewBox="0 0 100 100" fill="none" xmlns="http://www.w3.org/2000/svg">
<path d="M50 88C70.9868 88 88 70.9868 88 50C88 29.0132 70.9868 12 50 12C29.0132 12 12 29.0132 12 50C12 70.9868 29.0132 88 50 88Z" fill="#FFEECE"/>
<path d="M87 50C87 29.5939 70.4061 13 50 13C29.5939 13 13 29.5939 13 50C13 70.4061 29.5939 87 50 87C70.4061 87 87 70.4061 87 50ZM11 50C11 28.4561 28.4561 11 50 11C71.5439 11 89 28.4561 89 50C89 71.5439 71.5439 89 50 89C28.4561 89 11 71.5439 11 50Z" fill="#E9A625" stroke="#E9A625"/>
<path d="M50 56.5C53.5899 56.5 56.5 53.5899 56.5 50C56.5 46.4101 53.5899 43.5 50 43.5C46.4101 43.5 43.5 46.4101 43.5 50C43.5 53.5899 46.4101 56.5 50 56.5Z" fill="#FFEECE"/>
<path d="M55.5 50C55.5 46.9639 53.0361 44.5 50 44.5C46.9639 44.5 44.5 46.9639 44.5 50C44.5 53.0361 46.9639 55.5 50 55.5C53.0361 55.5 55.5 53.0361 55.5 50ZM42.5 50C42.5 45.8561 45.8561 42.5 50 42.5C54.1439 42.5 57.5 45.8561 57.5 50C57.5 54.1439 54.1439 57.5 50 57.5C45.8561 57.5 42.5 54.1439 42.5 50Z" fill="#FFB629" stroke="#FFB629"/>
<path d="M72 56.5C75.5899 56.5 78.5 53.5899 78.5 50C78.5 46.4101 75.5899 43.5 72 43.5C68.4101 43.5 65.5 46.4101 65.5 50C65.5 53.5899 68.4101 56.5 72 56.5Z" fill="#FFEECE"/>
<path d="M77.5 50C77.5 46.9639 75.0361 44.5 72 44.5C68.9639 44.5 66.5 46.9639 66.5 50C66.5 53.0361 68.9639 55.5 72 55.5C75.0361 55.5 77.5 53.0361 77.5 50ZM64.5 50C64.5 45.8561 67.8561 42.5 72 42.5C76.1439 42.5 79.5 45.8561 79.5 50C79.5 54.1439 76.1439 57.5 72 57.5C67.8561 57.5 64.5 54.1439 64.5 50Z" fill="#FFB629" stroke="#FFB629"/>
<path d="M29 56.5C32.5899 56.5 35.5 53.5899 35.5 50C35.5 46.4101 32.5899 43.5 29 43.5C25.4101 43.5 22.5 46.4101 22.5 50C22.5 53.5899 25.4101 56.5 29 56.5Z" fill="#FFEECE"/>
<path d="M34.5 50C34.5 46.9639 32.0361 44.5 29 44.5C25.9639 44.5 23.5 46.9639 23.5 50C23.5 53.0361 25.9639 55.5 29 55.5C32.0361 55.5 34.5 53.0361 34.5 50ZM21.5 50C21.5 45.8561 24.8561 42.5 29 42.5C33.1439 42.5 36.5 45.8561 36.5 50C36.5 54.1439 33.1439 57.5 29 57.5C24.8561 57.5 21.5 54.1439 21.5 50Z" fill="#FFB629" stroke="#FFB629"/>
</svg>
