<svg width="32" height="32" viewBox="0 0 32 32" fill="none" xmlns="http://www.w3.org/2000/svg">
<g clip-path="url(#clip0)">
<path d="M31.9999 5.2959H3.75019V9.04615H0V26.7038H28.2496V22.9536H31.9999V5.2959ZM26.3746 13.4211C25.1621 13.0901 24.2057 12.1336 23.8746 10.9211H26.3746V13.4211ZM21.9547 10.9211C22.3471 13.1701 24.1256 14.9486 26.3746 15.341V20.409C24.1257 20.8013 22.3471 22.5799 21.9547 24.8288H6.29488C5.90244 22.58 4.12394 20.8014 1.875 20.409V15.341C4.12394 14.9486 5.90244 13.1701 6.29488 10.9211H21.9547ZM4.37494 10.9211C4.04388 12.1336 3.0875 13.09 1.875 13.4211V10.9211H4.37494ZM1.875 22.3289C3.0875 22.66 4.04388 23.6164 4.37494 24.8289H1.875V22.3289ZM23.8746 24.8289C24.2057 23.6164 25.1621 22.66 26.3746 22.3289V24.8289H23.8746ZM30.1249 21.0786H28.2496V9.04615H5.62519V7.1709H30.1249V21.0786Z" fill="#FFB629"/>
<path d="M14.1247 21.8969C16.3425 21.8969 18.1469 20.0925 18.1469 17.8747C18.1469 15.6569 16.3425 13.8525 14.1247 13.8525C11.9069 13.8525 10.1025 15.6569 10.1025 17.8747C10.1025 20.0925 11.9069 21.8969 14.1247 21.8969ZM14.1247 15.7275C15.3087 15.7275 16.2719 16.6908 16.2719 17.8747C16.2719 19.0587 15.3087 20.0219 14.1247 20.0219C12.9408 20.0219 11.9775 19.0587 11.9775 17.8747C11.9775 16.6908 12.9408 15.7275 14.1247 15.7275Z" fill="#FFB629"/>
<path d="M20.4111 16.9375H23.4791V18.8125H20.4111V16.9375Z" fill="#FFB629"/>
<path d="M4.77026 16.9375H7.83833V18.8125H4.77026V16.9375Z" fill="#FFB629"/>
</g>
<defs>
<clipPath id="clip0">
<rect width="32" height="32" fill="white"/>
</clipPath>
</defs>
</svg>
