<svg width="32" height="32" viewBox="0 0 32 32" fill="none" xmlns="http://www.w3.org/2000/svg">
<path d="M30.6678 14.6678C29.9298 14.6678 29.3355 15.262 29.3355 16C29.3355 23.3535 23.3535 29.3355 16 29.3355C8.64653 29.3355 2.66449 23.3535 2.66449 16C2.66449 8.64653 8.64653 2.66449 16 2.66449C20.0163 2.66449 23.7388 4.43429 26.2596 7.47755H21.6555C20.9176 7.47755 20.3233 8.07184 20.3233 8.8098C20.3233 9.54775 20.9176 10.142 21.6555 10.142H29.1396C29.8776 10.142 30.4718 9.54775 30.4718 8.8098V1.33224C30.4718 0.594286 29.8776 0 29.1396 0C28.4016 0 27.8073 0.594286 27.8073 1.33224V5.18531C24.7967 1.90041 20.5584 0 16 0C7.17714 0 0 7.17714 0 16C0 24.8229 7.17714 32 16 32C24.8229 32 32 24.8229 32 16C32 15.262 31.4057 14.6678 30.6678 14.6678Z" fill="#FFB629"/>
</svg>
