<svg width="32" height="32" viewBox="0 0 32 32" fill="none" xmlns="http://www.w3.org/2000/svg">
<path d="M30.9057 26.0658C30.2714 25.4789 29.4379 25.1549 28.5739 25.1591C28.4176 25.1643 28.2618 25.1798 28.1077 25.2059L25.2694 20.4746C27.7219 18.5569 28.1557 15.0138 26.2383 12.5609C25.7546 11.9421 25.1471 11.4313 24.4545 11.0611L26.9679 6.87131C27.122 6.8973 27.2778 6.91293 27.434 6.91807C29.3365 6.93203 30.8899 5.40089 30.9039 3.49813C30.9178 1.59537 29.3869 0.041584 27.4845 0.0276226C25.5821 0.0136612 24.0286 1.54481 24.0147 3.44756C24.0082 4.3278 24.3389 5.17717 24.9388 5.82127L22.2031 10.3816C22.0447 10.3724 21.8943 10.3383 21.7347 10.3383C20.573 10.339 19.4396 10.6972 18.4884 11.3643L9.14148 5.13382C9.16899 4.96969 9.18729 4.80409 9.19618 4.63789C9.21768 2.09798 7.17642 0.0216105 4.63704 0.000167381C2.0976 -0.0212757 0.0216065 2.02029 0.000167351 4.5602C-0.0212718 7.1001 2.01993 9.17648 4.55937 9.19792C6.039 9.21041 7.43422 8.51 8.30829 7.31594L16.9051 13.0482C16.5451 13.6151 16.2891 14.2417 16.1494 14.8985H8.98646C8.35691 13.1176 6.40314 12.1843 4.62255 12.814C2.84196 13.4437 1.90886 15.3978 2.53841 17.1786C3.16796 18.9595 5.12173 19.8928 6.90232 19.2632C7.87616 18.9188 8.64216 18.1527 8.98646 17.1786H16.1494C16.2887 17.8354 16.5443 18.462 16.9039 19.0289L8.30822 24.7612C6.81863 22.7439 3.97597 22.3162 1.95901 23.8061C-0.0579387 25.2959 -0.48552 28.1391 1.00407 30.1564C2.49366 32.1738 5.33632 32.6014 7.35327 31.1116C8.51787 30.2514 9.20239 28.8872 9.19618 27.4392C9.18876 27.273 9.17207 27.1075 9.14602 26.9433L18.4929 20.7128C19.8665 21.6976 21.6181 21.9921 23.2382 21.5109L26.0878 26.2535C24.8093 27.636 24.8934 29.7935 26.2757 31.0723C27.6579 32.3511 29.815 32.267 31.0935 30.8844C32.3721 29.5019 32.2879 27.3445 30.9057 26.0658ZM27.434 2.35777C28.0635 2.35777 28.5739 2.8682 28.5739 3.49786C28.5739 4.12753 28.0635 4.63796 27.434 4.63796C26.8044 4.63796 26.2941 4.12753 26.2941 3.49786C26.2941 2.8682 26.8044 2.35777 27.434 2.35777ZM4.63678 6.918C3.37774 6.918 2.35707 5.89715 2.35707 4.63789C2.35707 3.37862 3.37774 2.35777 4.63678 2.35777C5.89581 2.35777 6.91648 3.37862 6.91648 4.63789C6.91648 5.89715 5.89581 6.918 4.63678 6.918ZM5.77659 17.1786C5.14704 17.1786 4.63671 16.6682 4.63671 16.0385C4.63671 15.4089 5.14704 14.8984 5.77659 14.8984C6.40614 14.8984 6.91648 15.4089 6.91648 16.0385C6.91648 16.6682 6.40614 17.1786 5.77659 17.1786ZM4.63678 29.7194C3.37774 29.7194 2.35707 28.6986 2.35707 27.4393C2.35707 26.1801 3.37774 25.1592 4.63678 25.1592C5.89581 25.1592 6.91648 26.1801 6.91648 27.4393C6.91648 28.6986 5.89581 29.7194 4.63678 29.7194ZM21.7347 19.4588C19.8461 19.4588 18.3151 17.9275 18.3151 16.0386C18.3151 14.1497 19.8461 12.6184 21.7347 12.6184C23.6233 12.6184 25.1543 14.1497 25.1543 16.0386C25.1543 17.9275 23.6233 19.4588 21.7347 19.4588ZM28.5739 29.7194C27.9443 29.7194 27.434 29.209 27.434 28.5793C27.434 27.9497 27.9443 27.4393 28.5739 27.4393C29.2034 27.4393 29.7137 27.9497 29.7137 28.5793C29.7137 29.209 29.2033 29.7194 28.5739 29.7194Z" fill="#FFB629"/>
</svg>
