<svg width="32" height="32" viewBox="0 0 32 32" fill="none" xmlns="http://www.w3.org/2000/svg">
<path opacity="0.3" d="M6.66675 25.333H25.3334V26.6663H6.66675V25.333Z" fill="#0094FF"/>
<path d="M24 17.333H23.0933L20.4267 19.9997H22.9733L25.3333 22.6663H6.66667L9.04 19.9997H11.7733L9.10667 17.333H8L4 21.333V26.6663C4 28.133 5.18667 29.333 6.65333 29.333H25.3333C26.8 29.333 28 28.1463 28 26.6663V21.333L24 17.333ZM25.3333 26.6663H6.66667V25.333H25.3333V26.6663Z" fill="#0094FF"/>
<path opacity="0.3" d="M16.0638 17.2068L11.3398 12.4828L17.9398 5.88281L22.6638 10.6068L16.0638 17.2068Z" fill="#0094FF"/>
<path d="M25.4799 9.66672L18.8799 3.06672C18.3732 2.53339 17.5332 2.53339 17.0132 3.05339L8.51988 11.5467C7.99988 12.0667 7.99988 12.9067 8.51988 13.4267L15.1199 20.0267C15.6399 20.5467 16.4799 20.5467 16.9999 20.0267L25.4799 11.5467C25.9999 11.0267 25.9999 10.1867 25.4799 9.66672ZM16.0665 17.2001L11.3465 12.4801L17.9465 5.88005L22.6665 10.6001L16.0665 17.2001Z" fill="#0094FF"/>
</svg>
