<svg width="32" height="32" viewBox="0 0 32 32" fill="none" xmlns="http://www.w3.org/2000/svg">
<g clip-path="url(#clip0)">
<path d="M15.999 3.74902C15.4813 3.74902 15.0615 4.16879 15.0615 4.68656C15.0615 5.20434 15.4813 5.62411 15.999 5.62411C19.1011 5.62411 21.625 8.14759 21.625 11.2494C21.625 11.7671 22.0447 12.1869 22.5625 12.1869C23.0802 12.1869 23.5 11.7671 23.5 11.2494C23.5 7.11367 20.1351 3.74902 15.999 3.74902Z" fill="#0094FF"/>
<path d="M13.5833 0.251147C9.3477 1.13625 5.91332 4.5379 5.00964 8.80003C4.24657 12.3991 5.18689 16.0124 7.58945 18.7134C8.76389 20.0337 9.43739 21.7764 9.43739 23.4997V25.3748C9.43739 26.6223 10.2541 27.6822 11.3807 28.0493C11.7512 30.2384 13.6512 32 15.9999 32C18.3479 32 20.2485 30.239 20.6191 28.0493C21.7457 27.6822 22.5624 26.6223 22.5624 25.3747V23.4996C22.5624 21.773 23.2381 20.0512 24.465 18.6513C26.2609 16.6025 27.2499 13.9736 27.2499 11.2491C27.2499 4.15101 20.7531 -1.24679 13.5833 0.251147ZM15.9999 30.125C14.7948 30.125 13.7381 29.2957 13.3479 28.1811H18.6518C18.2616 29.2957 17.205 30.125 15.9999 30.125ZM20.6874 25.3748C20.6874 25.8917 20.2668 26.3123 19.7499 26.3123H12.2499C11.7329 26.3123 11.3124 25.8917 11.3124 25.3748V24.4372H20.6874V25.3748ZM23.055 17.4155C21.7475 18.9072 20.9431 20.7061 20.7389 22.5621H11.261C11.0571 20.7051 10.2548 18.8885 8.99051 17.4672C6.98814 15.2161 6.2057 12.1987 6.84389 9.18898C7.58882 5.67545 10.4513 2.82126 13.9669 2.08667C19.9684 0.832423 25.3749 5.33962 25.3749 11.2491C25.3749 13.5187 24.551 15.7086 23.055 17.4155Z" fill="#0094FF"/>
<path d="M2.8125 11.249H0.9375C0.41975 11.249 0 11.6688 0 12.1866C0 12.7043 0.41975 13.1241 0.9375 13.1241H2.8125C3.33025 13.1241 3.75 12.7043 3.75 12.1866C3.75 11.6688 3.33025 11.249 2.8125 11.249Z" fill="#0094FF"/>
<path d="M3.20063 6.56141L1.87482 5.23554C1.50876 4.8694 0.915133 4.8694 0.549008 5.23554C0.182883 5.60168 0.182883 6.19527 0.549008 6.56141L1.87482 7.88729C2.24088 8.25343 2.83451 8.25349 3.20063 7.88729C3.56676 7.52115 3.56676 6.92756 3.20063 6.56141Z" fill="#0094FF"/>
<path d="M3.20063 16.4865C2.83451 16.1204 2.24088 16.1204 1.87482 16.4865L0.549008 17.8124C0.182883 18.1785 0.182883 18.7721 0.549008 19.1383C0.91507 19.5044 1.5087 19.5045 1.87482 19.1383L3.20063 17.8124C3.56676 17.4462 3.56676 16.8527 3.20063 16.4865Z" fill="#0094FF"/>
<path d="M31.0625 11.249H29.1875C28.6697 11.249 28.25 11.6688 28.25 12.1866C28.25 12.7043 28.6697 13.1241 29.1875 13.1241H31.0625C31.5803 13.1241 32 12.7043 32 12.1866C32 11.6688 31.5803 11.249 31.0625 11.249Z" fill="#0094FF"/>
<path d="M31.4506 5.23554C31.0846 4.8694 30.4909 4.8694 30.1248 5.23554L28.799 6.56141C28.4329 6.92756 28.4329 7.52115 28.799 7.88729C29.1651 8.25337 29.7587 8.25343 30.1248 7.88729L31.4506 6.56141C31.8168 6.19527 31.8168 5.60168 31.4506 5.23554Z" fill="#0094FF"/>
<path d="M31.4506 17.8124L30.1248 16.4865C29.7588 16.1204 29.1651 16.1204 28.799 16.4865C28.4329 16.8527 28.4329 17.4462 28.799 17.8124L30.1248 19.1383C30.4909 19.5043 31.0845 19.5044 31.4506 19.1383C31.8168 18.7721 31.8168 18.1785 31.4506 17.8124Z" fill="#0094FF"/>
</g>
<defs>
<clipPath id="clip0">
<rect width="32" height="32" fill="white"/>
</clipPath>
</defs>
</svg>
