<svg width="32" height="32" viewBox="0 0 32 32" fill="none" xmlns="http://www.w3.org/2000/svg">
<path d="M20.5 9C18.9051 9 17.3852 9.32663 16.0032 9.916C14.9839 9.48138 13.9191 9.20037 12.8226 9.0755L15.9349 5.56556C16.1219 5.35475 16.1446 5.045 15.9906 4.80912L14.6676 2.78325C14.5521 2.6065 14.3553 2.5 14.1442 2.5C14.1442 2.5 14.1442 2.5 14.1441 2.5L8.86006 2.50131C8.64944 2.50137 8.45306 2.60744 8.33756 2.78362L7.01006 4.80819C6.85531 5.04413 6.87787 5.35444 7.06506 5.56556L10.1783 9.07644C4.45744 9.73413 0 14.6059 0 20.5C0 26.8411 5.15887 32 11.5 32C13.0948 32 14.6146 31.6734 15.9966 31.0841C17.4213 31.6916 18.9349 32 20.5 32C26.8411 32 32 26.8411 32 20.5C32 14.1589 26.8411 9 20.5 9ZM14.5927 5.19519L11.5 8.683L8.40725 5.19519L9.47006 3.644H13.5951L14.5927 5.19519ZM1.25 20.5C1.25 14.8481 5.84812 10.25 11.5 10.25C12.5287 10.25 13.5321 10.3997 14.4972 10.6949C13.8438 11.0964 13.2337 11.5614 12.6749 12.0812C12.2871 12.0276 11.8931 12 11.5 12C6.81306 12 3 15.8131 3 20.5C3 25.1869 6.81306 29 11.5 29C16.1869 29 20 25.1869 20 20.5C20 18.0371 18.9277 15.707 17.094 14.1015C17.6608 13.7986 18.2723 13.5688 18.9158 13.4248C20.7458 15.3396 21.75 17.8389 21.75 20.5C21.75 26.1519 17.1519 30.75 11.5 30.75C5.84812 30.75 1.25 26.1519 1.25 20.5ZM11.5789 13.2516C9.96756 15.2311 9 17.7546 9 20.5C9 23.1753 9.90556 25.7059 11.5716 27.7491C11.5477 27.7493 11.5239 27.75 11.5 27.75C7.50237 27.75 4.25 24.4977 4.25 20.5C4.25 16.5023 7.50237 13.25 11.5 13.25C11.5263 13.25 11.5526 13.2514 11.5789 13.2516ZM13.25 20.5C13.25 18.1998 14.3269 16.1466 16.0028 14.8175C17.7307 16.189 18.75 18.2817 18.75 20.5C18.75 22.8001 17.6731 24.8533 15.9973 26.1824C14.2697 24.8109 13.25 22.7174 13.25 20.5ZM20.4285 13.2509C20.4524 13.2507 20.4761 13.25 20.5 13.25C24.4976 13.25 27.75 16.5023 27.75 20.5C27.75 24.4977 24.4976 27.75 20.5 27.75C20.4737 27.75 20.4474 27.7486 20.4211 27.7483C22.0324 25.7688 23 23.2454 23 20.5C23 17.824 22.0945 15.2939 20.4285 13.2509ZM20.5 30.75C19.4712 30.75 18.4677 30.6004 17.5027 30.3053C18.1561 29.9037 18.7663 29.4386 19.325 28.9189C19.713 28.9725 20.1069 29 20.5 29C25.1869 29 29 25.1869 29 20.5C29 15.8131 25.1869 12 20.5 12C15.8131 12 12 15.8131 12 20.5C12 22.962 13.0724 25.2929 14.906 26.8984C14.3392 27.2014 13.7277 27.4312 13.0841 27.5752C11.2543 25.6604 10.25 23.1603 10.25 20.5C10.25 14.8481 14.8481 10.25 20.5 10.25C26.1519 10.25 30.75 14.8481 30.75 20.5C30.75 26.1519 26.1519 30.75 20.5 30.75Z" fill="#0094FF"/>
<path d="M19.0312 2.71875C19.4965 2.71875 19.875 3.09725 19.875 3.5625C19.875 3.90762 20.1548 4.1875 20.5 4.1875C20.8452 4.1875 21.125 3.90762 21.125 3.5625C21.125 3.09725 21.5035 2.71875 21.9688 2.71875C22.3139 2.71875 22.5938 2.43887 22.5938 2.09375C22.5938 1.74863 22.3139 1.46875 21.9688 1.46875C21.5035 1.46875 21.125 1.09025 21.125 0.625C21.125 0.279875 20.8452 0 20.5 0C20.1548 0 19.875 0.279875 19.875 0.625C19.875 1.09025 19.4965 1.46875 19.0312 1.46875C18.6861 1.46875 18.4062 1.74863 18.4062 2.09375C18.4062 2.43887 18.6861 2.71875 19.0312 2.71875Z" fill="#0094FF"/>
<path d="M0.625 7.6748C1.09025 7.6748 1.46875 8.0533 1.46875 8.51855C1.46875 8.86367 1.74856 9.14355 2.09375 9.14355C2.43894 9.14355 2.71875 8.86367 2.71875 8.51855C2.71875 8.0533 3.09725 7.6748 3.5625 7.6748C3.90769 7.6748 4.1875 7.39493 4.1875 7.0498C4.1875 6.70468 3.90769 6.4248 3.5625 6.4248C3.09725 6.4248 2.71875 6.0463 2.71875 5.58105C2.71875 5.23593 2.43894 4.95605 2.09375 4.95605C1.74856 4.95605 1.46875 5.23593 1.46875 5.58105C1.46875 6.0463 1.09025 6.4248 0.625 6.4248C0.279813 6.4248 0 6.70468 0 7.0498C0 7.39493 0.279813 7.6748 0.625 7.6748Z" fill="#0094FF"/>
</svg>
