<svg width="32" height="24" viewBox="0 0 32 24" fill="none" xmlns="http://www.w3.org/2000/svg">
<path d="M28.3333 24H3.66675C1.64404 24 0 22.356 0 20.3333V3.66675C0 1.64404 1.64404 0 3.66675 0H28.3333C30.356 0 32 1.64404 32 3.66675V20.3333C32 22.356 30.356 24 28.3333 24ZM3.66675 2C2.74805 2 2 2.74805 2 3.66675V20.3333C2 21.252 2.74805 22 3.66675 22H28.3333C29.252 22 30 21.252 30 20.3333V3.66675C30 2.74805 29.252 2 28.3333 2H3.66675Z" fill="#0094FF"/>
<path d="M10.0002 11.9998C8.16284 11.9998 6.66699 10.5037 6.66699 8.6665C6.66699 6.8291 8.16284 5.33301 10.0002 5.33301C11.8376 5.33301 13.3335 6.8291 13.3335 8.6665C13.3335 10.5037 11.8376 11.9998 10.0002 11.9998ZM10.0002 7.33301C9.26562 7.33301 8.66699 7.93164 8.66699 8.6665C8.66699 9.40112 9.26562 9.99976 10.0002 9.99976C10.7349 9.99976 11.3335 9.40112 11.3335 8.6665C11.3335 7.93164 10.7349 7.33301 10.0002 7.33301Z" fill="#0094FF"/>
<path d="M15 18.6665C14.448 18.6665 14 18.2185 14 17.6665V16.9998C14 16.0811 13.252 15.333 12.3333 15.333H7.66675C6.74805 15.333 6 16.0811 6 16.9998V17.6665C6 18.2185 5.552 18.6665 5 18.6665C4.448 18.6665 4 18.2185 4 17.6665V16.9998C4 14.9771 5.64404 13.333 7.66675 13.333H12.3333C14.356 13.333 16 14.9771 16 16.9998V17.6665C16 18.2185 15.552 18.6665 15 18.6665Z" fill="#0094FF"/>
<path d="M27.0002 8H19.667C19.115 8 18.667 7.552 18.667 7C18.667 6.448 19.115 6 19.667 6H27.0002C27.5522 6 28.0002 6.448 28.0002 7C28.0002 7.552 27.5522 8 27.0002 8Z" fill="#0094FF"/>
<path d="M27.0002 13.333H19.667C19.115 13.333 18.667 12.885 18.667 12.333C18.667 11.781 19.115 11.333 19.667 11.333H27.0002C27.5522 11.333 28.0002 11.781 28.0002 12.333C28.0002 12.885 27.5522 13.333 27.0002 13.333Z" fill="#0094FF"/>
<path d="M27.0002 18.667H19.667C19.115 18.667 18.667 18.219 18.667 17.667C18.667 17.115 19.115 16.667 19.667 16.667H27.0002C27.5522 16.667 28.0002 17.115 28.0002 17.667C28.0002 18.219 27.5522 18.667 27.0002 18.667Z" fill="#0094FF"/>
</svg>
