<svg width="32" height="32" viewBox="0 0 32 32" fill="none" xmlns="http://www.w3.org/2000/svg">
<g clip-path="url(#clip0)">
<path d="M31.0625 7.64844H22.5859V5.78544C22.5859 3.69813 20.8878 2 18.8005 2H13.1996C11.1123 2 9.41413 3.69813 9.41413 5.78544V7.64844H0.9375C0.41975 7.64844 0 8.06819 0 8.58594V25.6172C0 28.1631 2.07131 30.2344 4.61719 30.2344H27.3828C29.9287 30.2344 32 28.1631 32 25.6172V8.58594C32 8.06819 31.5802 7.64844 31.0625 7.64844ZM18.1272 19.8828C18.1272 21.0557 17.1729 22.01 16 22.01C14.8271 22.01 13.8728 21.0557 13.8728 19.8828V17.7556H18.1272V19.8828ZM19.0647 15.8806H12.9353C12.4176 15.8806 11.9978 16.3004 11.9978 16.8181V18.5211C6.54606 17.3378 2.45925 13.8017 1.93344 9.52344H30.0665C29.5407 13.8017 25.4539 17.3378 20.0022 18.5211V16.8182C20.0022 16.3004 19.5824 15.8806 19.0647 15.8806ZM11.2891 5.78544C11.2891 4.732 12.1461 3.875 13.1995 3.875H18.8004C19.8538 3.875 20.7109 4.732 20.7109 5.78544V7.64844H11.289V5.78544H11.2891ZM30.125 25.6172C30.125 27.1292 28.8948 28.3594 27.3828 28.3594H4.61719C3.10519 28.3594 1.875 27.1292 1.875 25.6172V14.3581C2.63188 15.4404 3.60775 16.4398 4.78669 17.324C6.82963 18.8562 9.32369 19.9199 12.0381 20.4447C12.3122 22.3863 13.9839 23.8849 16 23.8849C18.0161 23.8849 19.6878 22.3863 19.9619 20.4447C22.6763 19.9199 25.1703 18.8562 27.2133 17.324C28.3923 16.4398 29.3681 15.4403 30.125 14.3581V25.6172Z" fill="#0094FF"/>
</g>
<defs>
<clipPath id="clip0">
<rect width="32" height="32" fill="white"/>
</clipPath>
</defs>
</svg>
