<svg width="40" height="40" viewBox="0 0 40 40" fill="none" xmlns="http://www.w3.org/2000/svg">
<path d="M10.7005 25.1745C11.0741 24.9591 11.2019 24.4809 10.9865 24.1073C10.7707 23.7341 10.2928 23.6059 9.9193 23.8214C9.54576 24.0371 9.41759 24.5154 9.63335 24.8886C9.8488 25.2621 10.327 25.3903 10.7005 25.1745Z" fill="#0094FF"/>
<path d="M7.49892 30.5663L11.4332 37.3812C12.2822 38.8533 14.192 39.3984 15.7023 38.5253C17.1968 37.6616 17.7104 35.7521 16.8458 34.2565L14.5021 30.1964L16.5318 29.0245C16.9054 28.8085 17.0335 28.3309 16.8178 27.9573L15.8018 26.1977C15.923 26.1742 16.7195 26.0179 30.7658 23.2625C32.5023 23.1682 33.5426 21.2691 32.6655 19.7509L30.0691 15.2538L31.7283 12.7407C31.8913 12.4935 31.9011 12.1758 31.7531 11.9194L30.1906 9.21313C30.0426 8.95679 29.7615 8.80664 29.467 8.82404L26.4613 9.00439L23.5789 4.01172C23.1615 3.28845 22.4135 2.85052 21.5785 2.84015C21.5684 2.83984 21.5587 2.83984 21.5486 2.83984C20.7417 2.83984 20.0093 3.24146 19.5753 3.92047L9.36965 16.9216L2.73482 20.7521C0.125262 22.2582 -0.778668 25.606 0.733172 28.2225C2.1144 30.6151 5.02638 31.5563 7.49892 30.5663ZM15.493 35.038C15.9245 35.7845 15.6691 36.7397 14.9205 37.1721C14.1695 37.6064 13.213 37.3397 12.7864 36.6002L8.88014 29.8336L11.5864 28.2711C16.1073 36.1025 15.4204 34.9126 15.493 35.038ZM13.7208 28.843L12.9396 27.4898L14.2927 26.7086L15.074 28.0617L13.7208 28.843ZM29.0788 10.4125L30.1585 12.2826L29.1957 13.7407L27.3347 10.5172L29.0788 10.4125ZM20.8821 4.7771C21.0918 4.43408 21.4244 4.39868 21.5593 4.40234C21.6926 4.40387 22.025 4.44537 22.2255 4.79266L31.3124 20.5321C31.6084 21.0445 31.2486 21.6887 30.655 21.7034C30.5485 21.7058 30.4994 21.725 30.2266 21.776L20.6145 5.12714C20.8162 4.86774 20.8421 4.84271 20.8821 4.7771ZM19.5747 6.4516L28.6058 22.094L14.976 24.7673L10.8317 17.5893L19.5747 6.4516ZM2.08632 27.4413C1.7433 26.8477 1.56203 26.1739 1.56203 25.4921C1.56203 24.0987 2.31093 22.8011 3.51607 22.1053L9.60524 18.5897L13.5115 25.3554L7.42232 28.8713C5.55678 29.948 3.16329 29.3065 2.08632 27.4413Z" fill="#0094FF"/>
<path d="M8.28001 25.67C8.06426 25.2965 7.58635 25.1683 7.21281 25.3841L5.85966 26.1653C5.48674 26.3808 5.00792 26.2523 4.79247 25.8794C4.57671 25.5058 4.0988 25.3777 3.72527 25.5934C3.35173 25.8092 3.22356 26.2871 3.43932 26.6606C4.08232 27.7745 5.51665 28.1673 6.64092 27.5185L7.99406 26.7372C8.3676 26.5215 8.49577 26.0439 8.28001 25.67Z" fill="#0094FF"/>
<path d="M38.8387 4.51095L34.4854 6.93343C34.1085 7.14339 33.9727 7.61916 34.1826 7.99605C34.392 8.37264 34.8675 8.50906 35.2453 8.29879L39.5983 5.8763C39.9755 5.66634 40.111 5.19057 39.901 4.81368C39.6914 4.43648 39.2156 4.30099 38.8387 4.51095Z" fill="#0094FF"/>
<path d="M38.3824 12.6031L35.3638 11.7944C34.947 11.6827 34.5185 11.9299 34.4068 12.3468C34.2951 12.7636 34.5426 13.1918 34.9595 13.3035L37.9783 14.1122C38.3976 14.2248 38.8239 13.9737 38.935 13.5599C39.0467 13.143 38.7992 12.7145 38.3824 12.6031Z" fill="#0094FF"/>
<path d="M30.7965 1.67295L29.9869 4.69175C29.8752 5.10862 30.1224 5.53678 30.5393 5.64878C30.9558 5.76017 31.3843 5.51358 31.4963 5.09641L32.3056 2.07761C32.4173 1.66074 32.1701 1.23228 31.7532 1.12058C31.3367 1.00889 30.9082 1.25608 30.7965 1.67295Z" fill="#0094FF"/>
</svg>
