<svg width="32" height="32" viewBox="0 0 32 32" fill="none" xmlns="http://www.w3.org/2000/svg">
<path d="M32 0H0V23.875H19.8318V28.2583L23.4666 27.416L27.1011 28.2583V23.875H32V0ZM30.125 4.40039C28.8989 4.06812 27.9319 3.10107 27.5996 1.875H30.125V4.40039ZM23.4666 25.4915L21.7068 25.8992V23.2734C22.252 23.489 22.8455 23.6086 23.4666 23.6086C24.0874 23.6086 24.6809 23.489 25.2261 23.2734V25.8992L23.4666 25.4915ZM27.5996 22C27.9319 20.7739 28.8989 19.8069 30.125 19.4746V22H27.5996ZM28.2393 18.2622C27.969 15.8674 25.9321 14 23.4666 14C23.3765 14 15.5786 14.0078 15.5786 14.0078V15.8828H19.656C19.0334 16.6931 18.6621 17.7061 18.6621 18.8044C18.6621 20.0024 19.1038 21.0984 19.8318 21.9409V22H6.31958C5.92676 19.7375 4.13745 17.9482 1.875 17.5554V6.31958C4.13745 5.92676 5.92676 4.13745 6.31958 1.875H25.6804C26.0732 4.13745 27.8625 5.92676 30.125 6.31958V17.5554C29.4456 17.6733 28.8086 17.9172 28.2393 18.2622ZM1.875 19.4746C3.10107 19.8069 4.06812 20.7739 4.40039 22H1.875V19.4746ZM1.875 4.40039V1.875H4.40039C4.06812 3.10107 3.10107 4.06812 1.875 4.40039ZM26.4375 18.8044C26.4375 20.4268 25.1223 21.7419 23.5 21.7419C21.8777 21.7419 20.5625 20.4268 20.5625 18.8044C20.5625 17.1821 21.8777 15.8669 23.5 15.8669C25.1223 15.8669 26.4375 17.1821 26.4375 18.8044Z" fill="#FFB629"/>
<path d="M10.6667 4.80762H21.3333V6.68262H10.6667V4.80762Z" fill="#FFB629"/>
<path d="M15.5786 10.1416H25V12.0166H15.5786V10.1416Z" fill="#FFB629"/>
<path d="M6.0625 12.4661V17.1416H12.9492V12.4661L9.50586 9.10156L6.0625 12.4661ZM11.0742 15.2666H7.9375V13.2556L9.50586 11.7231L11.0742 13.2556V15.2666Z" fill="#FFB629"/>
</svg>
