<svg width="32" height="32" viewBox="0 0 32 32" fill="none" xmlns="http://www.w3.org/2000/svg">
<g clip-path="url(#clip0)">
<path d="M28.0404 13.4211C29.3171 12.1441 30.0133 10.4463 30.0008 8.64039C29.9882 6.83477 29.2679 5.14656 27.9726 3.88667C26.6896 2.63871 24.9906 1.96911 23.1872 2.00214C21.3824 2.03485 19.7062 2.76656 18.4673 4.06238C17.3921 5.18692 16.7396 6.66103 16.6302 8.21317C16.6164 8.40867 16.5952 8.60254 16.5677 8.79466C15.0878 7.7959 13.6005 7.051 12.2914 6.66223C9.88046 5.94621 8.61641 6.55389 7.98062 7.1898C6.90103 8.26955 6.854 10.1851 7.84253 12.5946C6.63246 13.0437 5.55227 13.7374 4.62811 14.6617C1.12527 18.1651 1.12527 23.8657 4.62811 27.3692C6.32506 29.0664 8.58125 30.001 10.9812 30.001C13.381 30.001 15.6372 29.0663 17.3341 27.3692C18.2452 26.458 18.953 25.3544 19.4007 24.1544C20.5509 24.6265 21.5887 24.8628 22.4765 24.8628C23.4482 24.8628 24.2406 24.5803 24.8048 24.0161C25.4418 23.3789 26.0498 22.1119 25.3289 19.694C24.9385 18.3846 24.1928 16.8985 23.1942 15.4197C23.3713 15.397 23.5498 15.3798 23.7296 15.3685C25.356 15.2663 26.887 14.5747 28.0404 13.4211ZM16.1736 26.2091C14.7866 27.5963 12.9426 28.3603 10.9811 28.3603C9.01957 28.3603 7.17551 27.5963 5.78852 26.2091C2.92509 23.3453 2.92509 18.6854 5.78852 15.8215C6.57925 15.0306 7.50888 14.4463 8.55303 14.082C8.84227 14.6159 9.16985 15.1565 9.5309 15.6956C8.60848 15.9445 7.77308 16.4268 7.08303 17.1169C4.93387 19.2665 4.93387 22.764 7.08303 24.9136C8.12423 25.9549 9.50853 26.5284 10.981 26.5284C12.4536 26.5284 13.8379 25.9549 14.8791 24.9136C15.56 24.2325 16.0481 23.3851 16.2994 22.4652C16.8385 22.8264 17.3791 23.1541 17.913 23.4435C17.5512 24.4772 16.9536 25.429 16.1736 26.2091ZM10.5945 17.1577C11.2058 17.9355 11.8768 18.6938 12.5893 19.4064C13.3006 20.1178 14.0573 20.7878 14.8335 21.3984C14.7458 22.2858 14.3506 23.1216 13.7186 23.7537C12.9874 24.4851 12.0152 24.8879 10.981 24.8879C9.94696 24.8879 8.97473 24.4851 8.2435 23.7537C6.7338 22.2437 6.7338 19.7868 8.2435 18.2769C8.86519 17.6551 9.65394 17.2722 10.5246 17.1695C10.5484 17.1668 10.5715 17.1624 10.5945 17.1577ZM23.7563 20.1626C24.1331 21.4263 24.0923 22.408 23.6443 22.8561C23.0636 23.4369 21.6587 23.3334 19.8859 22.5795C17.8916 21.7314 15.6551 20.1521 13.7498 18.2465C11.8446 16.341 10.2655 14.104 9.41748 12.1093C8.66361 10.3361 8.56025 8.93061 9.14109 8.34972C9.58772 7.90303 10.5657 7.8612 11.8242 8.23499C13.1169 8.61889 14.6296 9.4129 16.131 10.489C15.754 11.4798 15.1805 12.3782 14.4378 13.1211L14.2592 13.2997C13.9389 13.62 13.9389 14.1393 14.2591 14.4596L17.4569 17.6579C17.6108 17.8119 17.8196 17.8983 18.0373 17.8983C18.255 17.8982 18.4637 17.8117 18.6176 17.6577L18.6572 17.618C19.453 16.8221 20.4187 16.2165 21.4826 15.8324C22.5674 17.3408 23.3685 18.8621 23.7563 20.1626ZM18.0597 15.9403L15.9866 13.8668C17.3156 12.3559 18.1201 10.4107 18.267 8.32856C18.3496 7.15721 18.842 6.0447 19.6534 5.196C20.5876 4.2189 21.8532 3.66716 23.2171 3.64238C24.5809 3.61772 25.8616 4.12199 26.8285 5.06251C27.8066 6.01385 28.3505 7.28851 28.3599 8.65171C28.3694 10.0152 27.8438 11.297 26.88 12.2611C26.0093 13.1319 24.8539 13.6539 23.6266 13.731C21.5478 13.8616 19.5986 14.6397 18.0597 15.9403Z" fill="#0094FF"/>
</g>
<defs>
<clipPath id="clip0">
<rect width="28" height="28" fill="white" transform="translate(2 2)"/>
</clipPath>
</defs>
</svg>
