<svg width="32" height="32" viewBox="0 0 32 32" fill="none" xmlns="http://www.w3.org/2000/svg">
<g clip-path="url(#clip0)">
<path d="M29.4415 23.7071C28.4694 22.4986 26.6955 22.3061 25.4874 23.2779C25.104 23.5861 24.7026 23.8712 24.2865 24.1342L22.4404 19.9922C23.9027 19.8937 25.0623 18.6735 25.0623 17.1869C25.0623 15.636 23.8006 14.3744 22.2498 14.3744H21.3123V10.6244H22.2498C22.7668 10.6244 23.1873 11.0449 23.1873 11.5619C23.1873 12.0797 23.6071 12.4994 24.1248 12.4994C24.6426 12.4994 25.0623 12.0797 25.0623 11.5619C25.0623 10.0111 23.8006 8.74942 22.2498 8.74942H11.1529L10.0383 2.42835C9.76801 0.895854 8.39357 -0.162146 6.91014 0.0204787C6.13495 0.115604 5.45289 0.512854 4.98951 1.1391C4.53257 1.7566 4.34707 2.54442 4.48039 3.30067L6.74189 16.1259C7.03614 17.7947 8.1852 19.1226 9.69189 19.6944L7.71307 24.1342C7.29707 23.8712 6.8957 23.5862 6.51239 23.278C5.30432 22.3062 3.53051 22.4985 2.55801 23.7072C1.5862 24.9158 1.77882 26.6896 2.98739 27.6614C6.46689 30.4592 11.0881 32 15.9998 32C20.9118 32 25.5331 30.4592 29.0122 27.6614C30.2208 26.6896 30.4134 24.9157 29.4415 23.7071ZM19.4373 14.3744H16.3123V10.6245H19.4373V14.3744ZM14.4373 10.6244V14.3744H12.1448L11.4835 10.6244H14.4373ZM8.58839 15.8003L6.32689 2.9751C6.28176 2.71929 6.34207 2.46342 6.4967 2.25448C6.65114 2.04579 6.87907 1.91335 7.13864 1.88142C7.17139 1.87742 7.2042 1.87542 7.23676 1.87542C7.68607 1.87542 8.10282 2.24979 8.1917 2.75398L10.4348 15.4747C10.5138 15.9227 10.9031 16.2494 11.358 16.2494H22.2498C22.7668 16.2494 23.1873 16.6699 23.1873 17.1869C23.1873 17.7038 22.7668 18.1244 22.2498 18.1244H11.3581C9.99064 18.1244 8.82582 17.147 8.58839 15.8003ZM11.6088 19.9994H20.3909L22.6322 25.0282C18.535 26.9002 13.4646 26.9002 9.36757 25.0282L11.6088 19.9994ZM28.1817 25.5708C28.1547 25.8198 28.0323 26.0433 27.8372 26.2002C24.69 28.7312 20.4859 30.125 15.9998 30.125C11.5139 30.125 7.31001 28.7311 4.16239 26.2002C3.96732 26.0433 3.84495 25.8198 3.81795 25.5708C3.79082 25.3219 3.86239 25.0773 4.01914 24.8823C4.20426 24.6522 4.47645 24.5325 4.75095 24.5325C4.95714 24.5325 5.16457 24.6 5.33732 24.739C8.19007 27.0329 11.9768 28.2962 15.9998 28.2962C20.0229 28.2962 23.8096 27.0329 26.6624 24.7389C27.0652 24.4151 27.6565 24.4794 27.9804 24.8821C28.1373 25.0772 28.2088 25.3218 28.1817 25.5708Z" fill="#0094FF"/>
</g>
<defs>
<clipPath id="clip0">
<rect width="32" height="32" fill="white"/>
</clipPath>
</defs>
</svg>
