<svg width="32" height="32" viewBox="0 0 32 32" fill="none" xmlns="http://www.w3.org/2000/svg">
<path d="M6.07373 24.4009C5.94604 24.7219 5.875 25.0715 5.875 25.4375C5.875 26.7327 6.75537 27.8257 7.94873 28.1509C7.82104 28.4719 7.75 28.8215 7.75 29.1875C7.75 30.7383 9.01172 32 10.5625 32H16.0493C17.4612 32 18.9263 31.6335 20.5288 30.8801C21.5793 30.386 22.748 30.125 23.9087 30.125H27.4375C27.9553 30.125 28.375 29.7053 28.375 29.1875V19.8125C28.375 19.2947 27.9553 18.875 27.4375 18.875H24.4651C23.0054 18.875 21.6331 18.3066 20.6006 17.2744C19.2144 15.8884 17.3711 15.125 15.4106 15.125H15.25V13.25H19.9375C20.4553 13.25 20.875 12.8303 20.875 12.3125V0.9375C20.875 0.419678 20.4553 0 19.9375 0H4.9375C4.41968 0 4 0.419678 4 0.9375V12.3125C4 12.8303 4.41968 13.25 4.9375 13.25H9.625V15.125H6.8125C5.26172 15.125 4 16.3867 4 17.9375C4 18.6572 4.27222 19.3145 4.71851 19.8125C4.27222 20.3105 4 20.9678 4 21.6875C4 22.9827 4.88037 24.0757 6.07373 24.4009ZM6.8125 20.75H9.625V22.625C8.74414 22.625 7.69067 22.625 6.8125 22.625C6.29565 22.625 5.875 22.2043 5.875 21.6875C5.875 21.1707 6.29565 20.75 6.8125 20.75ZM8.6875 24.5H12.4375C12.9543 24.5 13.375 24.9207 13.375 25.4375C13.375 25.9543 12.9543 26.375 12.4375 26.375C11.9839 26.375 9.14429 26.375 8.6875 26.375C8.17065 26.375 7.75 25.9543 7.75 25.4375C7.75 24.9207 8.17065 24.5 8.6875 24.5ZM9.625 29.1875C9.625 28.6707 10.0457 28.25 10.5625 28.25H12.4375C12.9543 28.25 13.375 28.6707 13.375 29.1875C13.375 29.7043 12.9543 30.125 12.4375 30.125H10.5625C10.0457 30.125 9.625 29.7043 9.625 29.1875ZM19.2749 18.6003C20.6614 19.9866 22.5046 20.75 24.4651 20.75H26.5V28.25H23.9087C22.4741 28.25 21.0293 28.5728 19.731 29.1833C18.3835 29.8169 17.1792 30.125 16.0493 30.125H15.0889C15.1929 29.8315 15.25 29.5161 15.25 29.1875C15.25 28.4678 14.9778 27.8105 14.5315 27.3125C14.978 26.8145 15.25 26.1572 15.25 25.4375C15.25 24.4385 14.7258 23.5598 13.9385 23.0608C14.0024 22.9944 14.0647 22.9265 14.1245 22.8564C15.2234 24.9463 17.4167 26.375 19.9375 26.375C20.4553 26.375 20.875 25.9553 20.875 25.4375C20.875 24.9197 20.4553 24.5 19.9375 24.5C17.3528 24.5 15.25 22.3972 15.25 19.8125C15.25 19.2947 14.8303 18.875 14.3125 18.875C13.7947 18.875 13.375 19.2947 13.375 19.8125C13.375 21.0347 12.5913 22.0774 11.5 22.4644V17H15.4106C16.8704 17 18.2427 17.5684 19.2749 18.6003ZM5.875 1.875H19V11.375H5.875V1.875ZM13.375 13.25V15.125H11.5V13.25H13.375ZM6.8125 17H9.625V18.875H6.8125C6.29565 18.875 5.875 18.4543 5.875 17.9375C5.875 17.4207 6.29565 17 6.8125 17Z" fill="#FFB629"/>
<path d="M11.5 9.4375C11.74 9.4375 11.98 9.34595 12.1628 9.16284L15.9128 5.41284C16.2791 5.04663 16.2791 4.45312 15.9128 4.08716C15.5469 3.72095 14.9531 3.72095 14.5872 4.08716L11.5 7.17407L10.2878 5.96216C9.92188 5.59595 9.32812 5.59595 8.96216 5.96216C8.59595 6.32837 8.59595 6.92188 8.96216 7.28784L10.8372 9.16284C11.02 9.34595 11.26 9.4375 11.5 9.4375Z" fill="#FFB629"/>
</svg>
