<svg width="32" height="32" viewBox="0 0 32 32" fill="none" xmlns="http://www.w3.org/2000/svg">
<path d="M28.4585 25.7213V21.4883H13.6305V25.7213C11.8937 25.7653 10.4941 27.1908 10.4941 28.938V31.8161H31.5948V28.938C31.5948 27.1908 30.1953 25.7653 28.4585 25.7213ZM15.5055 23.3633H26.5835V25.7192H15.5055V23.3633ZM29.7198 29.9411H12.3692V28.938C12.3692 28.197 12.972 27.5942 13.713 27.5942H28.3761C29.117 27.5942 29.7198 28.197 29.7198 28.938V29.9411Z" fill="#FFB629"/>
<path d="M13.5887 16.8504L17.7063 12.7327L18.8835 13.91L18.1487 14.6449L22.1842 18.6804L29.1132 11.7514L25.0777 7.71588L24.2969 8.49669L20.6165 4.81637L21.3973 4.03562L17.3618 0L10.4328 6.929L14.4684 10.9646L15.2032 10.2297L16.3804 11.407L12.2628 15.5246L10.8862 14.1481L1.06267 23.9717C-0.0583262 25.0926 -0.0583262 26.9166 1.06267 28.0376C1.62317 28.598 2.35936 28.8783 3.09561 28.8783C3.8318 28.8783 4.56805 28.5981 5.12855 28.0376L14.9521 18.2139L13.5887 16.8504ZM22.1842 16.0287L20.8003 14.6449L25.0777 10.3675L26.4616 11.7514L22.1842 16.0287ZM17.3618 2.65169L18.7457 4.03556L14.4684 8.31294L13.0844 6.92906L17.3618 2.65169ZM20.2094 12.5842L16.529 8.90394L19.2908 6.14219L22.9711 9.82244L20.2094 12.5842ZM3.80267 26.7118C3.4128 27.1016 2.7783 27.1016 2.38842 26.7118C1.99855 26.3218 1.99855 25.6874 2.38842 25.2975L10.8863 16.7997L12.3005 18.2139L3.80267 26.7118Z" fill="#FFB629"/>
</svg>
