<svg width="100" height="100" viewBox="0 0 100 100" fill="none" xmlns="http://www.w3.org/2000/svg">
<path d="M50 88C70.9868 88 88 70.9868 88 50C88 29.0132 70.9868 12 50 12C29.0132 12 12 29.0132 12 50C12 70.9868 29.0132 88 50 88Z" fill="#C5E7FF"/>
<path d="M50 13.5C70.13 13.5 86.5 29.87 86.5 50C86.5 70.13 70.13 86.5 50 86.5C29.87 86.5 13.5 70.13 13.5 50C13.5 29.87 29.87 13.5 50 13.5ZM50 10.5C28.18 10.5 10.5 28.18 10.5 50C10.5 71.82 28.18 89.5 50 89.5C71.82 89.5 89.5 71.82 89.5 50C89.5 28.18 71.82 10.5 50 10.5Z" fill="#007AD2"/>
<path d="M50 56.5C53.5899 56.5 56.5 53.5899 56.5 50C56.5 46.4101 53.5899 43.5 50 43.5C46.4101 43.5 43.5 46.4101 43.5 50C43.5 53.5899 46.4101 56.5 50 56.5Z" fill="#C5E7FF"/>
<path d="M50 45C52.76 45 55 47.24 55 50C55 52.76 52.76 55 50 55C47.24 55 45 52.76 45 50C45 47.24 47.24 45 50 45ZM50 42C45.58 42 42 45.58 42 50C42 54.42 45.58 58 50 58C54.42 58 58 54.42 58 50C58 45.58 54.42 42 50 42Z" fill="#0094FF"/>
<path d="M72 56.5C75.5899 56.5 78.5 53.5899 78.5 50C78.5 46.4101 75.5899 43.5 72 43.5C68.4101 43.5 65.5 46.4101 65.5 50C65.5 53.5899 68.4101 56.5 72 56.5Z" fill="#C5E7FF"/>
<path d="M72 45C74.76 45 77 47.24 77 50C77 52.76 74.76 55 72 55C69.24 55 67 52.76 67 50C67 47.24 69.24 45 72 45ZM72 42C67.58 42 64 45.58 64 50C64 54.42 67.58 58 72 58C76.42 58 80 54.42 80 50C80 45.58 76.42 42 72 42Z" fill="#0094FF"/>
<path d="M29 56.5C32.5899 56.5 35.5 53.5899 35.5 50C35.5 46.4101 32.5899 43.5 29 43.5C25.4101 43.5 22.5 46.4101 22.5 50C22.5 53.5899 25.4101 56.5 29 56.5Z" fill="#C5E7FF"/>
<path d="M29 45C31.76 45 34 47.24 34 50C34 52.76 31.76 55 29 55C26.24 55 24 52.76 24 50C24 47.24 26.24 45 29 45ZM29 42C24.58 42 21 45.58 21 50C21 54.42 24.58 58 29 58C33.42 58 37 54.42 37 50C37 45.58 33.42 42 29 42Z" fill="#0094FF"/>
</svg>
