<svg width="32" height="32" viewBox="0 0 32 32" fill="none" xmlns="http://www.w3.org/2000/svg">
<path d="M32 10.7535V9.12544L27.7302 4.37875H13.5894L11.9645 0H9.41031L7.78544 4.37875H5.625V2.6875H3.75V4.37875H0V10.7535H3.75V12.4447H5.625V10.7535H7.5V32H13.8748V10.7535H25.5V18.2812H23.625V23.9062H25.5V24.8438C25.5 26.3946 26.7617 27.6562 28.3125 27.6562H29.3125V25.7812H28.3125C27.7956 25.7812 27.375 25.3607 27.375 24.8438V23.9062H29.25V18.2812H27.375V10.7535H32ZM27.375 22.0312H25.5V20.1562H27.375V22.0312ZM22.3734 6.25375H24.7477V8.8785H22.3734V6.25375ZM20.4984 8.8785H18.1241V6.25375H20.4984V8.8785ZM29.2559 8.8785H26.6227V6.25375H26.8948L29.2559 8.8785ZM11.9998 6.25375V8.8785H9.375V6.25375H11.9998ZM10.6874 1.94794L11.5894 4.37875H9.78537L10.6874 1.94794ZM1.875 8.8785V6.25375H3.75V8.8785H1.875ZM5.625 8.8785V6.25375H7.5V8.8785H5.625ZM9.375 23.5014H11.9998V25.8756H9.375V23.5014ZM9.375 21.6264V19.2521H11.9998V21.6264H9.375ZM9.375 17.3771V15.0028H11.9998V17.3771H9.375ZM9.375 30.125V27.7507H11.9998V30.125H9.375ZM11.9998 13.1278H9.375V10.7535H11.9998V13.1278ZM13.8748 6.25375H16.2491V8.8785H13.8748V6.25375Z" fill="#FFB629"/>
</svg>
