<svg width="32" height="32" viewBox="0 0 32 32" fill="none" xmlns="http://www.w3.org/2000/svg">
<path d="M27.3137 4.68625C24.2917 1.66431 20.2738 0 16 0C11.7262 0 7.70831 1.66431 4.68625 4.68625C1.66431 7.70831 0 11.7262 0 16C0 20.2738 1.66431 24.2917 4.68625 27.3137C7.70831 30.3357 11.7262 32 16 32C20.2738 32 24.2917 30.3357 27.3137 27.3137C30.3357 24.2917 32 20.2738 32 16C32 11.7262 30.3357 7.70831 27.3137 4.68625ZM25.9879 25.9879C23.32 28.6558 19.7729 30.125 16 30.125C12.2271 30.125 8.68 28.6558 6.01213 25.9879C3.34425 23.32 1.875 19.7729 1.875 16C1.875 12.2271 3.34425 8.68 6.01213 6.01213C8.68 3.34425 12.2271 1.875 16 1.875C19.7729 1.875 23.32 3.34425 25.9879 6.01213C28.6558 8.68 30.125 12.2271 30.125 16C30.125 19.7729 28.6558 23.32 25.9879 25.9879Z" fill="#0094FF"/>
<path d="M19.9537 12.0461V6.52637H12.0461V12.0461H6.52637V19.9537H12.0461V25.4734H19.9537V19.9537H25.4734V12.0461H19.9537ZM23.5985 18.0787H18.0788V23.5984H13.9211V18.0787H8.40143V13.9211H13.9211V8.40137H18.0788V13.9211H23.5985V18.0787Z" fill="#0094FF"/>
</svg>
