<svg width="23" height="17" viewBox="0 0 23 17" fill="none" xmlns="http://www.w3.org/2000/svg">
<path d="M6.152 16.624C4.392 16.624 3.08 16.032 2.216 14.848C1.384 13.664 0.968 12.288 0.968 10.72C0.968 9.28 1.272 7.904 1.88 6.592C2.52 5.248 3.336 4.08 4.328 3.088C5.352 2.064 6.456 1.296 7.64 0.783998L10.952 3.232C9.64 3.776 8.456 4.512 7.4 5.44C6.376 6.336 5.656 7.296 5.24 8.32L5.48 8.464C5.672 8.336 5.88 8.24 6.104 8.176C6.36 8.112 6.696 8.08 7.112 8.08C7.976 8.08 8.824 8.4 9.656 9.04C10.52 9.68 10.952 10.672 10.952 12.016C10.952 13.52 10.456 14.672 9.464 15.472C8.504 16.24 7.4 16.624 6.152 16.624ZM17.912 16.624C16.152 16.624 14.84 16.032 13.976 14.848C13.144 13.664 12.728 12.288 12.728 10.72C12.728 9.28 13.032 7.904 13.64 6.592C14.28 5.248 15.096 4.08 16.088 3.088C17.112 2.064 18.216 1.296 19.4 0.783998L22.712 3.232C21.4 3.776 20.216 4.512 19.16 5.44C18.136 6.336 17.416 7.296 17 8.32L17.24 8.464C17.432 8.336 17.64 8.24 17.864 8.176C18.12 8.112 18.456 8.08 18.872 8.08C19.736 8.08 20.584 8.4 21.416 9.04C22.28 9.68 22.712 10.672 22.712 12.016C22.712 13.52 22.216 14.672 21.224 15.472C20.264 16.24 19.16 16.624 17.912 16.624Z" fill="#8A8A8A"/>
</svg>
