<svg width="40" height="40" viewBox="0 0 40 40" fill="none" xmlns="http://www.w3.org/2000/svg">
<path d="M39.8985 27.4284C39.8987 27.4283 39.8988 27.4282 39.8989 27.4281L34.8266 18.4541C34.688 18.2088 34.4281 18.0572 34.1465 18.0572H32.9688V5.46875C32.9688 4.17641 31.9174 3.125 30.6251 3.125H30.4688V2.34375C30.4688 1.05141 29.4173 0 28.125 0H11.875C10.5827 0 9.53125 1.05141 9.53125 2.34375V3.125H9.37492C8.08258 3.125 7.03117 4.17641 7.03117 5.46875V18.0571H5.87398C5.59273 18.0571 5.33328 18.2082 5.19453 18.4527L0.101797 27.4269C0.101953 27.4269 0.102109 27.427 0.102266 27.427C0.0375 27.5409 0 27.6722 0 27.8125V39.2188C0 39.6502 0.349844 40 0.78125 40H4.36195C4.79336 40 5.1432 39.6502 5.1432 39.2188C5.1432 38.7873 4.79336 38.4375 4.36195 38.4375H1.5625V28.5938H14.1927H16.8924C17.2421 29.9836 18.5023 31.0156 19.9992 31.0156C21.4961 31.0156 22.7563 29.9836 23.106 28.5938H27.6816H38.4375V38.4375H10.612C10.1805 38.4375 9.8307 38.7873 9.8307 39.2188C9.8307 39.6502 10.1805 40 10.612 40H39.2188C39.6502 40 40 39.6502 40 39.2188V27.8125C40 27.6727 39.9628 27.5419 39.8985 27.4284ZM11.0938 2.34375C11.0938 1.91297 11.4442 1.5625 11.875 1.5625H28.125C28.5558 1.5625 28.9062 1.91297 28.9062 2.34375V3.125H11.0938V2.34375ZM6.32891 19.6196H7.03117V27.0312H2.12289L6.32891 19.6196ZM22.421 27.0312C21.9896 27.0312 21.6398 27.3811 21.6398 27.8125C21.6398 28.7171 20.9037 29.4531 19.9991 29.4531C19.0945 29.4531 18.3585 28.7171 18.3585 27.8125C18.3585 27.3811 18.0087 27.0312 17.5773 27.0312H14.1927H8.59367V5.46875C8.59367 5.03797 8.94414 4.6875 9.37492 4.6875H30.6251C31.0559 4.6875 31.4063 5.03797 31.4063 5.46875V27.0312H27.6815H22.421ZM32.9688 27.0312V19.6196H33.6906L37.8798 27.0312H32.9688Z" fill="white"/>
</svg>
