<svg width="40" height="40" viewBox="0 0 40 40" fill="none" xmlns="http://www.w3.org/2000/svg">
<g clip-path="url(#clip0)">
<path d="M9.20114 13.6211C8.89646 13.3164 8.40114 13.3164 8.09653 13.6211C7.79106 13.9266 7.79106 14.4211 8.09653 14.7258C8.40122 15.0313 8.89653 15.0313 9.20114 14.7258C9.50653 14.4211 9.50653 13.9266 9.20114 13.6211Z" fill="#0094FF"/>
<path d="M19.7812 34.979C20.1257 34.5124 20.3118 33.9503 20.3118 33.3593C20.3118 31.8516 19.0853 30.625 17.5775 30.625H4.29673C3.56602 30.625 2.87938 30.9094 2.36321 31.4257C1.8468 31.942 1.56242 32.6286 1.56242 33.3593C1.56242 33.9647 1.76055 34.5245 2.09485 34.9781C0.850861 35.6321 0 36.9368 0 38.4372V39.2185C0 39.6499 0.349844 39.9997 0.781251 39.9997H21.093C21.5244 39.9997 21.8743 39.6499 21.8743 39.2185V38.4372C21.8743 36.9375 21.0243 35.6334 19.7812 34.979ZM3.46798 32.5304C3.68915 32.3091 3.98352 32.1873 4.29673 32.1873H17.5775C18.2237 32.1873 18.7493 32.7131 18.7493 33.3591C18.7493 33.6724 18.6275 33.9667 18.4062 34.188C18.185 34.4092 17.8907 34.531 17.5775 34.531H4.29673C3.65055 34.531 3.12493 34.0053 3.12493 33.3592C3.12493 33.046 3.24672 32.7516 3.46798 32.5304ZM1.56242 38.4372C1.56242 37.1449 2.61383 36.0935 3.9061 36.0935H4.29673H17.5775H17.9682C19.2604 36.0935 20.3118 37.1449 20.3118 38.4372H1.56242Z" fill="#0094FF"/>
<path d="M39.2733 32.8222C39.0079 32.411 38.6914 32.0474 38.3322 31.7415L34.6818 28.5576C34.6534 28.5148 34.6204 28.4742 34.5827 28.4365C34.5193 28.3731 34.4474 28.3236 34.371 28.2866L32.1634 26.3612L21.9454 17.4478C22.3637 17.0106 22.594 16.4388 22.594 15.8307C22.594 15.2043 22.3502 14.6157 21.907 14.1725C21.7137 13.9795 21.494 13.8277 21.2592 13.7165L22.2046 12.7712C22.4688 12.8414 22.7403 12.8774 23.012 12.8774C23.8121 12.8773 24.6122 12.5728 25.2213 11.9637C25.8118 11.3733 26.1369 10.5885 26.1369 9.75392C26.1369 8.91931 25.8118 8.13455 25.2214 7.54416L18.5926 0.915549C18.0022 0.325157 17.2174 0 16.3825 0C15.5481 0 14.7635 0.325157 14.1731 0.915549C13.3572 1.73149 13.0886 2.89001 13.3656 3.93235L3.93399 13.3639C3.67336 13.2946 3.40219 13.2581 3.12516 13.2581C2.29016 13.2581 1.50571 13.583 0.915782 14.1728C-0.302657 15.3913 -0.302657 17.3739 0.915782 18.5924L7.54446 25.2211C8.15376 25.8304 8.954 26.135 9.75423 26.135C10.5545 26.135 11.3548 25.8304 11.9641 25.2211C12.78 24.4051 13.0486 23.2467 12.7716 22.2043L13.7149 21.2609C13.8283 21.4976 13.9821 21.7161 14.1732 21.9071C14.6159 22.3497 15.2044 22.5936 15.8306 22.5936C16.4381 22.5936 17.0096 22.3636 17.4475 21.9458L28.3308 34.4501C28.3608 34.4969 28.3958 34.5415 28.4368 34.5825C28.4507 34.5965 28.4656 34.6092 28.4804 34.6219L31.7234 38.348C31.804 38.4431 31.8902 38.5367 31.9797 38.6262C32.8704 39.5166 34.0468 39.9998 35.282 39.9998C35.4997 39.9998 35.7195 39.9848 35.9396 39.9543C37.4106 39.7507 38.6819 38.8707 39.4274 37.5396C40.244 36.0808 40.1833 34.2287 39.2733 32.8222ZM15.2781 2.02039C15.5733 1.72516 15.9656 1.5625 16.3826 1.5625C16.8001 1.5625 17.1927 1.72516 17.4878 2.02039L24.1166 8.64908C24.4118 8.94431 24.5744 9.33674 24.5744 9.754C24.5744 10.1713 24.4118 10.5637 24.1165 10.8589C23.5075 11.4681 22.5164 11.4681 21.9075 10.8589L15.2785 4.22993C15.2783 4.22977 15.2782 4.2297 15.2781 4.22954C14.6689 3.62048 14.6689 2.62946 15.2781 2.02039ZM10.8592 24.1163C10.25 24.7255 9.25853 24.7256 8.64931 24.1163L2.02063 17.4876C1.41133 16.8783 1.41133 15.8871 2.02063 15.2777C2.31532 14.9829 2.70766 14.8206 3.12516 14.8206C3.54258 14.8206 3.93469 14.9828 4.2293 15.2774L10.8592 21.9072C11.4684 22.5162 11.4684 23.5073 10.8592 24.1163ZM14.1485 18.6178L11.964 20.8024L5.33462 14.173L14.1731 5.33431L20.8025 11.9637L18.614 14.1522C18.6069 14.1589 18.5999 14.1655 18.5924 14.1729L14.1754 18.59C14.1663 18.599 14.1574 18.6084 14.1485 18.6178ZM16.938 20.2476C16.9364 20.2492 16.9349 20.2507 16.9334 20.2522L16.3832 20.8024C16.2356 20.9499 16.0395 21.0311 15.8306 21.0311C15.6217 21.0311 15.4255 20.9499 15.278 20.8023C15.1303 20.6546 15.0489 20.4582 15.0489 20.2493C15.0489 20.0447 15.127 19.8523 15.2686 19.7071L19.7062 15.2696C20.0103 14.9738 20.5021 14.9774 20.8026 15.2777C20.9503 15.4253 21.0316 15.6217 21.0316 15.8307C21.0316 16.0396 20.9505 16.2354 20.8025 16.383L20.2556 16.93C20.2518 16.9336 20.2481 16.9374 20.2444 16.9411L16.938 20.2476ZM18.5558 20.8394L20.8391 18.5561L30.5064 26.9886L26.9788 30.5163L18.5558 20.8394ZM28.007 31.6977L31.6866 28.018L32.8668 29.0475L29.0352 32.8792L28.007 31.6977ZM38.0642 36.7763C37.56 37.6766 36.7076 38.2707 35.7254 38.4066C34.7456 38.5423 33.7829 38.2195 33.0843 37.5212C33.0242 37.4612 32.9667 37.3987 32.9131 37.3352C32.9106 37.3323 32.9081 37.3293 32.9055 37.3264L30.0633 34.0606L34.047 30.0769L37.3087 32.9219C37.3111 32.9241 37.3136 32.9262 37.3162 32.9284C37.5604 33.136 37.777 33.3853 37.9608 33.6701C38.5516 34.583 38.593 35.8315 38.0642 36.7763Z" fill="#0094FF"/>
<path d="M14.7253 8.096C14.4202 7.79092 13.9256 7.79092 13.6205 8.096L10.3058 11.4107C10.0007 11.7158 10.0007 12.2105 10.3058 12.5155C10.4584 12.668 10.6583 12.7443 10.8582 12.7443C11.0581 12.7443 11.258 12.668 11.4106 12.5155L14.7253 9.20076C15.0304 8.89576 15.0304 8.40115 14.7253 8.096Z" fill="#0094FF"/>
</g>
<defs>
<clipPath id="clip0">
<rect width="40" height="40" fill="white"/>
</clipPath>
</defs>
</svg>
