<svg width="100" height="100" viewBox="0 0 100 100" fill="none" xmlns="http://www.w3.org/2000/svg">
<path d="M11.9004 56.5L16.1804 38.5H83.8204L88.1004 56.5H11.9004Z" fill="#C5E7FF"/>
<path d="M83.1164 39.8842L83.025 39.5H82.63H17.37H16.975L16.8836 39.8842L13.3136 54.8842L13.167 55.5H13.8H86.2H86.833L86.6864 54.8842L83.1164 39.8842ZM10.633 57.5L15.3949 37.5H84.6051L89.367 57.5H10.633Z" fill="#007AD2" stroke="#007AD2"/>
<path d="M83.5 56.5H17.5V88.5H83.5V56.5Z" fill="#C5E7FF"/>
<path d="M82.5 58V57.5H82H19H18.5V58V87V87.5H19H82H82.5V87V58ZM16.5 89.5V55.5H84.5V89.5H16.5Z" fill="#007AD2" stroke="#007AD2"/>
<path d="M88.5 56.5H11.5V64.5H88.5V56.5Z" fill="#C5E7FF"/>
<path d="M87.5 58V57.5H87H13H12.5V58V63V63.5H13H87H87.5V63V58ZM10.5 65.5V55.5H89.5V65.5H10.5Z" fill="#007AD2" stroke="#007AD2"/>
<path d="M31.5 47.5H70.5" stroke="#0094FF" stroke-width="3" stroke-miterlimit="10" stroke-linecap="round" stroke-linejoin="round"/>
<path fill-rule="evenodd" clip-rule="evenodd" d="M42.41 47.5403L33 38.1203L57.05 14.0703L74.37 31.3903L58.23 47.5403H42.41Z" fill="#FFE7E7"/>
<path d="M57.4034 15.8366L57.0498 15.483L56.6962 15.8367L34.7662 37.7767L34.4129 38.1303L34.7663 38.4837L42.6763 46.3937L42.8228 46.5402H43.0299H57.6099H57.8171L57.9636 46.3936L72.6036 31.7436L72.9569 31.3901L72.6034 31.0366L57.4034 15.8366ZM31.587 38.1202L57.0499 12.6573L75.7828 31.3902L58.6428 48.5302H41.997L31.587 38.1202Z" fill="#EB5757" stroke="#EB5757"/>
</svg>
