<svg width="32" height="32" viewBox="0 0 32 32" fill="none" xmlns="http://www.w3.org/2000/svg">
<g clip-path="url(#clip0)">
<path d="M31.875 18.1926C31.875 15.9884 30.3948 14.0262 28.2756 13.4206L25.0291 12.4931L22.4731 7.38088C21.6906 5.81594 20.1175 4.84375 18.3678 4.84375H8.781C6.87856 4.84375 5.1515 6.04056 4.4835 7.82188L2.68894 12.6073L1.68581 13.1088C0.646 13.6289 0 14.6741 0 15.8368V23.5938H4.47719C4.90763 25.557 6.65938 27.0312 8.75 27.0312C10.8406 27.0312 12.5924 25.557 13.0228 23.5938H18.8522C19.2827 25.557 21.0344 27.0312 23.1251 27.0312C25.2157 27.0312 26.9674 25.557 27.3979 23.5938H31.875V18.1926ZM20.7959 8.21944L22.8581 12.3438H14.375V6.71875H18.3678C19.4027 6.71875 20.3331 7.29375 20.7959 8.21944ZM6.23912 8.48025C6.63419 7.42669 7.65575 6.71875 8.781 6.71875H12.5V12.3438H4.79031L6.23912 8.48025ZM8.75 25.1562C7.3715 25.1562 6.25 24.0347 6.25 22.6562C6.25 21.2778 7.3715 20.1562 8.75 20.1562C10.1285 20.1562 11.25 21.2778 11.25 22.6562C11.25 24.0347 10.1285 25.1562 8.75 25.1562ZM23.125 25.1562C21.7465 25.1562 20.625 24.0347 20.625 22.6562C20.625 21.2778 21.7465 20.1562 23.125 20.1562C24.5035 20.1562 25.625 21.2778 25.625 22.6562C25.625 24.0347 24.5035 25.1562 23.125 25.1562ZM27.3978 21.7188C26.9674 19.7555 25.2156 18.2812 23.125 18.2812C21.0344 18.2812 19.2826 19.7555 18.8522 21.7188H13.0227C12.5923 19.7555 10.8406 18.2812 8.74994 18.2812C6.65931 18.2812 4.90756 19.7555 4.47713 21.7188H1.875V15.8368C1.875 15.3889 2.12381 14.9862 2.52444 14.7859L3.65881 14.2188H24.0625V14.1671L27.7604 15.2236C28.6882 15.4887 29.4186 16.172 29.7704 17.0313H28.125V18.9063H30V21.7188H27.3978V21.7188Z" fill="#0094FF"/>
</g>
<defs>
<clipPath id="clip0">
<rect width="32" height="32" fill="white"/>
</clipPath>
</defs>
</svg>
