<svg width="100" height="100" viewBox="0 0 100 100" fill="none" xmlns="http://www.w3.org/2000/svg">
<path d="M82.3204 87.64C81.0803 87.64 79.9104 87.16 79.0404 86.28L48.3604 55.6L54.9203 49.04L85.6003 79.72C87.4104 81.53 87.4104 84.47 85.6003 86.28C84.7203 87.16 83.5604 87.64 82.3204 87.64Z" fill="#FFEECE"/>
<path d="M55.2738 50.8064L54.9202 50.4528L54.5667 50.8064L50.1267 55.2464L49.7731 55.5999L50.1267 55.9535L79.7467 85.5735C80.43 86.2568 81.347 86.6399 82.3202 86.6399C83.2935 86.6399 84.2105 86.2568 84.8938 85.5735C85.5771 84.8902 85.9602 83.9732 85.9602 82.9999C85.9602 82.0267 85.5771 81.1097 84.8938 80.4264L55.2738 50.8064ZM46.9473 55.5999L54.9202 47.627L86.3067 79.0135C88.5114 81.2182 88.5114 84.7816 86.3067 86.9864C85.204 88.0891 83.7627 88.6399 82.3202 88.6399C80.8778 88.6399 79.4365 88.0891 78.3338 86.9864L46.9473 55.5999Z" fill="#E9A625" stroke="#E9A625"/>
<path d="M36.5 61.5C50.3071 61.5 61.5 50.3071 61.5 36.5C61.5 22.6929 50.3071 11.5 36.5 11.5C22.6929 11.5 11.5 22.6929 11.5 36.5C11.5 50.3071 22.6929 61.5 36.5 61.5Z" fill="#FFEECE"/>
<path d="M60.5 36.5C60.5 23.2639 49.7361 12.5 36.5 12.5C23.2639 12.5 12.5 23.2639 12.5 36.5C12.5 49.7361 23.2639 60.5 36.5 60.5C49.7361 60.5 60.5 49.7361 60.5 36.5ZM10.5 36.5C10.5 22.1361 22.1361 10.5 36.5 10.5C50.8639 10.5 62.5 22.1361 62.5 36.5C62.5 50.8639 50.8639 62.5 36.5 62.5C22.1361 62.5 10.5 50.8639 10.5 36.5Z" fill="#E9A625" stroke="#E9A625"/>
<path d="M36.5 54.5C46.4411 54.5 54.5 46.4411 54.5 36.5C54.5 26.5589 46.4411 18.5 36.5 18.5C26.5589 18.5 18.5 26.5589 18.5 36.5C18.5 46.4411 26.5589 54.5 36.5 54.5Z" fill="#FFEECE"/>
<path d="M53.5 36.5C53.5 27.1239 45.8761 19.5 36.5 19.5C27.1239 19.5 19.5 27.1239 19.5 36.5C19.5 45.8761 27.1239 53.5 36.5 53.5C45.8761 53.5 53.5 45.8761 53.5 36.5ZM17.5 36.5C17.5 26.0061 26.0061 17.5 36.5 17.5C46.9939 17.5 55.5 26.0061 55.5 36.5C55.5 46.9939 46.9939 55.5 36.5 55.5C26.0061 55.5 17.5 46.9939 17.5 36.5Z" fill="#FFB629" stroke="#FFB629"/>
</svg>
