<svg width="32" height="32" viewBox="0 0 32 32" fill="none" xmlns="http://www.w3.org/2000/svg">
<g clip-path="url(#clip0)">
<path d="M31.9623 2.38887C31.893 1.11774 30.882 0.10693 29.6109 0.0375548C27.046 -0.10257 22.027 0.0337424 17.2278 2.51605C14.7812 3.78155 12.1937 5.92712 10.1288 8.40262C10.1033 8.43312 10.0786 8.46381 10.0533 8.49437L5.36708 8.85637C4.59571 8.91599 3.90865 9.3203 3.48202 9.96556L0.284896 14.8013C-0.038666 15.2907 -0.0901035 15.9031 0.147209 16.4396C0.384584 16.9761 0.872334 17.3499 1.45202 17.4397L5.40021 18.0512C5.38627 18.128 5.37227 18.2047 5.35946 18.2814C5.22802 19.0677 5.48852 19.8761 6.0564 20.4439L11.5559 25.9434C12.0267 26.4142 12.6629 26.6738 13.3148 26.6738C13.449 26.6738 13.584 26.6627 13.7184 26.6403C13.7951 26.6275 13.8718 26.6135 13.9486 26.5996L14.5601 30.5478C14.6499 31.1275 15.0238 31.6153 15.5601 31.8526C15.7833 31.9514 16.0195 32.0001 16.2546 32.0001C16.5848 32.0001 16.9127 31.9039 17.1985 31.715L22.0342 28.5178C22.6795 28.0911 23.0838 27.4041 23.1433 26.6327L23.5053 21.9466C23.5358 21.9213 23.5666 21.8966 23.5971 21.8711C26.0726 19.8062 28.2183 17.2187 29.4837 14.7721C31.9661 9.97262 32.1022 4.95356 31.9623 2.38887ZM21.0001 26.9537L16.3745 30.012L15.7785 26.1642C17.7335 25.5894 19.6674 24.6687 21.5098 23.4354L21.274 26.4882C21.2593 26.6787 21.1595 26.8484 21.0001 26.9537ZM12.8817 24.6176L7.38215 19.1181C7.24183 18.9777 7.17696 18.7805 7.20877 18.5906C7.37227 17.6129 7.62633 16.6822 7.94083 15.8054L16.1926 24.0572C15.1396 24.4344 14.1964 24.6594 13.4092 24.791C13.219 24.8226 13.022 24.7579 12.8817 24.6176ZM5.51152 10.7258L8.56427 10.49C7.3309 12.3324 6.41027 14.2664 5.83546 16.2214L1.98771 15.6254L5.04608 10.9997C5.15146 10.8403 5.32115 10.7405 5.51152 10.7258ZM22.3962 20.4312C20.8816 21.6945 19.4115 22.6082 18.0563 23.2694L8.73002 13.9431C9.59615 12.1741 10.6532 10.7011 11.5686 9.60368C13.4795 7.31274 15.8562 5.33643 18.0893 4.18143C22.4939 1.90312 27.1346 1.78043 29.5088 1.90968C29.8231 1.9268 30.073 2.17674 30.0901 2.49105C30.2196 4.8653 30.0966 9.50593 27.8183 13.9106C26.6634 16.1436 24.6871 18.5202 22.3962 20.4312Z" fill="#FFB629"/>
<path d="M21.9198 14.7658C23.1199 14.7657 24.3205 14.3088 25.2342 13.3951C26.1196 12.5098 26.6071 11.3327 26.6071 10.0807C26.6071 8.82866 26.1195 7.65154 25.2342 6.76623C23.4066 4.93854 20.4329 4.93866 18.6054 6.76623C17.72 7.65154 17.2324 8.82866 17.2324 10.0807C17.2324 11.3327 17.72 12.5098 18.6054 13.3951C19.5192 14.309 20.7192 14.7659 21.9198 14.7658ZM19.931 8.09198C20.4793 7.54366 21.1995 7.26954 21.9197 7.26954C22.6399 7.26954 23.3601 7.54366 23.9084 8.09198C24.4395 8.62316 24.732 9.32941 24.732 10.0806C24.732 10.8318 24.4395 11.5381 23.9084 12.0693C22.8119 13.1659 21.0275 13.1658 19.931 12.0693C19.3998 11.5381 19.1072 10.8319 19.1072 10.0807C19.1072 9.32948 19.3999 8.62316 19.931 8.09198Z" fill="#FFB629"/>
<path d="M0.956512 26.3704C1.19645 26.3704 1.43639 26.2789 1.61939 26.0958L4.6802 23.035C5.04632 22.6689 5.04632 22.0753 4.6802 21.7092C4.31414 21.343 3.72051 21.343 3.35439 21.7092L0.293637 24.77C-0.0724883 25.1361 -0.0724883 25.7297 0.293637 26.0958C0.476637 26.2789 0.716574 26.3704 0.956512 26.3704Z" fill="#FFB629"/>
<path d="M7.48503 24.5148C7.11897 24.1487 6.52534 24.1487 6.15922 24.5148L0.274594 30.3995C-0.0915312 30.7656 -0.0915312 31.3592 0.274594 31.7253C0.457656 31.9084 0.697531 31.9999 0.937469 31.9999C1.17741 31.9999 1.41734 31.9084 1.60034 31.7253L7.48497 25.8406C7.85116 25.4745 7.85116 24.881 7.48503 24.5148Z" fill="#FFB629"/>
<path d="M8.96431 27.3195L5.9035 30.3803C5.53738 30.7465 5.53738 31.34 5.9035 31.7061C6.08656 31.8892 6.3265 31.9808 6.56637 31.9808C6.80625 31.9808 7.04625 31.8893 7.22925 31.7061L10.2901 28.6453C10.6562 28.2792 10.6562 27.6856 10.2901 27.3195C9.92399 26.9534 9.33037 26.9534 8.96431 27.3195Z" fill="#FFB629"/>
</g>
<defs>
<clipPath id="clip0">
<rect width="32" height="32" fill="white"/>
</clipPath>
</defs>
</svg>
