<svg width="32" height="32" viewBox="0 0 32 32" fill="none" xmlns="http://www.w3.org/2000/svg">
<g clip-path="url(#clip0)">
<path d="M10.3101 18.7502H10.3115C10.3127 18.7502 10.314 18.75 10.3152 18.75H27.3125C27.731 18.75 28.0989 18.4724 28.2139 18.0701L31.9639 4.94507C32.0447 4.66211 31.988 4.35791 31.811 4.12305C31.6338 3.88818 31.3567 3.75 31.0625 3.75H8.14795L7.47778 0.734131C7.38232 0.305176 7.00195 0 6.5625 0H0.9375C0.419678 0 0 0.419678 0 0.9375C0 1.45532 0.419678 1.875 0.9375 1.875H5.81055C5.9292 2.40942 9.01758 16.3074 9.19531 17.1069C8.19897 17.54 7.5 18.5334 7.5 19.6875C7.5 21.2383 8.76172 22.5 10.3125 22.5H27.3125C27.8303 22.5 28.25 22.0803 28.25 21.5625C28.25 21.0447 27.8303 20.625 27.3125 20.625H10.3125C9.79565 20.625 9.375 20.2043 9.375 19.6875C9.375 19.1714 9.79419 18.7515 10.3101 18.7502ZM29.8196 5.625L26.6052 16.875H11.0645L8.56445 5.625H29.8196Z" fill="#FFB629"/>
<path d="M9.375 25.3125C9.375 26.8633 10.6367 28.125 12.1875 28.125C13.7383 28.125 15 26.8633 15 25.3125C15 23.7617 13.7383 22.5 12.1875 22.5C10.6367 22.5 9.375 23.7617 9.375 25.3125ZM12.1875 24.375C12.7043 24.375 13.125 24.7957 13.125 25.3125C13.125 25.8293 12.7043 26.25 12.1875 26.25C11.6707 26.25 11.25 25.8293 11.25 25.3125C11.25 24.7957 11.6707 24.375 12.1875 24.375Z" fill="#FFB629"/>
<path d="M22.625 25.3125C22.625 26.8633 23.8867 28.125 25.4375 28.125C26.9883 28.125 28.25 26.8633 28.25 25.3125C28.25 23.7617 26.9883 22.5 25.4375 22.5C23.8867 22.5 22.625 23.7617 22.625 25.3125ZM25.4375 24.375C25.9543 24.375 26.375 24.7957 26.375 25.3125C26.375 25.8293 25.9543 26.25 25.4375 26.25C24.9207 26.25 24.5 25.8293 24.5 25.3125C24.5 24.7957 24.9207 24.375 25.4375 24.375Z" fill="#FFB629"/>
</g>
<defs>
<clipPath id="clip0">
<rect width="32" height="32" fill="white"/>
</clipPath>
</defs>
</svg>
