<svg width="200" height="160" viewBox="0 0 200 160" fill="none" xmlns="http://www.w3.org/2000/svg">
<path d="M140.781 33.9518C153.569 36.3896 170.17 37.1652 171.852 44.8108C173.535 52.4564 160.299 67.0828 160.074 81.5983C159.962 96.1139 172.862 110.519 171.179 118.275C169.497 126.031 153.344 127.139 140.781 127.804C128.218 128.469 119.133 128.691 108.364 131.572C97.7084 134.342 85.2576 139.882 71.1243 139.993C56.991 140.215 40.9508 135.228 39.1561 124.591C37.4736 114.064 49.8122 97.8868 55.9815 85.1441C62.0386 72.5122 61.9264 63.3154 63.1603 51.9024C64.3942 40.4894 67.1984 26.7495 75.2746 21.6524C83.3508 16.4445 96.6989 19.8795 107.804 23.6469C119.021 27.4143 127.994 31.5141 140.781 33.9518Z" fill="#FFEECE"/>
<path d="M20.613 57.0198C23.2077 58.2018 26.0826 59.6088 29.0561 61.234L22.6234 49.5472L22.7906 49.5585C20.4367 49.2465 18.0649 49.2742 15.7451 49.6406L15.9062 49.6414L20.613 57.0198Z" fill="#C58100"/>
<path d="M15.4221 49.8378C13.2497 50.1228 11.2323 50.9934 9.55857 52.368C9.47992 52.4367 9.40429 52.5072 9.32901 52.5779C10.0604 52.8458 14.3461 54.4476 20.1246 57.2529L15.4221 49.8378Z" fill="#C58100"/>
<path d="M43.5521 69.7942C44.1529 70.2374 44.7386 70.684 45.3093 71.1338L42.5301 55.9865L42.7256 56.0296C41.6545 55.3862 40.5669 54.7872 39.4628 54.2326L43.6424 69.8105L43.5521 69.7942Z" fill="#C58100"/>
<path d="M38.0999 66.1622L32.8217 51.458L33.0162 51.4822C29.8171 50.4299 26.4809 49.7559 23.0771 49.4742L29.7076 61.5817C32.6942 63.0475 35.4917 64.5743 38.0999 66.1622Z" fill="#C58100"/>
<path d="M9.95979 69.4048L9.81152 69.2656C11.204 71.2465 12.7795 73.0877 14.5143 74.7612L35.9446 65.3762C33.7044 63.917 31.5036 62.6048 29.4333 61.4461L9.95979 69.4048Z" fill="#C58100"/>
<path d="M14.9843 74.6138L14.8379 74.4795C15.4337 75.054 16.058 75.6224 16.7109 76.1846L16.5635 76.0512L37.5818 66.4605C37.0535 66.0994 36.5263 65.7464 36.0002 65.4017L14.9843 74.6138Z" fill="#C58100"/>
<path d="M42.9737 69.4388L38.6474 54.4961L38.8266 54.5359C36.9497 53.5134 35.0111 52.6189 33.0242 51.8585L38.4163 66.1508C40.017 67.2279 41.5362 68.3239 42.9737 69.4388Z" fill="#C58100"/>
<path d="M45.2631 71.6541L23.8994 81.4258C25.8301 82.2312 27.817 82.9069 29.8466 83.4483L29.6962 83.3032L50.3557 76.3371C48.7576 74.6747 47.057 73.1109 45.2631 71.6541Z" fill="#C58100"/>
<path d="M8.87422 52.7204L8.86006 52.5873C6.50034 54.8182 5.69894 57.8962 6.27293 61.3539L20.1249 57.252C13.6194 54.2893 8.94139 52.7425 8.87422 52.7204Z" fill="#C58100"/>
<path d="M46.0433 71.8859C47.669 73.2216 49.217 74.6455 50.6803 76.1512L48.7486 61.4915L48.9345 61.5386C47.6767 60.0678 46.2296 58.765 44.628 57.6615C43.9966 57.2308 43.3569 56.8168 42.7089 56.4196L45.5284 71.4686C45.7005 71.6076 45.8741 71.7463 46.0433 71.8859Z" fill="#C58100"/>
<path d="M29.3956 61.0383C26.3524 59.4365 23.4096 58.0541 20.7523 56.8946L6.48484 61.2619L6.34936 61.1253C6.77032 63.6778 7.96657 66.4227 9.8624 69.1665L29.3956 61.0383Z" fill="#C58100"/>
<path d="M24.113 80.8145L45.3249 71.1242L45.3222 71.1102C43.1588 69.3696 40.8993 67.7475 38.5536 66.2507L16.9121 76.3252C17.7817 77.0269 18.7023 77.7121 19.6741 78.3807C21.0727 79.3252 22.5584 80.1398 24.113 80.8145Z" fill="#C58100"/>
<path d="M74.5461 56.8496L74.6742 56.9659C72.9717 55.2111 71.0294 53.7053 68.9047 52.493L69.0348 52.5973L67.9605 61.2871C69.2814 63.8642 70.6805 66.7942 72.0149 69.9552L74.5461 56.8496Z" fill="#C58100"/>
<path d="M69.2621 52.841C67.2544 51.7591 64.9639 51.2041 62.6047 51.2277C62.491 51.2318 62.3785 51.2391 62.2661 51.2468C62.6862 51.881 65.125 55.6213 67.9593 61.1435L69.2621 52.841Z" fill="#C58100"/>
<path d="M77.6911 85.5694C77.8629 86.2844 78.022 86.9924 78.1683 87.6933L85.0699 74.4931L85.1852 74.6494C84.7926 73.4856 84.3621 72.3449 83.8935 71.2273L77.7465 85.6388L77.6911 85.5694Z" fill="#C58100"/>
<path d="M75.3102 79.2048L80.9586 64.446L81.0833 64.5831C79.4536 61.8142 77.4818 59.2593 75.2091 56.9717L72.205 70.5109C73.4158 73.4758 74.4509 76.3737 75.3102 79.2048Z" fill="#C58100"/>
<path d="M81.1484 64.701L76.0724 79.403C76.6658 81.2986 77.18 83.155 77.615 84.9722L83.9934 70.4657L84.1134 70.6149C83.2581 68.5799 82.2675 66.6041 81.1484 64.701Z" fill="#C58100"/>
<path d="M78.4827 106.633C78.4123 106.49 78.3393 106.344 78.2638 106.193C78.8368 102.967 79.019 99.6825 78.8066 96.4116L68.1825 92.2548C67.95 92.0382 67.7141 91.8244 67.4748 91.6134L78.7832 96.0379C78.6247 93.6852 78.3253 91.3441 77.8866 89.0271L57.3329 83.4257C57.3144 83.2995 57.295 83.1705 57.2749 83.0393L77.8023 88.6336L77.8093 88.6207C77.2604 85.8159 76.561 83.0427 75.714 80.3129L55.4387 74.9471C55.3974 74.8127 55.3555 74.6779 55.3128 74.5426L75.5888 79.9087C75.3996 79.304 75.206 78.7061 75.0079 78.1151L54.5816 72.3993C54.5311 72.2617 54.4797 72.1239 54.4275 71.986L74.8698 77.7063C74.0388 75.2603 73.1451 72.9459 72.2561 70.8238L51.8763 64.6046L51.8485 64.4117C51.8003 65.0198 51.7728 65.6444 51.7621 66.2811C50.9077 64.7786 49.9254 63.3525 48.8261 62.0187L50.9754 76.9442C52.3294 78.3936 53.5865 79.9308 54.7384 81.5456C54.8756 81.8519 55.0166 82.1581 55.1648 82.4643L55.4157 82.5327C55.5155 82.6829 55.6144 82.8332 55.7114 82.9838L55.3777 82.8928C55.4657 83.0689 55.5569 83.2449 55.6483 83.4208C54.2206 81.1683 52.5842 79.0552 50.7606 77.1094L30.3418 83.8532C31.805 84.269 33.297 84.6327 34.7915 84.9516C32.5345 85.4518 30.3554 86.2539 28.3129 87.3362L28.4712 87.2822L35.2619 92.851C38.1557 93.1168 41.3907 93.5057 44.7868 94.0733L35.1691 85.0313C35.355 85.07 35.5409 85.108 35.7267 85.1454L45.3197 94.1643C48.5003 94.7108 51.5294 95.3639 54.407 96.1239L46.9723 86.7193C47.1218 86.7324 47.2703 86.7451 47.4178 86.7575L54.9329 96.2638C56.8489 96.7814 58.6895 97.3454 60.4548 97.9556L53.2339 87.1098C53.3761 87.1151 53.5157 87.1201 53.6525 87.1247L60.9497 98.0852L60.8611 98.0953C61.5592 98.3409 62.2444 98.5937 62.9168 98.8539L56.3927 87.1844C56.5394 87.1857 56.6749 87.1865 56.7991 87.1869L63.436 99.0584C63.6439 99.1406 63.853 99.2222 64.0584 99.3058C66.0291 100.104 67.955 101.009 69.8276 102.017L69.2897 100.923C69.5542 101.187 69.8157 101.446 70.0743 101.699L70.3801 102.321C70.6574 102.475 70.9303 102.632 71.2012 102.789C71.5134 103.087 71.8189 103.376 72.1175 103.656C71.4975 103.272 70.8674 102.902 70.227 102.544L52.8968 115.274C65.5864 114.799 79.0708 110.277 79.9282 109.985C79.2802 109.282 78.5968 108.608 77.8843 107.961C77.9107 107.853 77.9358 107.744 77.9611 107.636C78.0471 107.713 78.1342 107.789 78.2191 107.866C78.2059 107.923 78.1938 107.98 78.1803 108.037C78.2081 107.997 78.2371 107.955 78.2674 107.911C78.7666 108.367 79.2463 108.832 79.7065 109.305C79.5036 108.822 79.1853 108.094 78.7532 107.191C81.1273 103.6 86.9561 93.7447 86.9361 83.5624L79.0775 96.4214C79.304 99.8373 79.1041 103.268 78.4827 106.633ZM64.2756 90.7262L64.0537 90.2749L64.5531 90.4703L64.775 90.9216L64.2756 90.7262Z" fill="#C58100"/>
<path d="M61.7969 50.7142L61.8673 50.6085C58.6524 50.7173 56.1409 52.4393 54.4754 55.3178L67.8445 61.2099C64.5571 54.8923 61.8361 50.7732 61.7969 50.7142Z" fill="#C58100"/>
<path d="M77.9369 89.4199C78.2803 91.4411 78.5106 93.4827 78.6267 95.5357L86.5278 83.0652L86.6343 83.2149C86.6466 81.3142 86.4133 79.4275 85.94 77.5999C85.7507 76.8828 85.5446 76.1734 85.3218 75.4719L77.8244 88.7841C77.8623 88.9963 77.9014 89.2091 77.9369 89.4199Z" fill="#C58100"/>
<path d="M68.1361 61.4521L54.6277 55.8366L54.61 55.6507C53.3425 57.8114 52.5418 60.597 52.2712 63.8164L72.1007 69.9057C70.7936 66.823 69.4261 63.9659 68.1361 61.4521Z" fill="#C58100"/>
<path d="M28.4681 86.9159C26.3015 88.0524 24.4398 89.6902 23.0571 91.6761C22.9931 91.7734 22.9327 91.8711 22.8727 91.969C23.6925 91.9361 28.5037 91.7743 35.1511 92.1767L28.4681 86.9159Z" fill="#C58100"/>
<path d="M45.3342 94.4247L29.2835 108.168L29.108 108.09C30.9357 109.434 32.897 110.589 34.9622 111.538L52.4586 95.8422C49.9789 95.2568 47.5752 94.7925 45.3342 94.4247Z" fill="#C58100"/>
<path d="M54.4625 95.8024C53.8466 95.6263 53.2341 95.4577 52.6252 95.2968L35.1328 111.285L34.9519 111.203C35.6962 111.564 36.4662 111.911 37.2618 112.242L37.0803 112.161L54.4625 95.8024Z" fill="#C58100"/>
<path d="M70.0268 101.72C67.9962 100.701 65.8963 99.8042 63.7384 99.0347L46.0807 114.694C48.1772 114.824 50.2892 114.818 52.4025 114.676L52.2147 114.59L70.0268 101.72Z" fill="#C58100"/>
<path d="M22.9688 92.2436L22.9173 92.1234C21.4013 94.9522 21.5586 98.0864 23.0863 101.145L34.5912 92.9639C27.7716 92.2267 23.0367 92.2432 22.9688 92.2436Z" fill="#C58100"/>
<path d="M35.7928 92.8215L23.4344 101.506L23.2642 101.421C24.4242 103.69 26.3832 105.892 29.0114 107.869L45.2937 93.9544C41.9061 93.421 38.6798 93.0619 35.7928 92.8215Z" fill="#C58100"/>
<path d="M63.1571 98.5867C60.5084 97.5536 57.8061 96.6638 55.0618 95.9213L37.536 112.172C38.6013 112.589 39.7103 112.975 40.863 113.33C42.5162 113.823 44.211 114.164 45.9262 114.349L63.1642 98.5995L63.1571 98.5867Z" fill="#C58100"/>
<path d="M20.613 57.0198C23.2077 58.2018 26.0826 59.6088 29.0561 61.234L22.6234 49.5472L22.7906 49.5585C20.4367 49.2465 18.0649 49.2742 15.7451 49.6406L15.9062 49.6414L20.613 57.0198Z" fill="#F4D597"/>
<path d="M15.4221 49.8378C13.2497 50.1228 11.2323 50.9934 9.55857 52.368C9.47992 52.4367 9.40429 52.5072 9.32901 52.5779C10.0604 52.8458 14.3461 54.4476 20.1246 57.2529L15.4221 49.8378Z" fill="#F4D597"/>
<path d="M43.5521 69.7942C44.1529 70.2374 44.7386 70.684 45.3093 71.1338L42.5301 55.9865L42.7256 56.0296C41.6545 55.3862 40.5669 54.7872 39.4628 54.2326L43.6424 69.8105L43.5521 69.7942Z" fill="#F4D597"/>
<path d="M38.0999 66.1622L32.8217 51.458L33.0162 51.4822C29.8171 50.4299 26.4809 49.7559 23.0771 49.4742L29.7076 61.5817C32.6942 63.0475 35.4917 64.5743 38.0999 66.1622Z" fill="#F4D597"/>
<path d="M9.95979 69.4048L9.81152 69.2656C11.204 71.2465 12.7795 73.0877 14.5143 74.7612L35.9446 65.3762C33.7044 63.917 31.5036 62.6048 29.4333 61.4461L9.95979 69.4048Z" fill="#F4D597"/>
<path d="M14.9843 74.6138L14.8379 74.4795C15.4337 75.054 16.058 75.6224 16.7109 76.1846L16.5635 76.0512L37.5818 66.4605C37.0535 66.0994 36.5263 65.7464 36.0002 65.4017L14.9843 74.6138Z" fill="#F4D597"/>
<path d="M42.9737 69.4388L38.6474 54.4961L38.8266 54.5359C36.9497 53.5134 35.0111 52.6189 33.0242 51.8585L38.4163 66.1508C40.017 67.2279 41.5362 68.3239 42.9737 69.4388Z" fill="#F4D597"/>
<path d="M45.2631 71.6541L23.8994 81.4258C25.8301 82.2312 27.817 82.9069 29.8466 83.4483L29.6962 83.3032L50.3557 76.3371C48.7576 74.6747 47.057 73.1109 45.2631 71.6541Z" fill="#F4D597"/>
<path d="M8.87422 52.7204L8.86006 52.5873C6.50034 54.8182 5.69894 57.8962 6.27293 61.3539L20.1249 57.252C13.6194 54.2893 8.94139 52.7425 8.87422 52.7204Z" fill="#F4D597"/>
<path d="M46.0433 71.8859C47.669 73.2216 49.217 74.6455 50.6803 76.1512L48.7486 61.4915L48.9345 61.5386C47.6767 60.0678 46.2296 58.765 44.628 57.6615C43.9966 57.2308 43.3569 56.8168 42.7089 56.4196L45.5284 71.4686C45.7005 71.6076 45.8741 71.7463 46.0433 71.8859Z" fill="#F4D597"/>
<path d="M29.3956 61.0383C26.3524 59.4365 23.4096 58.0541 20.7523 56.8946L6.48484 61.2619L6.34936 61.1253C6.77032 63.6778 7.96657 66.4227 9.8624 69.1665L29.3956 61.0383Z" fill="#F4D597"/>
<path d="M24.113 80.8145L45.3249 71.1242L45.3222 71.1102C43.1588 69.3696 40.8993 67.7475 38.5536 66.2507L16.9121 76.3252C17.7817 77.0269 18.7023 77.7121 19.6741 78.3807C21.0727 79.3252 22.5584 80.1398 24.113 80.8145Z" fill="#F4D597"/>
<path d="M74.5461 56.8496L74.6742 56.9659C72.9717 55.2111 71.0294 53.7053 68.9047 52.493L69.0348 52.5973L67.9605 61.2871C69.2814 63.8642 70.6805 66.7942 72.0149 69.9552L74.5461 56.8496Z" fill="#F4D597"/>
<path d="M69.2621 52.841C67.2544 51.7591 64.9639 51.2041 62.6047 51.2277C62.491 51.2318 62.3785 51.2391 62.2661 51.2468C62.6862 51.881 65.125 55.6213 67.9593 61.1435L69.2621 52.841Z" fill="#F4D597"/>
<path d="M77.6911 85.5694C77.8629 86.2844 78.022 86.9924 78.1683 87.6933L85.0699 74.4931L85.1852 74.6494C84.7926 73.4856 84.3621 72.3449 83.8935 71.2273L77.7465 85.6388L77.6911 85.5694Z" fill="#F4D597"/>
<path d="M75.3102 79.2048L80.9586 64.446L81.0833 64.5831C79.4536 61.8142 77.4818 59.2593 75.2091 56.9717L72.205 70.5109C73.4158 73.4758 74.4509 76.3737 75.3102 79.2048Z" fill="#F4D597"/>
<path d="M81.1484 64.701L76.0724 79.403C76.6658 81.2986 77.18 83.155 77.615 84.9722L83.9934 70.4657L84.1134 70.6149C83.2581 68.5799 82.2675 66.6041 81.1484 64.701Z" fill="#F4D597"/>
<path d="M78.4827 106.633C78.4123 106.49 78.3393 106.344 78.2638 106.193C78.8368 102.967 79.019 99.6825 78.8066 96.4116L68.1825 92.2548C67.95 92.0382 67.7141 91.8244 67.4748 91.6134L78.7832 96.0379C78.6247 93.6852 78.3253 91.3441 77.8866 89.0271L57.3329 83.4257C57.3144 83.2995 57.295 83.1705 57.2749 83.0393L77.8023 88.6336L77.8093 88.6207C77.2604 85.8159 76.561 83.0427 75.714 80.3129L55.4387 74.9471C55.3974 74.8127 55.3555 74.6779 55.3128 74.5426L75.5888 79.9087C75.3996 79.304 75.206 78.7061 75.0079 78.1151L54.5816 72.3993C54.5311 72.2617 54.4797 72.1239 54.4275 71.986L74.8698 77.7063C74.0388 75.2603 73.1451 72.9459 72.2561 70.8238L51.8763 64.6046L51.8485 64.4117C51.8003 65.0198 51.7728 65.6444 51.7621 66.2811C50.9077 64.7786 49.9254 63.3525 48.8261 62.0187L50.9754 76.9442C52.3294 78.3936 53.5865 79.9308 54.7384 81.5456C54.8756 81.8519 55.0166 82.1581 55.1648 82.4643L55.4157 82.5327C55.5155 82.6829 55.6144 82.8332 55.7114 82.9838L55.3777 82.8928C55.4657 83.0689 55.5569 83.2449 55.6483 83.4208C54.2206 81.1683 52.5842 79.0552 50.7606 77.1094L30.3418 83.8532C31.805 84.269 33.297 84.6327 34.7915 84.9516C32.5345 85.4518 30.3554 86.2539 28.3129 87.3362L28.4712 87.2822L35.2619 92.851C38.1557 93.1168 41.3907 93.5057 44.7868 94.0733L35.1691 85.0313C35.355 85.07 35.5409 85.108 35.7267 85.1454L45.3197 94.1643C48.5003 94.7108 51.5294 95.3639 54.407 96.1239L46.9723 86.7193C47.1218 86.7324 47.2703 86.7451 47.4178 86.7575L54.9329 96.2638C56.8489 96.7814 58.6895 97.3454 60.4548 97.9556L53.2339 87.1098C53.3761 87.1151 53.5157 87.1201 53.6525 87.1247L60.9497 98.0852L60.8611 98.0953C61.5592 98.3409 62.2444 98.5937 62.9168 98.8539L56.3927 87.1844C56.5394 87.1857 56.6749 87.1865 56.7991 87.1869L63.436 99.0584C63.6439 99.1406 63.853 99.2222 64.0584 99.3058C66.0291 100.104 67.955 101.009 69.8276 102.017L69.2897 100.923C69.5542 101.187 69.8157 101.446 70.0743 101.699L70.3801 102.321C70.6574 102.475 70.9303 102.632 71.2012 102.789C71.5134 103.087 71.8189 103.376 72.1175 103.656C71.4975 103.272 70.8674 102.902 70.227 102.544L52.8968 115.274C65.5864 114.799 79.0708 110.277 79.9282 109.985C79.2802 109.282 78.5968 108.608 77.8843 107.961C77.9107 107.853 77.9358 107.744 77.9611 107.636C78.0471 107.713 78.1342 107.789 78.2191 107.866C78.2059 107.923 78.1938 107.98 78.1803 108.037C78.2081 107.997 78.2371 107.955 78.2674 107.911C78.7666 108.367 79.2463 108.832 79.7065 109.305C79.5036 108.822 79.1853 108.094 78.7532 107.191C81.1273 103.6 86.9561 93.7447 86.9361 83.5624L79.0775 96.4214C79.304 99.8373 79.1041 103.268 78.4827 106.633ZM64.2756 90.7262L64.0537 90.2749L64.5531 90.4703L64.775 90.9216L64.2756 90.7262Z" fill="#F4D597"/>
<path d="M61.7969 50.7142L61.8673 50.6085C58.6524 50.7173 56.1409 52.4393 54.4754 55.3178L67.8445 61.2099C64.5571 54.8923 61.8361 50.7732 61.7969 50.7142Z" fill="#F4D597"/>
<path d="M77.9369 89.4199C78.2803 91.4411 78.5106 93.4827 78.6267 95.5357L86.5278 83.0652L86.6343 83.2149C86.6466 81.3142 86.4133 79.4275 85.94 77.5999C85.7507 76.8828 85.5446 76.1734 85.3218 75.4719L77.8244 88.7841C77.8623 88.9963 77.9014 89.2091 77.9369 89.4199Z" fill="#F4D597"/>
<path d="M68.1361 61.4521L54.6277 55.8366L54.61 55.6507C53.3425 57.8114 52.5418 60.597 52.2712 63.8164L72.1007 69.9057C70.7936 66.823 69.4261 63.9659 68.1361 61.4521Z" fill="#F4D597"/>
<path d="M28.4681 86.9159C26.3015 88.0524 24.4398 89.6902 23.0571 91.6761C22.9931 91.7734 22.9327 91.8711 22.8727 91.969C23.6925 91.9361 28.5037 91.7743 35.1511 92.1767L28.4681 86.9159Z" fill="#F4D597"/>
<path d="M45.3342 94.4247L29.2835 108.168L29.108 108.09C30.9357 109.434 32.897 110.589 34.9622 111.538L52.4586 95.8422C49.9789 95.2568 47.5752 94.7925 45.3342 94.4247Z" fill="#F4D597"/>
<path d="M54.4625 95.8024C53.8466 95.6263 53.2341 95.4577 52.6252 95.2968L35.1328 111.285L34.9519 111.203C35.6962 111.564 36.4662 111.911 37.2618 112.242L37.0803 112.161L54.4625 95.8024Z" fill="#F4D597"/>
<path d="M70.0268 101.72C67.9962 100.701 65.8963 99.8042 63.7384 99.0347L46.0807 114.694C48.1772 114.824 50.2892 114.818 52.4025 114.676L52.2147 114.59L70.0268 101.72Z" fill="#F4D597"/>
<path d="M22.9688 92.2436L22.9173 92.1234C21.4013 94.9522 21.5586 98.0864 23.0863 101.145L34.5912 92.9639C27.7716 92.2267 23.0367 92.2432 22.9688 92.2436Z" fill="#F4D597"/>
<path d="M35.7928 92.8215L23.4344 101.506L23.2642 101.421C24.4242 103.69 26.3832 105.892 29.0114 107.869L45.2937 93.9544C41.9061 93.421 38.6798 93.0619 35.7928 92.8215Z" fill="#F4D597"/>
<path d="M63.1571 98.5867C60.5084 97.5536 57.8061 96.6638 55.0618 95.9213L37.536 112.172C38.6013 112.589 39.7103 112.975 40.863 113.33C42.5162 113.823 44.211 114.164 45.9262 114.349L63.1642 98.5995L63.1571 98.5867Z" fill="#F4D597"/>
<path d="M168.803 82.1886C168.803 82.1886 184.691 98.3194 145.609 106.922C145.609 106.922 141.592 90.8092 152.983 81.4183C155.195 79.5857 158.002 78.628 160.873 78.7267C163.744 78.8254 166.479 79.9736 168.56 81.9538L168.803 82.1886Z" fill="#F4D597"/>
<path d="M168.646 81.8945C168.646 81.8945 149.432 90.0873 145.609 106.922" stroke="#D7A84C" stroke-miterlimit="10"/>
<path d="M144.572 107.342C144.572 107.342 155.563 88.8625 152.33 72.3683C150.972 65.4467 151.769 58.2673 154.835 51.9142C156.296 48.899 158.03 46.0241 160.015 43.3257" stroke="#D7A84C" stroke-miterlimit="10"/>
<path d="M158.046 32.9339C157.42 35.3841 160.044 43.61 160.044 43.61C160.044 43.61 166.293 37.6405 166.917 35.1998C167.081 34.6124 167.127 33.998 167.051 33.3927C166.975 32.7874 166.778 32.2034 166.473 31.6751C166.168 31.1468 165.76 30.6848 165.274 30.3163C164.788 29.9477 164.233 29.6801 163.642 29.5291C163.051 29.3781 162.436 29.3468 161.832 29.437C161.229 29.5272 160.65 29.7371 160.128 30.0544C159.607 30.3716 159.155 30.7898 158.798 31.2844C158.441 31.779 158.186 32.34 158.049 32.9345L158.046 32.9339Z" fill="#E9C278"/>
<path d="M147.242 44.6252C148.048 47.0218 154.723 52.5088 154.723 52.5088C154.723 52.5088 156.724 44.1017 155.918 41.705C155.509 40.5831 154.677 39.6654 153.601 39.1478C152.525 38.6301 151.289 38.5535 150.158 38.9342C149.026 39.3149 148.087 40.1228 147.543 41.1855C146.998 42.2483 146.891 43.4818 147.243 44.6228L147.242 44.6252Z" fill="#E9C278"/>
<path d="M141.643 67.8899C143.549 69.551 152.079 70.9194 152.079 70.9194C152.079 70.9194 149.563 62.6522 147.657 60.9911C146.739 60.2216 145.555 59.843 144.36 59.9365C143.166 60.03 142.055 60.5882 141.268 61.4912C140.48 62.3943 140.078 63.5702 140.148 64.7664C140.217 65.9626 140.753 67.0838 141.64 67.8893L141.643 67.8899Z" fill="#E9C278"/>
<path d="M141.368 86.4461C142.965 88.4042 151.144 91.1952 151.144 91.1952C151.144 91.1952 150.061 82.623 148.465 80.6625C148.087 80.1911 147.619 79.7991 147.089 79.5093C146.559 79.2195 145.977 79.0375 145.376 78.9738C144.775 78.9101 144.167 78.966 143.588 79.1383C143.009 79.3106 142.47 79.5958 142.001 79.9775C141.533 80.3592 141.145 80.8299 140.859 81.3623C140.574 81.8948 140.396 82.4785 140.337 83.0799C140.279 83.6812 140.339 84.2883 140.516 84.866C140.693 85.4438 140.983 85.9808 141.368 86.4461Z" fill="#E9C278"/>
<path d="M163.914 55.3623C161.722 56.6195 153.085 56.2963 153.085 56.2963C153.085 56.2963 157.165 48.6799 159.358 47.4202C159.88 47.104 160.46 46.8953 161.064 46.8065C161.667 46.7177 162.283 46.7505 162.874 46.9031C163.465 47.0557 164.019 47.3248 164.505 47.6948C164.99 48.0648 165.397 48.5282 165.7 49.0576C166.004 49.587 166.199 50.1718 166.273 50.7775C166.348 51.3833 166.3 51.9979 166.133 52.585C165.967 53.1722 165.684 53.7201 165.303 54.1965C164.922 54.6729 164.449 55.0683 163.912 55.3593L163.914 55.3623Z" fill="#E9C278"/>
<path d="M163.317 77.0589C160.848 77.6023 152.707 74.7117 152.707 74.7117C152.707 74.7117 158.88 68.6642 161.349 68.1208C162.524 67.8862 163.744 68.1216 164.748 68.7766C165.751 69.4316 166.458 70.454 166.716 71.6241C166.974 72.7943 166.762 74.0189 166.128 75.0352C165.493 76.0514 164.485 76.7782 163.32 77.0595L163.317 77.0589Z" fill="#E9C278"/>
<path d="M159.844 98.0691C157.504 99.0216 148.988 97.5476 148.988 97.5476C148.988 97.5476 154.051 90.543 156.393 89.5911C157.515 89.1445 158.769 89.1594 159.88 89.6326C160.991 90.1058 161.87 90.999 162.326 92.1175C162.781 93.236 162.776 94.4892 162.312 95.6041C161.848 96.719 160.961 97.6052 159.847 98.0697L159.844 98.0691Z" fill="#E9C278"/>
<path opacity="0.25" d="M158.046 32.9339C157.42 35.3841 160.044 43.61 160.044 43.61C160.044 43.61 166.293 37.6405 166.917 35.1998C167.081 34.6124 167.127 33.998 167.051 33.3927C166.975 32.7874 166.778 32.2034 166.473 31.6751C166.168 31.1468 165.76 30.6848 165.274 30.3163C164.788 29.9477 164.233 29.6801 163.642 29.5291C163.051 29.3781 162.436 29.3468 161.832 29.437C161.229 29.5272 160.65 29.7371 160.128 30.0544C159.607 30.3716 159.155 30.7898 158.798 31.2844C158.441 31.779 158.186 32.34 158.049 32.9345L158.046 32.9339Z" fill="#E9C278"/>
<path opacity="0.25" d="M147.242 44.6252C148.048 47.0218 154.723 52.5088 154.723 52.5088C154.723 52.5088 156.724 44.1017 155.918 41.705C155.509 40.5831 154.677 39.6654 153.601 39.1478C152.525 38.6301 151.289 38.5535 150.158 38.9342C149.026 39.3149 148.087 40.1228 147.543 41.1855C146.998 42.2483 146.891 43.4818 147.243 44.6228L147.242 44.6252Z" fill="#E9C278"/>
<path opacity="0.25" d="M141.643 67.8899C143.549 69.551 152.079 70.9194 152.079 70.9194C152.079 70.9194 149.563 62.6522 147.657 60.9911C146.739 60.2216 145.555 59.843 144.36 59.9365C143.166 60.03 142.055 60.5882 141.268 61.4912C140.48 62.3943 140.078 63.5702 140.148 64.7664C140.217 65.9626 140.753 67.0838 141.64 67.8893L141.643 67.8899Z" fill="#E9C278"/>
<path opacity="0.25" d="M141.368 86.4461C142.965 88.4042 151.144 91.1952 151.144 91.1952C151.144 91.1952 150.061 82.623 148.465 80.6625C148.087 80.1911 147.619 79.7991 147.089 79.5093C146.559 79.2195 145.977 79.0375 145.376 78.9738C144.775 78.9101 144.167 78.966 143.588 79.1383C143.009 79.3106 142.47 79.5958 142.001 79.9775C141.533 80.3592 141.145 80.8299 140.859 81.3623C140.574 81.8948 140.396 82.4785 140.337 83.0799C140.279 83.6812 140.339 84.2883 140.516 84.866C140.693 85.4438 140.983 85.9808 141.368 86.4461Z" fill="#E9C278"/>
<path opacity="0.25" d="M163.914 55.3623C161.722 56.6195 153.085 56.2963 153.085 56.2963C153.085 56.2963 157.165 48.6799 159.358 47.4202C159.88 47.104 160.46 46.8953 161.064 46.8065C161.667 46.7177 162.283 46.7505 162.874 46.9031C163.465 47.0557 164.019 47.3248 164.505 47.6948C164.99 48.0648 165.397 48.5282 165.7 49.0576C166.004 49.587 166.199 50.1718 166.273 50.7775C166.348 51.3833 166.3 51.9979 166.133 52.585C165.967 53.1722 165.684 53.7201 165.303 54.1965C164.922 54.6729 164.449 55.0683 163.912 55.3593L163.914 55.3623Z" fill="#E9C278"/>
<path opacity="0.25" d="M163.317 77.0589C160.848 77.6023 152.707 74.7117 152.707 74.7117C152.707 74.7117 158.88 68.6642 161.349 68.1208C162.524 67.8862 163.744 68.1216 164.748 68.7766C165.751 69.4316 166.458 70.454 166.716 71.6241C166.974 72.7943 166.762 74.0189 166.128 75.0352C165.493 76.0514 164.485 76.7782 163.32 77.0595L163.317 77.0589Z" fill="#E9C278"/>
<path opacity="0.25" d="M159.844 98.0691C157.504 99.0216 148.988 97.5476 148.988 97.5476C148.988 97.5476 154.051 90.543 156.393 89.5911C157.515 89.1445 158.769 89.1594 159.88 89.6326C160.991 90.1058 161.87 90.999 162.326 92.1175C162.781 93.236 162.776 94.4892 162.312 95.6041C161.848 96.719 160.961 97.6052 159.847 98.0697L159.844 98.0691Z" fill="#E9C278"/>
</svg>
