<svg width="32" height="32" viewBox="0 0 32 32" fill="none" xmlns="http://www.w3.org/2000/svg">
<path opacity="0.3" d="M26 7.53302C25.6267 7.53302 25.3334 7.82635 25.3334 8.19969V15.9997H22.6667V4.55969C22.6667 4.18635 22.3734 3.89302 22 3.89302C21.6267 3.89302 21.3334 4.18635 21.3334 4.55969V15.9997H18.6667V3.34635C18.6667 2.97302 18.3734 2.67969 18 2.67969C17.6267 2.67969 17.3334 2.97302 17.3334 3.34635V15.9997H14.6667V6.38635C14.6667 6.01302 14.3734 5.71969 14 5.71969C13.6267 5.71969 13.3334 6.02635 13.3334 6.38635V23.5464L6.20002 19.773L5.52002 20.373L13.3334 28.5063C13.84 29.0263 14.5334 29.333 15.2534 29.333H24C25.4667 29.333 26.6667 28.133 26.6667 26.6663V8.19969C26.6667 7.82635 26.3734 7.53302 26 7.53302Z" fill="#0094FF"/>
<path d="M25.9999 4.867C25.7733 4.867 25.5466 4.89367 25.3333 4.93367V4.56034C25.3333 2.72034 23.8399 1.22701 21.9999 1.22701C21.5599 1.22701 21.1333 1.30701 20.7466 1.46701C20.1466 0.587005 19.1333 0.0136719 17.9999 0.0136719C16.2399 0.0136719 14.7866 1.38701 14.6799 3.12034C14.4666 3.08034 14.2399 3.05367 13.9999 3.05367C12.1599 3.05367 10.6666 4.547 10.6666 6.387V19.1203L7.45326 17.4137C6.47993 16.8937 5.2666 17.0403 4.43993 17.7737L1.67993 20.2137L11.4133 30.3603C12.4133 31.4003 13.8133 32.0003 15.2666 32.0003H23.9999C26.9466 32.0003 29.3333 29.6137 29.3333 26.667V8.20034C29.3333 6.36034 27.8399 4.867 25.9999 4.867ZM26.6666 26.667C26.6666 28.1337 25.4666 29.3337 23.9999 29.3337H15.2666C14.5466 29.3337 13.8399 29.0403 13.3466 28.507L5.53326 20.3603L6.21326 19.7603L13.3333 23.547V6.387C13.3333 6.01367 13.6266 5.72034 13.9999 5.72034C14.3733 5.72034 14.6666 6.027 14.6666 6.387V16.0003H17.3333V3.347C17.3333 2.97367 17.6266 2.68034 17.9999 2.68034C18.3733 2.68034 18.6666 2.97367 18.6666 3.347V16.0003H21.3333V4.56034C21.3333 4.18701 21.6266 3.89367 21.9999 3.89367C22.3733 3.89367 22.6666 4.18701 22.6666 4.56034V16.0003H25.3333V8.20034C25.3333 7.827 25.6266 7.53367 25.9999 7.53367C26.3733 7.53367 26.6666 7.827 26.6666 8.20034V26.667Z" fill="#0094FF"/>
</svg>
