<svg width="690" height="625" viewBox="0 0 690 625" fill="none" xmlns="http://www.w3.org/2000/svg">
<path d="M260.573 384.98L261.293 386.212L264.852 384.132L267.23 388.201L263.671 390.281L264.393 391.517L272.556 386.747L271.834 385.511L268.287 387.584L265.909 383.515L269.456 381.442L268.736 380.21L260.573 384.98ZM266.804 395.926C267.584 397.261 268.794 397.821 269.949 397.51L269.493 396.263C268.789 396.386 268.191 396.04 267.795 395.362C267.199 394.342 267.46 393.27 268.621 392.549L271.165 396.901L271.587 396.654C273.799 395.361 273.891 393.533 273.08 392.146C272.083 390.44 270.127 390.075 268.246 391.174C266.345 392.285 265.749 394.12 266.804 395.926ZM269.516 392.031C270.413 391.571 271.535 391.76 272.1 392.729C272.641 393.654 272.309 394.66 271.375 395.211L269.516 392.031ZM274.102 392.137L274.484 391.913C274.793 392.295 275.265 392.58 275.784 392.271C276.436 391.896 276.474 391.018 275.771 389.814L275.092 390.163C275.367 390.633 275.472 391.069 275.183 391.233C274.946 391.376 274.703 391.235 274.347 390.689L273.552 391.196L274.102 392.137ZM269.235 399.803L269.931 400.994L273.706 398.789C274.531 398.306 275.443 398.549 275.839 399.227C276.225 399.888 276.055 400.603 275.389 400.992L271.319 403.37L272.014 404.558L275.916 402.277C276.653 401.846 277.45 401.985 277.905 402.762C278.273 403.392 278.225 404.115 277.396 404.599L273.402 406.933L274.098 408.125L278.204 405.726C279.603 404.908 279.844 403.72 279.196 402.611C278.681 401.731 277.872 401.316 277.046 401.403L277.009 401.339C277.523 400.681 277.601 399.881 277.123 399.064C276.65 398.255 275.896 397.888 275.073 398.027L275.029 397.951L276.026 397.369L275.357 396.225L269.235 399.803ZM278.221 415.436C279.181 417.079 281.025 417.573 282.613 416.639C284.194 415.721 284.699 413.95 283.83 412.463C283.476 411.857 282.917 411.431 282.419 411.293L282.391 411.246L284.827 410.17L286.851 413.634L287.907 413.017L285.284 408.528L280.903 410.474L281.395 411.7C281.849 411.846 282.358 412.286 282.647 412.781C283.205 413.754 282.889 414.879 281.893 415.462C280.912 416.034 279.805 415.768 279.257 414.831C278.796 414.042 278.933 413.122 279.597 412.649L278.898 411.453C277.627 412.26 277.345 413.938 278.221 415.436ZM282.374 422.544C283.348 424.21 285.06 424.852 286.412 424.056C287.447 423.456 287.823 422.397 287.357 421.215L287.42 421.178C288.138 421.903 289.131 422.066 290.046 421.526C291.248 420.829 291.697 419.246 290.779 417.675C289.904 416.177 288.295 415.502 286.945 416.238L287.641 417.429C288.407 417.019 289.273 417.459 289.742 418.26C290.228 419.094 290.041 419.935 289.286 420.372C288.499 420.837 287.61 420.506 287.082 419.601L286.679 418.911L285.674 419.498L286.077 420.188C286.739 421.32 286.547 422.309 285.726 422.789C284.932 423.252 283.991 422.877 283.43 421.917C282.913 421.032 282.964 420.077 283.662 419.605L282.931 418.353C281.63 419.183 281.41 420.894 282.374 422.544ZM294.914 424.75C293.928 423.027 292.042 422.627 290.495 423.531C288.939 424.445 288.474 426.23 289.301 427.645C289.807 428.51 290.662 429.004 291.592 429.022L291.63 429.086C289.75 430.179 288.242 430.114 287.543 428.918C287.086 428.137 287.271 427.355 287.876 426.788L287.165 425.573C285.951 426.523 285.614 428.088 286.467 429.547C287.575 431.445 289.9 431.68 292.758 430.01C295.737 428.263 295.752 426.212 294.914 424.75ZM293.88 425.36C294.432 426.305 294.038 427.47 293.141 427.994C292.235 428.529 291.007 428.258 290.462 427.325C289.914 426.388 290.268 425.273 291.21 424.717C292.159 424.163 293.332 424.423 293.88 425.36Z" fill="#8A8A8A"/>
<path d="M147.925 456.595L148.272 457.979L152.271 456.977L153.417 461.549L149.418 462.551L149.766 463.939L158.937 461.641L158.589 460.253L154.603 461.252L153.458 456.68L157.443 455.681L157.097 454.297L147.925 456.595ZM150.848 468.846C151.223 470.346 152.228 471.223 153.424 471.247L153.335 469.922C152.625 469.843 152.148 469.344 151.957 468.583C151.67 467.436 152.22 466.48 153.537 466.112L154.762 471.002L155.237 470.883C157.722 470.26 158.321 468.53 157.931 466.972C157.45 465.055 155.674 464.158 153.561 464.688C151.424 465.223 150.339 466.818 150.848 468.846ZM154.541 465.865C155.531 465.674 156.554 466.169 156.827 467.258C157.087 468.297 156.487 469.17 155.436 469.438L154.541 465.865ZM158.914 467.249L159.344 467.141C159.533 467.593 159.906 467.999 160.492 467.848C161.223 467.67 161.505 466.838 161.166 465.485L160.417 465.63C160.549 466.158 160.528 466.606 160.205 466.683C159.937 466.754 159.743 466.551 159.554 465.927L158.649 466.192L158.914 467.249ZM152.098 473.248L152.433 474.587L156.674 473.524C157.601 473.292 158.409 473.78 158.599 474.541C158.786 475.285 158.422 475.923 157.674 476.11L153.102 477.256L153.437 478.59L157.821 477.492C158.649 477.284 159.376 477.64 159.595 478.513C159.772 479.221 159.524 479.902 158.592 480.135L154.105 481.259L154.441 482.598L159.053 481.443C160.625 481.049 161.189 479.975 160.877 478.73C160.629 477.74 159.968 477.116 159.15 476.968L159.133 476.897C159.81 476.408 160.108 475.662 159.878 474.744C159.65 473.835 159.029 473.272 158.2 473.175L158.179 473.09L159.298 472.81L158.976 471.525L152.098 473.248ZM156.355 490.771C156.818 492.616 158.45 493.606 160.236 493.154C162.011 492.714 162.991 491.155 162.572 489.484C162.401 488.804 161.984 488.237 161.544 487.967L161.531 487.913L164.17 487.561L165.145 491.452L166.332 491.155L165.068 486.113L160.318 486.756L160.447 488.07C160.843 488.338 161.208 488.903 161.347 489.458C161.611 490.549 160.993 491.541 159.874 491.821C158.772 492.097 157.783 491.531 157.52 490.479C157.297 489.592 157.685 488.748 158.456 488.479L158.119 487.135C156.673 487.555 155.933 489.087 156.355 490.771ZM167.742 496.252C167.277 494.322 165.578 493.411 163.841 493.846C162.091 494.289 161.146 495.873 161.544 497.462C161.788 498.434 162.471 499.148 163.359 499.425L163.377 499.497C161.267 500.021 159.837 499.537 159.5 498.194C159.28 497.316 159.676 496.617 160.415 496.242L160.073 494.876C158.641 495.449 157.88 496.858 158.291 498.497C158.825 500.628 160.991 501.504 164.202 500.699C167.55 499.855 168.138 497.89 167.742 496.252ZM166.579 496.548C166.845 497.61 166.141 498.619 165.133 498.871C164.114 499.132 163.01 498.528 162.748 497.48C162.484 496.427 163.135 495.455 164.195 495.185C165.261 494.918 166.315 495.496 166.579 496.548ZM169.733 504.73L169.395 503.382L167.326 501.469L166.001 501.801L167.984 503.636L167.997 503.69L160.214 505.64L160.562 507.028L169.733 504.73Z" fill="#8A8A8A"/>
<path d="M306.171 379.267L309.848 376.943C311.781 375.721 312.173 374.061 311.307 372.691C310.502 371.418 309.104 371.225 308.096 371.798L308.043 371.714C308.81 370.946 309.069 369.895 308.429 368.882C307.613 367.592 306.076 367.281 304.176 368.482L300.73 370.66L306.171 379.267ZM307.05 376.629L305.605 374.343L307.13 373.379C308.004 372.826 308.865 372.988 309.314 373.698C309.723 374.345 309.55 375.048 308.533 375.691L307.05 376.629ZM304.827 373.112L303.48 370.981L304.862 370.107C305.669 369.597 306.39 369.723 306.783 370.345C307.214 371.026 306.919 371.789 306.176 372.259L304.827 373.112ZM313.961 374.343L315.751 373.211L311.671 366.756L309.881 367.888L313.961 374.343ZM309.632 366.88L310.897 366.081L308.793 364.734L307.142 365.778L309.632 366.88ZM316.617 367.441C316.095 366.606 316.283 365.806 317.005 365.349C317.724 364.894 318.454 365.091 318.95 365.884L321.346 369.675L323.136 368.543L320.538 364.433C319.587 362.929 318.12 362.562 316.775 363.412C315.817 364.018 315.421 364.927 315.607 365.862L315.531 365.91L314.811 364.771L313.105 365.85L317.185 372.305L318.975 371.173L316.617 367.441ZM323.978 362.788C323.457 361.953 323.657 361.144 324.388 360.682C325.115 360.223 325.839 360.418 326.336 361.215L328.733 365.006L330.523 363.874L327.925 359.764C326.973 358.248 325.503 357.895 324.158 358.746C323.179 359.364 322.815 360.241 323.002 361.188L322.926 361.235L320.846 357.945L319.107 359.045L324.547 367.651L326.337 366.52L323.978 362.788ZM334.024 352.627L332.809 353.395L331.832 351.848L330.042 352.98L331.019 354.526L330.137 355.084L330.987 356.429L331.869 355.871L333.994 359.233C334.785 360.503 336.043 360.585 337.307 359.709C337.758 359.4 338.028 359.101 338.171 358.928L337.048 357.774C336.97 357.846 336.807 358.008 336.639 358.114C336.282 358.34 335.949 358.362 335.636 357.866L333.659 354.739L334.874 353.972L334.024 352.627ZM338.84 353.394C338.318 352.559 338.519 351.75 339.25 351.288C339.977 350.828 340.701 351.024 341.198 351.821L343.594 355.611L345.385 354.48L342.787 350.37C341.835 348.854 340.365 348.501 339.02 349.351C338.041 349.97 337.677 350.847 337.864 351.794L337.788 351.841L335.708 348.551L333.969 349.651L339.409 358.257L341.199 357.126L338.84 353.394ZM348.173 343.154C348.558 343.763 348.775 344.274 348.648 344.706C347.686 344.403 346.615 344.551 345.577 345.207C343.618 346.445 343.244 348.551 344.509 350.552C345.765 352.539 347.831 353.11 349.79 351.872C351.748 350.634 352.119 348.523 350.863 346.535C350.483 345.934 350.031 345.461 349.529 345.132C349.999 344.358 349.862 343.463 349.24 342.479L348.173 343.154ZM348.922 350.48C348.018 351.051 347.032 350.515 346.321 349.389C345.609 348.263 345.545 347.138 346.449 346.567C347.335 346.007 348.323 346.547 349.035 347.673C349.747 348.799 349.808 349.919 348.922 350.48ZM344.482 344.852L345.747 344.052L343.643 342.706L341.992 343.75L344.482 344.852ZM354.271 348.863L356.061 347.731L351.981 341.276L350.191 342.408L354.271 348.863ZM350.564 341.007C351.098 340.67 351.277 339.986 350.961 339.486C350.648 338.99 349.953 338.859 349.419 339.196C348.89 339.531 348.71 340.215 349.024 340.711C349.34 341.211 350.034 341.342 350.564 341.007Z" fill="#606060"/>
<path d="M426.014 352.058L415.956 350.471L415.631 352.534L422.202 353.571L422.188 353.654L415.256 355.228L415.035 356.632L421.121 360.26L421.108 360.344L414.562 359.311L414.236 361.373L424.294 362.96L424.707 360.338L418.387 356.502L418.406 356.384L425.6 354.68L426.014 352.058ZM413.966 363.086L413.636 365.178L421.179 366.368L421.509 364.276L413.966 363.086ZM422.316 365.48C422.217 366.104 422.613 366.69 423.197 366.782C423.777 366.874 424.334 366.438 424.432 365.814C424.53 365.196 424.134 364.61 423.555 364.518C422.97 364.426 422.413 364.862 422.316 365.48ZM417.402 369.634C418.374 369.792 418.852 370.462 418.719 371.306C418.587 372.146 417.957 372.565 417.034 372.415L412.605 371.716L412.275 373.808L417.077 374.565C418.836 374.843 420.079 373.982 420.327 372.41C420.503 371.291 420.081 370.394 419.255 369.916L419.269 369.828L420.6 370.038L420.915 368.044L413.372 366.854L413.042 368.946L417.402 369.634ZM416.045 378.237C417.017 378.395 417.493 379.079 417.358 379.933C417.224 380.783 416.6 381.198 415.672 381.047L411.243 380.348L410.913 382.44L415.716 383.197C417.483 383.481 418.718 382.609 418.965 381.038C419.146 379.893 418.727 379.042 417.892 378.558L417.906 378.47L421.751 379.076L422.072 377.043L412.015 375.457L411.684 377.549L416.045 378.237ZM410.142 387.326L409.806 389.452L413.067 389.967L412.785 391.754C412.42 394.067 413.588 395.631 415.597 395.948C417.595 396.263 419.213 395.164 419.573 392.881L420.199 388.913L410.142 387.326ZM414.771 390.236L418.125 390.765L417.899 392.199C417.706 393.427 416.944 393.915 415.942 393.757C414.945 393.6 414.351 392.897 414.544 391.68L414.771 390.236ZM412.766 399.021C413.738 399.179 414.214 399.863 414.079 400.717C413.945 401.567 413.321 401.982 412.394 401.831L407.964 401.132L407.634 403.224L412.437 403.981C414.204 404.265 415.439 403.393 415.687 401.822C415.867 400.677 415.448 399.826 414.613 399.342L414.627 399.254L418.472 399.86L418.793 397.827L408.736 396.241L408.406 398.333L412.766 399.021ZM409.823 410.214C408.81 410.059 408.389 409.283 408.508 408.532C408.632 407.741 409.268 407.318 410.158 407.453L414.587 408.152L414.917 406.06L410.114 405.302C408.351 405.029 407.112 405.891 406.873 407.408C406.694 408.543 407.15 409.45 407.98 409.928L407.968 410.007L406.598 409.791L406.281 411.799L413.824 412.989L414.154 410.897L409.823 410.214ZM403.95 408.2C403.851 408.824 404.247 409.41 404.832 409.502C405.411 409.593 405.968 409.158 406.066 408.534C406.164 407.915 405.768 407.33 405.189 407.238C404.604 407.146 404.047 407.582 403.95 408.2ZM410.048 416.253C411.019 416.411 411.498 417.08 411.364 417.925C411.232 418.765 410.602 419.184 409.68 419.033L405.25 418.334L404.92 420.426L409.723 421.184C411.481 421.462 412.724 420.601 412.972 419.029C413.149 417.91 412.726 417.012 411.901 416.535L411.915 416.447L413.246 416.657L413.56 414.663L406.017 413.473L405.687 415.565L410.048 416.253ZM401.138 425.003C400.798 427.158 401.538 428.846 403.468 429.15L411.085 430.352L411.413 428.274L410.146 428.074L410.158 427.996C410.816 427.813 411.664 427.318 411.863 426.055C412.124 424.4 411.059 422.798 408.49 422.393C405.981 421.997 404.597 423.173 404.329 424.872C404.14 426.075 404.637 426.843 405.218 427.217L405.204 427.305L403.824 427.087C402.788 426.924 402.49 426.197 402.633 425.289C402.779 424.365 403.255 423.962 403.739 423.863L403.784 421.887C402.556 421.95 401.459 422.969 401.138 425.003ZM405.796 425.783C405.958 424.756 406.862 424.325 408.163 424.53C409.445 424.733 410.257 425.424 410.093 426.461C409.933 427.477 408.984 427.911 407.663 427.703C406.332 427.493 405.637 426.789 405.796 425.783Z" fill="#606060"/>
<path d="M385.148 589.269L375.09 587.682L374.765 589.745L381.336 590.781L381.323 590.865L374.39 592.439L374.169 593.843L380.255 597.471L380.242 597.555L373.696 596.522L373.37 598.584L383.428 600.171L383.842 597.549L377.521 593.713L377.54 593.595L384.734 591.891L385.148 589.269ZM373.1 600.297L372.77 602.389L380.313 603.579L380.643 601.487L373.1 600.297ZM381.45 602.691C381.352 603.315 381.747 603.901 382.332 603.993C382.911 604.085 383.468 603.649 383.567 603.025C383.664 602.407 383.268 601.821 382.689 601.729C382.104 601.637 381.548 602.073 381.45 602.691ZM376.537 606.845C377.508 607.003 377.986 607.673 377.853 608.517C377.721 609.357 377.091 609.776 376.168 609.625L371.739 608.927L371.409 611.019L376.212 611.776C377.97 612.054 379.213 611.193 379.461 609.621C379.637 608.502 379.215 607.605 378.39 607.127L378.404 607.039L379.734 607.249L380.049 605.255L372.506 604.065L372.176 606.157L376.537 606.845ZM375.18 615.447C376.151 615.606 376.627 616.29 376.492 617.144C376.358 617.994 375.734 618.409 374.807 618.258L370.377 617.559L370.047 619.651L374.85 620.408C376.617 620.692 377.852 619.82 378.1 618.249C378.28 617.104 377.861 616.253 377.026 615.769L377.04 615.681L380.885 616.287L381.206 614.254L371.149 612.667L370.819 614.76L375.18 615.447ZM369.276 624.537L368.941 626.663L372.202 627.178L371.919 628.965C371.555 631.278 372.722 632.842 374.731 633.159C376.73 633.474 378.347 632.375 378.708 630.092L379.334 626.124L369.276 624.537ZM373.906 627.447L377.26 627.976L377.033 629.41C376.84 630.638 376.078 631.126 375.076 630.968C374.079 630.811 373.486 630.108 373.678 628.89L373.906 627.447ZM371.901 636.231C372.872 636.39 373.348 637.074 373.213 637.928C373.079 638.778 372.455 639.193 371.528 639.041L367.098 638.343L366.768 640.435L371.571 641.192C373.338 641.476 374.573 640.604 374.821 639.033C375.001 637.888 374.582 637.037 373.747 636.553L373.761 636.465L377.606 637.071L377.927 635.038L367.87 633.451L367.54 635.543L371.901 636.231ZM368.957 647.425C367.945 647.27 367.523 646.494 367.642 645.743C367.767 644.952 368.402 644.529 369.292 644.664L373.721 645.363L374.051 643.271L369.249 642.513C367.485 642.24 366.247 643.102 366.007 644.619C365.828 645.754 366.284 646.661 367.115 647.139L367.102 647.218L365.732 647.002L365.415 649.01L372.958 650.2L373.288 648.108L368.957 647.425ZM363.084 645.411C362.986 646.035 363.381 646.621 363.966 646.713C364.545 646.804 365.102 646.369 365.201 645.745C365.298 645.126 364.902 644.541 364.323 644.449C363.738 644.357 363.182 644.792 363.084 645.411ZM369.182 653.464C370.154 653.622 370.632 654.291 370.499 655.136C370.366 655.976 369.736 656.395 368.814 656.244L364.384 655.545L364.054 657.637L368.857 658.395C370.615 658.672 371.858 657.812 372.106 656.24C372.283 655.12 371.861 654.223 371.035 653.746L371.049 653.657L372.38 653.867L372.694 651.874L365.151 650.684L364.821 652.776L369.182 653.464ZM360.272 662.213C359.932 664.369 360.672 666.056 362.602 666.361L370.219 667.563L370.547 665.485L369.28 665.285L369.292 665.207C369.95 665.024 370.799 664.528 370.998 663.266C371.259 661.611 370.193 660.009 367.624 659.604C365.115 659.208 363.732 660.384 363.464 662.083C363.274 663.286 363.772 664.054 364.352 664.427L364.338 664.516L362.958 664.298C361.922 664.135 361.624 663.408 361.767 662.5C361.913 661.576 362.389 661.173 362.873 661.074L362.918 659.098C361.69 659.161 360.593 660.18 360.272 662.213ZM364.93 662.994C365.092 661.967 365.996 661.536 367.297 661.741C368.579 661.944 369.391 662.635 369.227 663.672C369.067 664.688 368.118 665.122 366.797 664.914C365.466 664.704 364.772 664 364.93 662.994Z" fill="#606060"/>
<path d="M527.562 241.942L531.216 239.582C533.138 238.341 533.514 236.678 532.634 235.317C531.817 234.051 530.417 233.872 529.414 234.455L529.361 234.371C530.121 233.596 530.369 232.542 529.719 231.536C528.891 230.253 527.351 229.958 525.463 231.177L522.039 233.389L527.562 241.942ZM528.416 239.296L526.948 237.024L528.465 236.045C529.333 235.484 530.196 235.637 530.651 236.343C531.067 236.986 530.901 237.691 529.89 238.344L528.416 239.296ZM526.158 235.8L524.791 233.682L526.165 232.795C526.967 232.277 527.689 232.397 528.088 233.015C528.525 233.692 528.238 234.457 527.499 234.934L526.158 235.8ZM535.304 236.942L537.083 235.793L532.941 229.378L531.162 230.527L535.304 236.942ZM530.903 229.522L532.16 228.711L530.044 227.385L528.402 228.445L530.903 229.522ZM537.893 230.015C537.363 229.186 537.543 228.383 538.261 227.919C538.975 227.458 539.708 227.648 540.21 228.436L542.643 232.203L544.422 231.054L541.785 226.97C540.819 225.474 539.349 225.122 538.012 225.985C537.06 226.6 536.673 227.513 536.868 228.446L536.792 228.495L536.062 227.363L534.366 228.458L538.509 234.873L540.288 233.724L537.893 230.015ZM545.209 225.291C544.679 224.461 544.872 223.65 545.598 223.181C546.321 222.715 547.046 222.903 547.552 223.695L549.984 227.462L551.764 226.313L549.126 222.229C548.159 220.723 546.686 220.384 545.349 221.247C544.376 221.875 544.021 222.755 544.217 223.7L544.142 223.749L542.03 220.479L540.301 221.595L545.825 230.149L547.604 229L545.209 225.291ZM555.155 215.033L553.948 215.812L552.956 214.275L551.177 215.424L552.169 216.961L551.292 217.528L552.155 218.864L553.032 218.298L555.19 221.639C555.993 222.901 557.251 222.971 558.507 222.083C558.955 221.77 559.222 221.468 559.364 221.293L558.229 220.15C558.152 220.223 557.991 220.386 557.824 220.494C557.469 220.723 557.136 220.749 556.818 220.256L554.811 217.149L556.018 216.369L555.155 215.033ZM559.979 215.753C559.449 214.923 559.642 214.112 560.368 213.643C561.091 213.177 561.816 213.365 562.322 214.157L564.754 217.924L566.534 216.775L563.896 212.691C562.929 211.185 561.456 210.846 560.119 211.709C559.146 212.337 558.791 213.218 558.987 214.162L558.912 214.211L556.8 210.941L555.071 212.057L560.595 220.611L562.374 219.462L559.979 215.753ZM569.212 205.423C569.603 206.029 569.824 206.537 569.702 206.971C568.737 206.677 567.667 206.835 566.636 207.501C564.689 208.758 564.336 210.868 565.62 212.856C566.895 214.831 568.967 215.382 570.913 214.125C572.859 212.868 573.21 210.754 571.935 208.778C571.549 208.181 571.092 207.712 570.587 207.388C571.049 206.61 570.904 205.715 570.273 204.738L569.212 205.423ZM570.031 212.741C569.134 213.321 568.143 212.795 567.42 211.676C566.697 210.556 566.623 209.433 567.521 208.853C568.402 208.284 569.395 208.814 570.118 209.933C570.841 211.053 570.913 212.172 570.031 212.741ZM565.537 207.157L566.795 206.345L564.678 205.019L563.037 206.079L565.537 207.157ZM575.365 211.073L577.144 209.924L573.001 203.509L571.222 204.658L575.365 211.073ZM571.582 203.253C572.112 202.911 572.285 202.225 571.964 201.728C571.646 201.235 570.95 201.111 570.419 201.453C569.893 201.793 569.72 202.479 570.039 202.972C570.36 203.469 571.056 203.593 571.582 203.253Z" fill="#606060"/>
<path d="M50.1766 18.7127L50.0404 25.229L51.8148 25.2661L51.9061 20.902L60.3112 21.0778L60.3562 18.9255L50.1766 18.7127ZM49.8217 28.7886C49.7981 29.9169 50.2749 30.6578 50.9779 31.0455L50.9767 31.1051L49.9179 31.083L49.8759 33.0911L55.0254 33.1988C56.8446 33.2368 57.6423 31.712 57.6778 30.0121C57.7161 28.1829 56.8664 26.9618 55.4808 26.6394L55.2808 28.5944C55.7848 28.7492 56.1481 29.2093 56.1322 29.9698C56.1171 30.6905 55.7457 31.0955 55.1194 31.0824L55.0896 31.0818C54.5975 31.0715 54.5438 30.5482 54.4423 29.2184C54.3347 27.7044 53.8561 26.3369 52.1512 26.3012C50.6402 26.2696 49.8522 27.3322 49.8217 28.7886ZM51.2704 29.4255C51.284 28.7744 51.597 28.3135 52.1785 28.3257C52.775 28.3382 53.0579 28.8364 53.1467 29.5841C53.2017 30.0477 53.2952 30.8055 53.4589 31.0626L52.6487 31.0456C51.8485 31.0289 51.2509 30.355 51.2704 29.4255ZM47.0809 29.7805C47.0677 30.4118 47.539 30.9388 48.1305 30.9511C48.7171 30.9634 49.21 30.4566 49.2232 29.8253C49.2363 29.199 48.765 28.672 48.1785 28.6597C47.587 28.6474 47.094 29.1542 47.0809 29.7805ZM49.6203 38.1803C49.5778 40.2132 50.744 41.5156 52.4965 41.6517L52.5383 39.6535C51.7258 39.5122 51.2797 38.9658 51.2949 38.2401C51.3156 37.251 52.1591 36.6272 53.6204 36.6577C55.0618 36.6879 55.8734 37.3513 55.8528 38.3355C55.8366 39.1108 55.3143 39.5972 54.5514 39.6956L54.5096 41.6938C56.276 41.6412 57.4621 40.3283 57.5038 38.3352C57.5522 36.0189 55.9767 34.5538 53.6356 34.5049C51.3143 34.4563 49.6695 35.8292 49.6203 38.1803ZM49.6012 46.2281L49.4649 52.7445L51.2394 52.7816L51.3307 48.4175L59.7358 48.5932L59.7808 46.441L49.6012 46.2281ZM49.2147 57.5764C49.1663 59.8927 50.7217 61.3673 53.0728 61.4164C55.4387 61.4659 57.0495 60.0575 57.0979 57.7413C57.1464 55.425 55.5959 53.9505 53.2299 53.901C50.8789 53.8519 49.2632 55.2601 49.2147 57.5764ZM50.8548 57.6206C50.8771 56.552 51.8677 56.0257 53.1998 56.0536C54.5319 56.0814 55.5047 56.6488 55.4823 57.7174C55.4604 58.7662 54.4648 59.2924 53.1327 59.2645C51.8006 59.2367 50.8328 58.6694 50.8548 57.6206ZM53.626 64.9238C54.61 64.9493 55.1744 65.5479 55.1565 66.4028C55.1387 67.2528 54.5713 67.7531 53.6369 67.7286L49.1536 67.6348L49.1093 69.7523L53.9704 69.8539C55.7499 69.8912 56.8652 68.8702 56.8985 67.2797C56.9222 66.1464 56.3826 65.3146 55.5001 64.953L55.5019 64.8636L56.849 64.8917L56.8912 62.8737L49.2565 62.714L49.2122 64.8315L53.626 64.9238ZM45.9804 74.7975C45.9347 76.9796 46.8964 78.5512 48.8498 78.592L56.5591 78.7532L56.603 76.6507L55.3206 76.6239L55.3223 76.5444C55.9496 76.274 56.723 75.6686 56.7497 74.3912C56.7848 72.7161 55.5121 71.2723 52.9126 71.218C50.3726 71.1648 49.1609 72.5169 49.1249 74.2367C49.0994 75.4545 49.6966 76.1482 50.322 76.4398L50.3201 76.5293L48.9234 76.5001C47.8746 76.4781 47.4811 75.7986 47.5003 74.879C47.5198 73.9446 47.9373 73.4809 48.4032 73.3166L48.1807 71.3527C46.9726 71.5811 46.0234 72.7397 45.9804 74.7975ZM50.7014 74.941C50.7231 73.9022 51.5601 73.3528 52.8773 73.3803C54.1746 73.4075 55.0725 73.9832 55.0506 75.032C55.0291 76.0609 54.1472 76.6192 52.8101 76.5913C51.4631 76.5631 50.6801 75.96 50.7014 74.941ZM53.7147 93.0188C57.045 93.0884 58.9869 91.0604 59.0434 88.3614C59.1001 85.6475 57.2443 83.555 53.9141 83.4854C50.5988 83.416 48.6422 85.4288 48.5854 88.1427C48.5721 88.7789 48.6639 89.3826 48.8613 89.9337L47.8351 90.7327L47.7931 92.7408L49.6527 91.3227C50.5216 92.3354 51.9005 92.9808 53.7147 93.0188ZM52.2792 87.4741L50.5322 88.7404C50.501 88.5657 50.4851 88.3764 50.4891 88.1825C50.5219 86.6168 51.7113 85.6223 53.8685 85.6674C56.0257 85.7125 57.1724 86.7559 57.1397 88.3216C57.107 89.8824 55.9176 90.8819 53.7604 90.8367C52.6519 90.8136 51.8077 90.5224 51.2559 90.0385L52.241 89.3032L52.2792 87.4741ZM51.7407 99.4308C50.7167 99.4144 50.1946 98.7023 50.2105 97.9418C50.2272 97.1416 50.7997 96.6364 51.6994 96.6502L56.1828 96.744L56.2271 94.6265L51.366 94.5249C49.5815 94.4925 48.4711 95.5136 48.439 97.0495C48.415 98.1976 48.9892 99.0351 49.8767 99.3968L49.875 99.4763L48.4883 99.4473L48.4458 101.48L56.0805 101.64L56.1247 99.5225L51.7407 99.4308ZM48.2207 105.348C48.1971 106.476 48.6739 107.217 49.3769 107.605L49.3756 107.665L48.3169 107.642L48.2749 109.651L53.4243 109.758C55.2435 109.796 56.0412 108.271 56.0768 106.571C56.115 104.742 55.2654 103.521 53.8798 103.199L53.6798 105.154C54.1837 105.309 54.5471 105.769 54.5312 106.529C54.5161 107.25 54.1446 107.655 53.5183 107.642L53.4885 107.641C52.9964 107.631 52.9427 107.108 52.8412 105.778C52.7337 104.264 52.2551 102.896 50.5502 102.861C49.0391 102.829 48.2511 103.892 48.2207 105.348ZM56.9012 105.669L58.0931 106.693L56.8594 107.667L56.8217 109.471L56.8913 109.473L59.1205 107.5L59.1535 105.925L57.0085 103.866L56.939 103.864L56.9012 105.669ZM49.6693 105.985C49.6829 105.334 49.9959 104.873 50.5774 104.885C51.1739 104.898 51.4569 105.396 51.5457 106.144C51.6006 106.607 51.6942 107.365 51.8579 107.622L51.0477 107.605C50.2474 107.588 49.6499 106.914 49.6693 105.985ZM52.6101 113.503C53.5941 113.529 54.1584 114.127 54.1406 114.982C54.1228 115.832 53.5554 116.332 52.621 116.308L48.1376 116.214L48.0934 118.332L52.9545 118.433C54.7339 118.47 55.8493 117.449 55.8826 115.859C55.9062 114.726 55.3667 113.894 54.4842 113.532L54.486 113.443L55.833 113.471L55.8752 111.453L48.2405 111.293L48.1963 113.411L52.6101 113.503Z" fill="#606060"/>
<path d="M47.1348 276.851L47.1348 283.369L48.9096 283.369L48.9096 279.003L57.3166 279.003L57.3166 276.851L47.1348 276.851ZM46.9906 286.932C46.9906 288.06 47.4828 288.791 48.1937 289.164L48.1937 289.224L47.1348 289.224L47.1348 291.232L52.2853 291.232C54.1049 291.232 54.8706 289.691 54.8706 287.991C54.8706 286.161 53.9956 284.958 52.6035 284.665L52.4444 286.624C52.9515 286.768 53.3244 287.22 53.3244 287.981C53.3244 288.702 52.9615 289.114 52.335 289.114L52.3052 289.114C51.813 289.114 51.7484 288.592 51.6191 287.265C51.4799 285.754 50.9728 284.396 49.2676 284.396C47.7562 284.396 46.9906 285.475 46.9906 286.932ZM48.4522 287.538C48.4522 286.887 48.7555 286.42 49.3372 286.42C49.9338 286.42 50.2271 286.912 50.3315 287.658C50.3961 288.12 50.5055 288.876 50.6745 289.129L49.8642 289.129C49.0637 289.129 48.4522 288.468 48.4522 287.538ZM44.2711 287.981C44.2711 288.612 44.7534 289.129 45.345 289.129C45.9316 289.129 46.4139 288.612 46.4139 287.981C46.4139 287.354 45.9316 286.837 45.345 286.837C44.7534 286.837 44.2711 287.354 44.2711 287.981ZM46.9856 296.326C46.9856 298.359 48.1788 299.637 49.9338 299.736L49.9338 297.738C49.1184 297.613 48.661 297.076 48.661 296.351C48.661 295.361 49.4913 294.72 50.9529 294.72C52.3947 294.72 53.22 295.366 53.22 296.351C53.22 297.126 52.7079 297.623 51.9473 297.738L51.9473 299.736C53.7122 299.647 54.8706 298.309 54.8706 296.316C54.8706 293.999 53.2647 292.567 50.9231 292.567C48.6014 292.567 46.9856 293.974 46.9856 296.326ZM47.1348 304.372L47.1348 310.89L48.9096 310.89L48.9096 306.525L57.3166 306.525L57.3166 304.372L47.1348 304.372ZM46.9856 315.726C46.9856 318.043 48.5716 319.485 50.9231 319.485C53.2896 319.485 54.8706 318.043 54.8706 315.726C54.8706 313.409 53.2896 311.968 50.9231 311.968C48.5716 311.968 46.9856 313.409 46.9856 315.726ZM48.6262 315.736C48.6262 314.667 49.6056 314.12 50.938 314.12C52.2704 314.12 53.2548 314.667 53.2548 315.736C53.2548 316.785 52.2704 317.332 50.938 317.332C49.6056 317.332 48.6262 316.785 48.6262 315.736ZM51.5495 322.98C52.5339 322.985 53.1106 323.571 53.1106 324.426C53.1106 325.277 52.5538 325.789 51.6191 325.784L47.1348 325.784L47.1348 327.902L51.997 327.902C53.7768 327.902 54.8706 326.858 54.8706 325.267C54.8706 324.133 54.3137 323.313 53.4238 322.97L53.4238 322.88L54.7711 322.88L54.7711 320.862L47.1348 320.862L47.1348 322.98L51.5495 322.98ZM44.112 333.011C44.112 335.194 45.1064 336.745 47.0602 336.745L54.7711 336.745L54.7711 334.642L53.4885 334.642L53.4885 334.562C54.1099 334.279 54.8706 333.657 54.8706 332.38C54.8706 330.704 53.568 329.287 50.9679 329.287C48.4274 329.287 47.2441 330.665 47.2441 332.385C47.2441 333.603 47.8556 334.284 48.487 334.562L48.487 334.652L47.09 334.652C46.041 334.652 45.6333 333.981 45.6333 333.061C45.6333 332.126 46.041 331.654 46.5034 331.48L46.2399 329.521C45.0368 329.775 44.112 330.953 44.112 333.011ZM48.835 333.056C48.835 332.017 49.6603 331.45 50.9778 331.45C52.2754 331.45 53.1852 332.007 53.1852 333.056C53.1852 334.085 52.3152 334.662 50.9778 334.662C49.6305 334.662 48.835 334.075 48.835 333.056ZM52.2257 351.067C55.5566 351.067 57.4558 348.998 57.4558 346.299C57.4558 343.584 55.5566 341.531 52.2257 341.531C48.9096 341.531 46.9956 343.584 46.9956 346.299C46.9956 346.935 47.1 347.537 47.3088 348.084L46.2995 348.904L46.2995 350.913L48.1291 349.456C49.019 350.45 50.411 351.067 52.2257 351.067ZM50.6745 345.553L48.9544 346.856C48.9196 346.682 48.8997 346.493 48.8997 346.299C48.8997 344.733 50.068 343.714 52.2257 343.714C54.3833 343.714 55.5517 344.733 55.5517 346.299C55.5517 347.86 54.3833 348.884 52.2257 348.884C51.117 348.884 50.2669 348.611 49.7051 348.138L50.6745 347.383L50.6745 345.553ZM50.3862 357.519C49.362 357.524 48.8251 356.823 48.8251 356.062C48.8251 355.261 49.3869 354.744 50.2868 354.739L54.7711 354.739L54.7711 352.622L49.9089 352.622C48.1241 352.627 47.0353 353.671 47.0353 355.207C47.0353 356.355 47.6269 357.18 48.5218 357.524L48.5218 357.603L47.1348 357.603L47.1348 359.636L54.7711 359.636L54.7711 357.519L50.3862 357.519ZM46.9906 363.508C46.9906 364.637 47.4828 365.367 48.1937 365.74L48.1937 365.8L47.1348 365.8L47.1348 367.809L52.2853 367.809C54.1049 367.809 54.8706 366.267 54.8706 364.567C54.8706 362.737 53.9956 361.534 52.6035 361.241L52.4444 363.2C52.9515 363.344 53.3244 363.796 53.3244 364.557C53.3244 365.278 52.9615 365.691 52.335 365.691L52.3052 365.691C51.813 365.691 51.7484 365.169 51.6191 363.841C51.4799 362.33 50.9728 360.973 49.2676 360.973C47.7562 360.973 46.9906 362.051 46.9906 363.508ZM55.676 363.647L56.889 364.647L55.676 365.646L55.676 367.451L55.7456 367.451L57.9331 365.432L57.9331 363.856L55.7456 361.843L55.676 361.843L55.676 363.647ZM48.4522 364.115C48.4522 363.463 48.7555 362.996 49.3372 362.996C49.9338 362.996 50.2271 363.488 50.3315 364.234C50.3961 364.696 50.5055 365.452 50.6745 365.706L49.8642 365.706C49.0637 365.706 48.4522 365.044 48.4522 364.115ZM51.5495 371.57C52.5339 371.574 53.1106 372.161 53.1106 373.016C53.1106 373.866 52.5538 374.378 51.6191 374.373L47.1348 374.373L47.1348 376.491L51.997 376.491C53.7768 376.491 54.8706 375.447 54.8706 373.856C54.8706 372.723 54.3137 371.903 53.4238 371.56L53.4238 371.47L54.7711 371.47L54.7711 369.452L47.1348 369.452L47.1348 371.57L51.5495 371.57Z" fill="#606060"/>
<path d="M128.065 -14.2437C129.079 -17.4165 127.687 -19.8552 125.116 -20.6772C122.53 -21.5037 119.996 -20.32 118.982 -17.1472C117.972 -13.9886 119.345 -11.5402 121.931 -10.7137C124.502 -9.89166 127.05 -11.0709 128.065 -14.2437ZM125.986 -14.9082C125.329 -12.853 123.998 -12.052 122.511 -12.5274C121.019 -13.0042 120.404 -14.4274 121.061 -16.4826C121.718 -18.5378 123.044 -19.3403 124.536 -18.8635C126.023 -18.3881 126.643 -16.9634 125.986 -14.9082ZM124.397 -21.7107L125.718 -22.5619L126.301 -21.1022L128.02 -20.5527L128.041 -20.6189L126.784 -23.3172L125.283 -23.7971L122.699 -22.3265L122.678 -22.2602L124.397 -21.7107ZM131.357 -12.4813C131.662 -13.4174 132.396 -13.7881 133.211 -13.5277C134.02 -13.2689 134.339 -12.5826 134.049 -11.6938L132.684 -7.42238L134.701 -6.77749L136.182 -11.4088C136.723 -13.1041 136.062 -14.4638 134.547 -14.9483C133.467 -15.2934 132.516 -15.0128 131.918 -14.2696L131.833 -14.2969L132.243 -15.5802L130.321 -16.1948L127.996 -8.92106L130.013 -8.27617L131.357 -12.4813ZM138.648 -2.34247C140.726 -1.67791 142.507 -2.1527 143.102 -4.01376L145.45 -11.3585L143.446 -11.9989L143.056 -10.7771L142.98 -10.8013C142.899 -11.4796 142.539 -12.3933 141.322 -12.7824C139.726 -13.2925 137.98 -12.4833 137.188 -10.0066C136.415 -7.58675 137.366 -6.04037 139.005 -5.51659C140.165 -5.1457 141 -5.52078 141.457 -6.03741L141.542 -6.01017L141.117 -4.67949C140.798 -3.68029 140.034 -3.49635 139.158 -3.7764C138.268 -4.061 137.942 -4.59313 137.917 -5.08651L135.971 -5.43197C135.846 -4.20877 136.687 -2.96919 138.648 -2.34247ZM140.128 -6.82759C139.139 -7.14397 138.85 -8.10264 139.251 -9.35756C139.646 -10.5935 140.454 -11.2906 141.453 -10.9712C142.433 -10.6578 142.718 -9.65348 142.31 -8.37963C141.9 -7.09631 141.099 -6.51725 140.128 -6.82759ZM153.005 -11.6157L150.954 -12.2712L147.854 -2.57286L149.904 -1.91738L153.005 -11.6157ZM151.562 -13.1104L152.987 -12.6548L155.12 -14.3477L153.254 -14.9442L151.562 -13.1104ZM154.795 -0.19754C156.731 0.421611 158.312 -0.325861 158.941 -1.96722L157.037 -2.57578C156.67 -1.837 156.02 -1.56482 155.328 -1.78584C154.386 -2.08709 154.028 -3.0732 154.473 -4.46544C154.912 -5.83874 155.779 -6.42804 156.717 -6.1283C157.455 -5.89215 157.773 -5.25301 157.65 -4.49366L159.554 -3.8851C160.006 -5.59346 159.085 -7.10405 157.186 -7.71109C154.979 -8.41653 153.126 -7.32294 152.413 -5.09251C151.707 -2.88103 152.555 -0.913576 154.795 -0.19754ZM162.742 -2.44848C163.046 -3.3846 163.795 -3.75075 164.619 -3.48734C165.438 -3.22545 165.753 -2.5454 165.462 -1.6519L164.097 2.61953L166.114 3.26441L167.595 -1.36692C168.144 -3.07019 167.47 -4.42346 165.955 -4.90788C164.852 -5.2606 163.946 -4.97585 163.341 -4.22469L163.256 -4.25194L164.441 -7.95984L162.48 -8.58656L159.38 1.11177L161.397 1.75665L162.742 -2.44848ZM170.826 4.77066L172.876 5.42614L173.757 2.67008L175.16 1.76129L176.542 6.59784L178.995 7.382L177.065 0.862007L182.052 -2.32996L179.595 -3.11563L174.738 0.0448566L174.61 0.00398357L175.977 -4.27218L173.926 -4.92767L170.826 4.77066ZM183.344 4.13738C183.648 3.20126 184.397 2.83511 185.221 3.09852C186.04 3.36041 186.355 4.04046 186.064 4.93396L184.699 9.20539L186.716 9.85028L188.196 5.21894C188.746 3.51567 188.072 2.1624 186.557 1.67798C185.453 1.32526 184.548 1.61001 183.943 2.36117L183.857 2.33393L185.043 -1.37398L183.082 -2.0007L179.982 7.69763L181.999 8.34251L183.344 4.13738ZM188.303 10.3578L190.321 11.0027L192.646 3.72892L190.629 3.08404L188.303 10.3578ZM191.942 2.47036C192.543 2.66262 193.183 2.36071 193.363 1.79718C193.541 1.23839 193.196 0.62161 192.594 0.429355C191.998 0.238614 191.358 0.540523 191.18 1.09931C191 1.66284 191.345 2.27962 191.942 2.47036ZM195.206 12.721C197.006 13.2962 198.498 12.8077 199.214 11.5489L197.387 10.8294C197.006 11.3183 196.393 11.4407 195.721 11.2257C194.712 10.9033 194.286 10.0312 194.633 8.94675L194.634 8.94202L199.588 10.5255L199.765 9.97141C200.555 7.49948 199.449 5.79935 197.527 5.18474C195.386 4.50049 193.513 5.57704 192.795 7.82168C192.058 10.1279 192.966 12.005 195.206 12.721ZM196.773 4.09817L198.094 3.24698L198.676 4.70672L200.395 5.25624L200.417 5.18994L199.16 2.49171L197.659 2.01183L195.075 3.48236L195.054 3.54865L196.773 4.09817ZM195.034 7.69184C195.342 6.87675 196.183 6.41512 197.078 6.70123C197.954 6.98128 198.361 7.80014 198.089 8.66825L195.034 7.69184ZM199.907 14.067L201.924 14.7119L203.32 10.3458C203.577 9.54072 204.26 9.1691 204.932 9.38406C205.595 9.596 205.895 10.1929 205.666 10.908L204.216 15.4446L206.172 16.0698L207.592 11.6279C207.832 10.8749 208.427 10.5013 209.161 10.7359C209.805 10.9418 210.159 11.4987 209.9 12.3085L208.464 16.8025L210.476 17.4459L212.04 12.5541C212.544 10.9771 211.894 9.77766 210.54 9.34471C209.474 9.0041 208.472 9.28377 207.907 10.0218L207.831 9.99762C207.868 9.08053 207.296 8.30774 206.297 7.98833C205.317 7.67497 204.407 7.95821 203.83 8.71845L203.744 8.6912L204.155 7.40788L202.232 6.79327L199.907 14.067Z" fill="#606060"/>
<path d="M415.903 94.229C416.918 91.0562 415.526 88.6175 412.955 87.7955C410.369 86.9689 407.835 88.1527 406.821 91.3255C405.811 94.4841 407.184 96.9325 409.769 97.759C412.341 98.581 414.889 97.4018 415.903 94.229ZM413.824 93.5644C413.167 95.6196 411.836 96.4206 410.349 95.9453C408.858 95.4684 408.243 94.0453 408.9 91.9901C409.557 89.9348 410.883 89.1323 412.375 89.6092C413.862 90.0845 414.481 91.5092 413.824 93.5644ZM412.236 86.7619L413.557 85.9107L414.139 87.3705L415.858 87.92L415.88 87.8537L414.623 85.1555L413.122 84.6756L410.538 86.1461L410.517 86.2124L412.236 86.7619ZM419.196 95.9914C419.5 95.0552 420.235 94.6845 421.049 94.9449C421.859 95.2038 422.177 95.8901 421.888 96.7788L420.522 101.05L422.54 101.695L424.02 97.0638C424.562 95.3685 423.901 94.0088 422.385 93.5244C421.306 93.1792 420.355 93.4598 419.757 94.203L419.672 94.1758L420.082 92.8925L418.159 92.2779L415.834 99.5516L417.852 100.196L419.196 95.9914ZM426.486 106.13C428.565 106.795 430.345 106.32 430.94 104.459L433.288 97.1141L431.285 96.4738L430.895 97.6955L430.819 97.6713C430.738 96.9931 430.378 96.0793 429.161 95.6903C427.565 95.1801 425.819 95.9894 425.027 98.4661C424.253 100.886 425.205 102.432 426.843 102.956C428.003 103.327 428.838 102.952 429.296 102.435L429.381 102.462L428.956 103.793C428.636 104.792 427.873 104.976 426.997 104.696C426.107 104.412 425.781 103.88 425.756 103.386L423.81 103.041C423.685 104.264 424.526 105.503 426.486 106.13ZM427.967 101.645C426.977 101.329 426.689 100.37 427.09 99.1151C427.485 97.8791 428.292 97.1821 429.292 97.5015C430.272 97.8149 430.556 98.8192 430.149 100.093C429.739 101.376 428.938 101.955 427.967 101.645ZM440.843 96.8569L438.793 96.2015L435.693 105.9L437.743 106.555L440.843 96.8569ZM439.4 95.3622L440.826 95.8179L442.959 94.1249L441.093 93.5285L439.4 95.3622ZM442.633 108.275C444.57 108.894 446.15 108.147 446.779 106.505L444.876 105.897C444.509 106.636 443.858 106.908 443.167 106.687C442.225 106.386 441.867 105.399 442.312 104.007C442.751 102.634 443.618 102.045 444.555 102.344C445.294 102.581 445.612 103.22 445.489 103.979L447.393 104.588C447.845 102.879 446.924 101.369 445.025 100.762C442.818 100.056 440.965 101.15 440.252 103.38C439.545 105.592 440.393 107.559 442.633 108.275ZM450.58 106.024C450.885 105.088 451.633 104.722 452.457 104.985C453.277 105.247 453.592 105.927 453.301 106.821L451.935 111.092L453.953 111.737L455.433 107.106C455.983 105.402 455.309 104.049 453.794 103.565C452.69 103.212 451.785 103.497 451.18 104.248L451.094 104.221L452.28 100.513L450.319 99.8861L447.219 109.584L449.236 110.229L450.58 106.024ZM458.665 113.243L460.715 113.899L461.596 111.143L462.998 110.234L464.38 115.07L466.833 115.855L464.904 109.335L469.891 106.143L467.433 105.357L462.576 108.518L462.448 108.477L463.815 104.2L461.765 103.545L458.665 113.243ZM471.182 112.61C471.487 111.674 472.235 111.308 473.059 111.571C473.879 111.833 474.194 112.513 473.903 113.407L472.537 117.678L474.555 118.323L476.035 113.692C476.585 111.988 475.911 110.635 474.396 110.151C473.292 109.798 472.387 110.083 471.781 110.834L471.696 110.807L472.881 107.099L470.921 106.472L467.821 116.17L469.838 116.815L471.182 112.61ZM476.142 118.83L478.159 119.475L480.485 112.202L478.467 111.557L476.142 118.83ZM479.78 110.943C480.382 111.135 481.021 110.833 481.201 110.27C481.38 109.711 481.034 109.094 480.433 108.902C479.836 108.711 479.197 109.013 479.018 109.572C478.838 110.135 479.184 110.752 479.78 110.943ZM483.045 121.194C484.844 121.769 486.337 121.28 487.052 120.022L485.226 119.302C484.845 119.791 484.232 119.913 483.559 119.698C482.551 119.376 482.125 118.504 482.472 117.419L482.473 117.415L487.426 118.998L487.604 118.444C488.394 115.972 487.288 114.272 485.365 113.657C483.225 112.973 481.351 114.05 480.634 116.294C479.897 118.601 480.805 120.478 483.045 121.194ZM484.611 112.571L485.933 111.72L486.515 113.179L488.234 113.729L488.255 113.663L486.999 110.964L485.498 110.484L482.914 111.955L482.892 112.021L484.611 112.571ZM482.873 116.164C483.18 115.349 484.022 114.888 484.917 115.174C485.793 115.454 486.199 116.273 485.927 117.141L482.873 116.164ZM487.745 122.54L489.763 123.185L491.158 118.818C491.416 118.013 492.098 117.642 492.771 117.857C493.434 118.069 493.733 118.666 493.505 119.381L492.055 123.917L494.01 124.542L495.43 120.101C495.671 119.348 496.265 118.974 496.999 119.209C497.644 119.414 497.998 119.971 497.739 120.781L496.302 125.275L498.315 125.919L499.879 121.027C500.383 119.45 499.733 118.25 498.379 117.817C497.313 117.477 496.31 117.756 495.745 118.495L495.67 118.47C495.707 117.553 495.135 116.78 494.135 116.461C493.155 116.148 492.245 116.431 491.668 117.191L491.583 117.164L491.993 115.881L490.071 115.266L487.745 122.54Z" fill="#606060"/>
<path d="M416.516 275.713L462.599 347.318L475.006 414.67L561.854 502.226" stroke="#A1CFF0" stroke-width="6"/>
<path d="M369.016 45.2988L345.516 113.714M325.06 173.267L345.516 113.714M412.617 117.259L386.031 126.475L345.516 113.714" stroke="#A1CFF0" stroke-width="6"/>
<path d="M358.735 312.224C351.528 297.69 334.064 267.843 321.869 264.724C306.627 260.824 186.103 228.921 171.569 232.466C159.942 235.302 110.008 286.82 86.4938 312.224" stroke="#A1CFF0" stroke-width="6"/>
<path d="M384.612 167.595C394.065 169.604 414.885 172.416 422.542 167.595C432.113 161.569 475.36 234.947 477.487 243.1" stroke="#A1CFF0" stroke-width="6"/>
<path d="M278.268 15.5215L245.656 139.235" stroke="#A1CFF0" stroke-width="6"/>
<path d="M29.0683 139.236C62.2714 138.999 131.443 139.874 142.502 145.262" stroke="#A1CFF0" stroke-width="6"/>
<path d="M247.783 383.473L332.858 511.795M364.407 456.141H340.657L130.804 603.251V619.912L19.4969 615.658M180.077 422.82L273.306 558.586C265.861 576.192 249.414 615.162 243.175 630.192C236.936 645.222 196.147 674.029 176.532 686.554M137.539 446.57L144.274 501.515L234.667 637.281M16.3066 650.752H124.778L137.539 657.487L306.627 530.582L312.299 527.038L278.977 683.364" stroke="#A1CFF0" stroke-width="6"/>
<path d="M383.549 420.696C380.713 420.696 342.429 415.733 327.896 413.252L141.793 540.865H19.4968" stroke="#A1CFF0" stroke-width="6"/>
<path d="M252.391 247.354L152.782 356.534L166.252 377.094L180.431 399.072" stroke="#A1CFF0" stroke-width="6"/>
<path d="M407.654 279.611L340.303 681.239" stroke="#005593" stroke-width="16"/>
<path d="M21.2694 517.823L683.441 109.814" stroke="#005593" stroke-width="16"/>
<path d="M76.5682 482.73C65.4611 479.185 34.8103 458.98 22.3326 434.875" stroke="#005593" stroke-width="16"/>
<path d="M686.276 165.468L50.3369 -70.9707" stroke="#005593" stroke-width="16"/>
<path d="M28.713 -52.1836L20.2055 684.074" stroke="#005593" stroke-width="16"/>
</svg>
