<svg width="1366" height="921" viewBox="0 0 1366 921" fill="none" xmlns="http://www.w3.org/2000/svg">
<g clip-path="url(#clip0)">
<path d="M657.902 -4.26511C638.17 -10.8405 623.06 4.08747 607.417 12.7955C592.663 21.148 577.197 24.5246 570.62 42.4738C567.954 49.76 567.243 57.9349 563.332 64.5103C560.31 69.4863 555.866 73.2183 551.422 76.7726C540.578 85.6583 529.557 94.7218 518.713 103.607C511.603 109.472 504.314 115.514 499.87 123.511C495.426 131.509 494.36 142.171 499.693 149.635C509.114 162.609 529.201 158.166 544.311 163.319C564.043 170.25 573.642 193.353 592.485 202.417C591.241 212.546 591.241 225.164 600.129 229.962C608.128 234.227 617.55 229.074 625.727 225.697C635.326 221.61 646.525 219.833 656.302 223.742C666.079 227.652 673.367 238.315 671.056 248.445C669.101 256.619 661.635 264.261 664.657 272.081C665.901 275.457 669.101 277.945 671.056 280.966C682.789 299.271 655.058 325.75 681.9 335.525C701.987 342.811 726.341 336.235 742.873 354.362C759.049 371.956 751.05 402.167 737.362 418.873C723.497 435.755 698.254 425.981 685.811 445.707C683.678 449.084 682.433 452.994 680.122 456.37C672.656 468.277 657.013 472.009 646.525 481.428C631.771 494.579 629.104 516.793 616.661 532.254C608.662 542.206 597.285 548.604 587.152 556.423C577.02 564.243 567.598 574.55 566.532 587.346C565.643 597.653 570.976 607.427 570.62 617.735C570.265 629.286 566.176 637.994 567.776 650.257C568.309 654.166 569.02 658.076 571.687 660.919C574.887 664.651 580.219 665.54 584.663 667.673C603.329 676.203 607.773 703.571 626.616 711.568C636.748 715.833 649.903 713.878 657.724 721.52C664.301 728.095 664.124 739.291 659.502 747.289C655.058 755.463 647.236 760.973 639.592 766.304C596.574 795.627 549.111 818.552 499.515 834.191C496.315 835.257 492.76 836.146 489.56 834.902C483.872 832.769 482.983 825.127 479.961 819.796C474.984 810.555 463.073 807.356 452.763 808.067C442.275 808.778 432.32 812.332 421.832 813.043C385.746 815.353 357.838 783.72 329.751 760.973C306.464 742.135 279.266 727.918 250.468 719.565C244.602 717.788 238.025 716.011 234.292 711.035C229.137 704.104 231.626 694.507 231.092 685.977C230.203 671.582 219.182 658.609 205.317 655.233C198.028 653.455 190.562 654.166 183.096 653.811C151.454 652.211 117.324 632.13 90.6592 649.368C83.9042 653.811 78.038 660.564 70.0387 661.808C63.9947 662.874 57.9508 660.386 52.2623 658.076C26.4867 647.235 0.710984 636.573 -25.0647 625.732" stroke="#F3F3F3" stroke-width="3" stroke-miterlimit="10"/>
<path d="M1387.09 514.305C1369.13 515.549 1353.49 503.287 1336.78 496.889C1316.69 489.248 1294.65 490.136 1273.32 488.181C1220.35 483.383 1169.5 460.458 1116.35 461.524C1074.05 462.413 1033.34 478.407 996.363 499.022C978.409 508.974 960.633 520.525 947.656 536.52C927.747 561.044 921.169 595.876 930.769 626.088C940.19 656.299 965.61 681.001 995.83 689.709C1026.23 698.595 1058.58 692.02 1090.22 693.264C1121.86 694.508 1157.59 708.192 1166.48 738.581C1168.08 744.268 1168.79 750.31 1171.64 755.464C1176.08 763.816 1185.33 768.259 1194.04 772.169C1211.28 779.811 1230.12 786.741 1248.61 783.365C1266.03 780.166 1280.43 768.437 1296.61 761.151C1328.07 747.111 1367.18 751.732 1394.38 773.057" stroke="#F3F3F3" stroke-width="3" stroke-miterlimit="10"/>
<path d="M1090.76 -8.1748C1075.11 8.53034 1058.4 24.7023 1047.2 44.6063C1036 64.5103 1031.03 89.568 1040.09 110.538C1049.34 131.509 1072.09 148.925 1068 171.494C1066.76 178.781 1062.67 185.356 1061.42 192.642C1059.47 205.438 1067.11 218.233 1077.42 226.053C1087.91 233.694 1100.71 237.426 1113.33 240.625C1132.89 245.779 1153.51 250.399 1173.42 246.49C1193.33 242.58 1212.52 227.83 1215.01 207.57C1216.26 198.151 1213.77 188.733 1213.95 179.136C1214.3 169.717 1218.75 159.054 1227.99 156.744C1235.63 154.789 1244.34 159.054 1251.28 155.5C1261.41 150.346 1258.39 134.885 1263.36 124.578C1269.76 111.071 1288.61 108.939 1302.47 114.093C1316.34 119.246 1328.07 129.376 1341.76 134.885C1359.18 141.638 1379.62 140.217 1395.8 130.975" stroke="#F3F3F3" stroke-width="3" stroke-miterlimit="10"/>
<path d="M1373.93 542.384C1343.54 529.055 1310.12 524.79 1277.41 520.703C1251.99 517.504 1226.74 514.305 1201.32 511.106C1170.93 507.374 1140.17 503.464 1109.6 506.486C1078.67 509.507 1048.63 519.814 1022.14 536.164C1006.14 546.116 991.208 558.556 982.676 575.261C974.143 591.966 973.254 613.47 983.92 628.753C990.319 637.816 1000.1 644.036 1010.41 648.302C1035.83 659.142 1064.27 659.498 1091.82 663.052C1119.2 666.606 1148.17 674.603 1165.95 695.929C1175.9 707.836 1181.59 723.297 1192.79 733.96C1216.79 756.707 1255.54 750.132 1287.01 739.824C1318.47 729.517 1353.67 717.077 1383.35 731.827" stroke="#F3F3F3" stroke-miterlimit="10"/>
<path d="M1240.79 592.855C1233.32 593.21 1225.68 594.276 1219.46 598.541C1213.23 602.807 1209.15 610.626 1211.28 617.735C1213.41 625.021 1221.23 629.108 1228.7 630.708C1236.17 632.129 1243.99 631.774 1251.28 633.729C1265.32 637.461 1276.87 649.368 1291.27 649.368C1316.52 649.368 1322.03 617.912 1303.54 604.406C1289.5 593.921 1256.96 592.144 1240.79 592.855Z" stroke="#F3F3F3" stroke-miterlimit="10"/>
<path d="M1276.7 565.665C1250.92 558.023 1227.1 556.068 1200.79 561.933C1174.3 567.797 1147.64 594.632 1163.82 622.889C1175.19 642.615 1197.59 647.769 1217.32 654.877C1233.14 660.386 1244.34 671.049 1258.92 678.158C1280.43 688.288 1306.92 684.911 1327.54 673.893C1344.6 664.829 1365.93 642.082 1359.71 620.934C1353.85 601.385 1329.31 586.99 1312.07 578.816C1300.69 573.306 1288.78 569.219 1276.7 565.665Z" stroke="#F3F3F3" stroke-miterlimit="10"/>
<path d="M1378.91 582.547C1340.16 564.776 1300.69 548.071 1259.1 538.474C1217.5 528.877 1173.59 526.567 1132.53 537.585C1116.53 541.851 1100.89 548.426 1088.8 559.8C1076.89 571.173 1069.42 588.234 1072.45 604.406C1075.65 620.578 1088.45 633.196 1102.84 641.015C1117.24 648.835 1133.42 652.922 1148.88 658.431C1164.35 664.118 1179.82 671.76 1189.59 684.733C1193.33 689.531 1196.17 695.04 1200.08 699.661C1210.75 711.923 1228.52 715.655 1244.7 714.233C1260.88 712.812 1276.16 706.769 1291.81 702.149C1322.91 693.085 1355.62 689.887 1387.8 692.73" stroke="#F3F3F3" stroke-miterlimit="10"/>
<path d="M1102.13 2.66602C1086.31 13.3289 1072.62 27.7237 1065.51 45.4952C1058.4 63.0889 1058.76 84.4146 1069.07 100.409C1074.93 109.65 1083.82 116.759 1088.98 126.355C1095.56 138.617 1095.38 153.19 1094.31 167.052C1093.78 175.049 1092.89 183.757 1096.62 190.865C1100.18 197.796 1107.11 202.239 1114.22 205.616C1124.35 210.414 1135.37 213.968 1146.4 212.902C1159.55 211.48 1171.64 202.95 1177.5 191.221C1181.95 182.335 1182.84 172.028 1185.15 162.431C1187.64 152.835 1192.44 142.705 1201.32 138.617C1206.84 136.129 1213.06 135.952 1218.57 133.464C1236.52 125.111 1235.63 97.5654 1251.1 85.3032C1261.59 76.9506 1276.87 78.1946 1289.32 82.8152C1301.76 87.4357 1312.96 95.2552 1325.76 99.5203C1346.56 106.451 1370.38 102.719 1388.15 90.1014" stroke="#F3F3F3" stroke-miterlimit="10"/>
<path d="M1143.91 2.66525C1133.77 7.99668 1124.53 14.7498 1116.35 22.747C1104.44 34.4761 1094.67 51.0035 1099.11 66.9978C1102.67 79.7932 1114.22 89.0344 1117.95 101.83C1119.91 108.583 1119.55 115.869 1120.62 122.8C1121.86 129.731 1125.42 137.195 1132.17 139.505C1134.84 140.394 1137.86 140.394 1140.71 139.683C1154.22 136.484 1159.91 120.49 1170.22 111.071C1178.93 103.074 1190.84 99.6972 1200.61 93.1218C1215.19 83.1698 1223.72 65.7538 1225.86 48.1601C1228.17 30.5664 1224.61 12.795 1219.46 -4.08789" stroke="#F3F3F3" stroke-miterlimit="10"/>
<path d="M1250.56 1.95508C1250.56 27.7236 1266.74 52.9591 1290.21 63.6219C1303.72 69.8419 1319 71.2637 1333.76 72.1522C1349.76 73.2185 1367 73.5739 1380.87 65.5768" stroke="#F3F3F3" stroke-miterlimit="10"/>
<path d="M1288.61 -0.533203C1288.07 9.77423 1295.72 19.0154 1304.43 24.7022C1316.52 32.6994 1331.09 36.0759 1345.49 36.4314C1359.89 36.7868 1374.29 33.9434 1388.15 30.2114" stroke="#F3F3F3" stroke-miterlimit="10"/>
<path d="M1169.15 3.19899C1169.33 12.6178 1161.15 19.9041 1156.71 28.079C1153.68 33.4104 1152.26 39.6304 1151.02 45.6727C1149.42 54.0253 1149.24 64.155 1156.17 69.131C1160.79 72.5076 1167.37 72.1521 1172.53 69.4864C1177.5 66.8207 1181.42 62.2001 1184.44 57.4019C1196.52 38.3864 1199.37 13.8618 1192.08 -7.46387" stroke="#F3F3F3" stroke-miterlimit="10"/>
<path d="M-0.533447 203.838C6.22156 213.612 15.8208 221.076 25.5978 227.651C58.1284 249.332 95.6365 264.26 134.567 266.748C173.497 269.236 213.849 259.284 244.78 235.471C259.357 224.275 271.8 210.235 287.621 200.816C312.686 185.888 343.261 184.111 371.881 178.78C400.678 173.448 431.254 161.897 444.941 135.951C450.985 124.577 453.118 111.248 460.94 100.941C472.139 86.5462 492.226 82.1033 505.381 69.6633C517.824 57.9342 522.802 40.5182 532.401 26.4788C543.6 9.95132 561.199 -1.95554 580.753 -6.04297" stroke="#F3F3F3" stroke-miterlimit="10"/>
<path d="M-0.711182 181.802C5.15501 190.332 13.5099 196.73 22.0425 202.594C50.1291 221.61 82.8376 234.761 116.613 237.249C150.388 239.914 185.407 231.384 212.783 211.658C217.227 208.459 221.493 205.082 225.759 201.35C234.114 194.064 241.758 186.422 250.646 180.38C254.201 177.892 257.934 175.937 261.845 174.16C278.022 166.518 296.865 163.675 315.174 160.654C318.552 160.121 321.929 159.587 325.129 158.877C339.883 156.211 355.171 152.123 367.97 144.659C377.569 139.15 385.924 131.686 391.435 122.09C397.123 112.138 399.612 100.409 406.545 91.3452C416.677 78.372 433.92 73.5738 445.119 62.0223C449.563 57.4018 452.941 51.8926 455.963 46.028C459.874 38.2086 463.073 30.0338 467.517 22.7475C476.583 7.64176 491.338 -3.55423 508.225 -8.1748" stroke="#F3F3F3" stroke-miterlimit="10"/>
<path d="M-0.888916 159.943C4.08846 167.051 11.199 172.738 18.4873 177.714C42.3076 194.064 69.8609 205.438 98.6585 207.926C127.456 210.591 156.965 203.66 180.607 187.844C184.696 185.178 188.607 182.335 192.34 179.136C199.806 172.738 206.028 165.63 213.316 159.765C216.16 157.455 219.36 155.5 222.56 153.723C236.07 146.081 252.779 143.06 269.134 140.394C272.156 139.861 275 139.506 278.022 138.972C291.176 136.662 304.686 133.463 316.241 127.243C324.951 122.623 332.417 116.403 337.572 108.05C342.905 99.5198 345.572 89.5678 351.971 81.393C360.859 70.0192 375.436 64.8655 384.68 54.2027C388.413 49.9375 391.079 44.9615 393.39 39.8078C396.59 32.877 399.079 25.5907 402.456 18.8375C409.567 5.15352 421.121 -5.50933 435.52 -10.3076" stroke="#F3F3F3" stroke-miterlimit="10"/>
<path d="M-1.06665 137.906C3.19967 143.77 8.8881 148.391 14.7543 152.478C34.3083 166.162 56.8842 175.581 80.5267 178.247C104.169 180.913 128.345 175.759 148.432 163.852C151.988 161.72 155.721 159.587 158.92 156.744C165.498 151.234 170.297 144.659 176.163 138.972C178.474 136.84 180.785 134.707 183.452 133.108C194.473 125.644 208.872 122.267 223.093 119.957C225.759 119.601 228.248 119.068 230.915 118.713C242.291 116.936 254.202 114.448 264.512 109.472C272.156 105.74 278.911 100.586 283.888 93.6549C289.043 86.7241 291.887 78.1938 297.398 71.2629C305.22 61.3109 316.774 55.8018 324.24 46.0275C327.085 42.1178 329.218 37.6749 330.995 33.0544C333.306 27.0121 335.084 20.4367 337.573 14.5721C342.728 2.3098 351.26 -7.6422 363.17 -12.9736" stroke="#F3F3F3" stroke-miterlimit="10"/>
<path d="M-1.24451 115.869C2.133 120.49 6.57709 124.044 11.1989 127.42C26.3088 138.439 43.9074 146.08 62.3948 148.746C80.8821 151.412 99.7251 148.035 116.079 140.038C119.279 138.439 122.479 137.017 125.323 134.707C131.011 130.086 134.389 124.044 138.655 118.712C140.255 116.58 142.033 114.625 143.988 113.026C152.343 105.562 164.786 102.007 176.874 100.052C179.007 99.697 181.318 99.3416 183.452 98.9861C193.229 97.5644 203.361 95.965 212.249 92.233C219.004 89.3896 224.87 85.3022 229.492 79.9707C234.292 74.4616 237.492 67.7084 242.291 61.6661C249.046 53.1359 257.757 47.2713 263.09 38.5633C265.223 35.009 266.645 31.0993 267.889 27.1896C269.489 21.8581 270.378 16.349 271.978 11.0176C275.177 0.177004 280.51 -9.06414 289.932 -14.9287" stroke="#F3F3F3" stroke-miterlimit="10"/>
<path d="M-1.42224 94.0108C1.06645 97.2097 4.26618 100.053 7.64369 102.541C18.4873 110.894 31.1084 116.758 44.4407 119.424C57.773 121.912 71.6385 120.668 84.0819 116.225C86.9261 115.337 89.7704 114.27 92.0813 112.493C96.8809 108.939 98.8363 103.252 101.503 98.0983C102.569 96.1434 103.636 94.1885 105.058 92.4114C110.746 84.9474 121.057 81.2154 131.189 79.616C132.967 79.2606 134.922 79.0828 136.7 78.9051C144.877 77.8388 153.232 77.128 160.876 74.64C166.564 72.6851 171.719 69.8417 176.163 65.7543C180.607 61.6668 184.163 56.5131 188.073 51.7148C193.584 44.784 199.628 38.564 203.006 30.5668C204.428 27.368 205.317 23.9914 205.85 20.6148C206.561 16.172 206.916 11.3737 207.45 6.75312C208.516 -2.66573 210.827 -11.3737 217.76 -17.416" stroke="#F3F3F3" stroke-miterlimit="10"/>
<path d="M-1.59998 71.974C11.5545 86.7243 31.9973 94.5437 51.729 92.2334C54.0399 91.878 56.5286 91.5226 58.484 90.1008C63.9947 86.3688 63.1059 78.194 65.5946 71.974C68.7943 64.51 76.9714 60.6003 84.793 59.3563C92.6146 57.9346 100.792 58.6454 108.791 56.8683C128.167 52.7808 143.277 33.9431 142.922 14.0391C142.744 2.48771 138.122 -10.3077 144.521 -19.9043" stroke="#F3F3F3" stroke-miterlimit="10"/>
<path d="M-33.4196 558.912C-16.3543 580.77 3.55523 604.229 31.1085 607.428C53.6845 610.093 75.3716 598.186 98.1253 597.831C119.812 597.298 140.433 607.428 161.942 610.449C191.984 614.714 222.915 605.295 248.158 588.234C291.354 559.089 318.552 507.73 318.196 455.66C318.019 437.177 314.819 418.34 318.196 400.213C320.863 386.529 327.262 373.911 331.529 360.76C339.706 336.058 340.95 309.045 335.084 283.81C333.484 276.701 330.995 269.593 326.196 264.261C317.13 254.487 301.664 253.598 289.221 257.864C276.6 262.129 266.112 270.481 254.913 277.59C209.761 306.202 154.299 314.021 100.97 312.244C84.4376 311.711 67.7278 310.112 51.9069 304.78C30.753 297.494 12.7989 283.454 -4.79966 269.77C-12.4435 263.906 -21.8649 261.596 -31.2864 263.373C-40.7079 265.15 -49.0627 270.659 -56.5288 276.879C-85.3264 300.87 -102.569 338.19 -102.214 375.688C-102.036 391.149 -99.192 406.255 -95.459 421.361C-83.9043 469.166 -63.8171 520.17 -33.4196 558.912Z" stroke="#F3F3F3" stroke-miterlimit="10"/>
<path d="M68.7944 333.214C51.7291 328.061 36.6192 318.109 21.8649 308.157C15.4654 303.892 7.82154 302.292 0.177716 303.714C-7.46611 305.136 -14.3989 309.401 -20.6206 314.199C-44.7964 333.037 -60.0841 362.004 -60.9729 392.393C-61.3284 404.833 -59.373 417.273 -56.7065 429.536C-46.9296 467.033 -31.2864 507.197 -7.28834 537.764C6.22168 555.002 22.3981 573.306 44.0853 576.15C61.8616 578.46 79.2824 569.752 97.2365 569.219C115.013 568.686 131.723 575.439 148.966 577.038C173.141 579.171 197.851 570.641 218.649 556.957C252.957 534.209 275.355 495.112 276.6 454.416C276.955 440.021 274.822 425.448 277.844 411.231C280.155 400.568 285.132 390.616 288.51 380.309C294.909 360.76 295.62 339.79 290.821 319.886C289.399 314.377 287.621 308.868 283.71 304.602C276.777 296.961 264.69 295.894 254.913 298.738C245.136 301.581 236.781 307.624 227.893 312.777C192.518 333.392 148.788 339.079 107.013 337.835C94.0368 338.013 81.06 336.946 68.7944 333.214Z" stroke="#F3F3F3" stroke-miterlimit="10"/>
<path d="M85.5041 361.649C72.5273 358.627 60.4394 352.763 48.5293 346.543C43.5519 343.877 37.508 342.989 31.6418 344.233C25.5978 345.477 20.2649 348.498 15.2875 351.874C-4.26643 365.381 -17.5987 386.173 -19.7318 409.276C-20.4429 418.695 -19.5541 428.291 -17.7764 438.066C-9.95485 465.256 1.24424 494.579 18.665 516.971C28.7976 529.766 40.8855 542.917 56.8842 545.405C70.0387 547.36 83.0154 541.673 96.3476 541.14C110.213 540.607 123.012 544.161 136.167 543.983C154.476 543.983 173.141 536.342 189.14 525.857C214.382 509.507 232.337 482.494 235.003 453.527C235.892 443.219 235.003 432.912 237.492 422.782C239.269 414.963 242.825 407.854 245.313 400.39C249.935 386.173 250.291 370.89 246.38 356.673C245.313 352.763 243.891 348.675 241.047 345.654C236.07 340.145 227.537 338.901 220.604 340.501C213.671 342.1 207.45 345.832 201.05 348.853C175.275 361.471 143.633 364.847 113.235 364.492C103.814 364.314 94.3922 363.603 85.5041 361.649Z" stroke="#F3F3F3" stroke-miterlimit="10"/>
<path d="M102.214 390.083C93.3258 389.372 84.2598 387.417 75.1939 384.929C71.4609 383.863 67.1946 383.685 63.106 384.574C58.8397 385.463 54.9289 387.24 51.1959 389.372C36.2637 397.547 24.7091 409.987 21.6871 425.981C20.4428 432.379 20.4428 439.132 21.3316 446.419C27.3756 463.124 33.7751 481.784 44.9741 496.001C51.5514 504.353 59.7285 512.351 70.0388 514.305C78.5714 515.905 87.1041 513.417 95.6367 512.706C105.414 511.995 114.302 512.351 123.368 510.751C135.811 508.441 148.255 501.865 159.632 494.757C175.986 484.627 189.14 470.055 193.407 452.639C194.829 446.419 195.184 440.199 196.962 434.156C198.384 429.358 200.517 424.915 201.939 420.295C204.783 411.231 204.606 401.812 201.761 393.282C201.05 390.794 199.984 388.484 198.384 386.529C195.362 382.975 190.385 381.908 186.118 382.086C181.852 382.264 178.119 383.685 174.03 384.752C157.854 389.372 138.122 390.439 119.279 390.794C113.591 390.616 107.725 390.439 102.214 390.083Z" stroke="#F3F3F3" stroke-miterlimit="10"/>
<path d="M60.084 454.238C64.3503 460.636 66.1279 468.455 70.9275 474.32C76.4382 481.251 85.8597 484.983 94.7478 483.739C108.436 481.784 118.035 469.521 130.123 462.946C137.411 459.036 145.944 456.904 151.81 451.039C174.741 427.758 139.544 409.632 118.924 418.34C98.6586 426.87 60.4395 423.671 60.084 454.238Z" stroke="#F3F3F3" stroke-miterlimit="10"/>
<path d="M545.022 215.035C554.266 225.875 559.777 239.381 568.131 250.755C576.664 262.129 590.174 271.725 604.04 269.06C607.95 268.349 611.683 266.572 615.594 267.105C622.349 267.993 626.616 274.747 628.571 281.144C633.548 297.139 630.704 314.377 631.593 331.082C632.66 347.787 639.592 366.447 655.591 371.956C662.524 374.267 670.701 373.911 676.389 378.532C686.877 386.884 681.011 404.3 671.767 413.897C658.435 427.581 640.303 435.4 625.727 447.662C605.284 464.901 593.018 489.959 574.353 509.152C553.199 531.01 523.691 544.872 493.293 547.005C462.896 549.137 431.787 539.719 407.611 521.059C392.146 509.152 379.88 493.691 368.326 478.052C364.237 472.543 359.971 466.5 358.726 459.747C357.66 453.705 358.904 447.485 360.504 441.62C364.948 423.671 370.636 405.9 377.747 388.661C381.658 378.887 386.102 369.113 387.168 358.628C388.235 347.787 385.746 336.769 383.613 326.106C377.747 296.605 375.258 263.728 391.79 238.671C420.055 195.131 507.336 171.317 545.022 215.035Z" stroke="#F3F3F3" stroke-miterlimit="10"/>
<path d="M425.21 277.412C444.053 244.002 506.448 226.23 535.779 255.553C542.889 262.662 547.511 271.903 554.088 279.722C560.665 287.542 570.62 294.295 580.753 292.873C583.597 292.518 586.441 291.451 589.108 291.985C594.263 292.873 597.818 298.205 599.596 303.181C603.329 313.31 603.329 324.329 603.329 335.525C603.329 338.013 603.329 340.323 603.506 342.633C604.04 356.495 606.884 370.001 615.772 374.799C619.683 376.932 624.127 377.465 627.327 381.019C633.371 387.417 629.638 398.969 623.238 405.899C613.994 415.674 601.551 421.538 591.596 430.602C585.019 436.466 579.686 443.575 574.531 450.861C568.665 459.036 563.154 467.389 556.399 474.853C541.823 490.669 521.735 500.799 500.759 503.465C479.25 506.13 456.496 500.799 438.72 487.47C427.165 478.762 418.277 467.033 410.633 455.126C407.789 450.861 405.123 446.418 404.412 441.442C403.7 436.999 404.767 432.379 405.656 428.114C406.9 422.782 408.322 417.451 409.744 412.297C412.055 404.478 414.544 396.658 417.21 389.017C419.877 381.73 422.721 374.444 423.254 366.802C423.965 358.805 422.01 350.808 420.41 342.811C416.322 320.241 414.366 296.25 425.21 277.412Z" stroke="#F3F3F3" stroke-miterlimit="10"/>
<path d="M458.807 316.332C468.228 292.873 505.559 281.144 526.535 296.072C531.512 299.626 535.245 304.425 540.045 308.69C544.844 312.955 551.244 316.687 557.466 316.687C559.243 316.687 561.021 316.332 562.799 316.865C566.532 317.931 569.198 321.485 570.976 325.04C574.531 332.148 575.42 340.323 575.598 348.498C575.598 350.275 575.598 352.052 575.598 353.829C575.42 364.848 574.353 372.845 576.131 377.11C576.842 378.887 578.264 379.776 578.62 382.797C581.286 386.351 578.797 392.926 575.064 397.192C569.909 403.056 563.154 407.144 557.821 412.83C554.266 416.562 551.422 420.828 548.578 425.27C545.378 430.246 542.534 435.222 538.801 439.843C530.979 449.617 520.135 456.193 508.403 459.214C495.782 462.413 481.205 461.169 470.006 453.172C462.362 447.662 457.029 439.488 453.119 431.49C451.696 428.647 450.452 425.626 450.097 422.427C449.919 419.584 450.452 416.562 450.985 413.719C451.697 410.342 452.585 406.788 453.474 403.412C454.718 398.258 455.963 393.282 457.385 388.306C458.629 383.508 460.051 378.887 460.051 373.911C460.229 368.757 459.163 363.604 458.096 358.45C455.074 344.055 453.652 328.949 458.807 316.332Z" stroke="#F3F3F3" stroke-miterlimit="10"/>
<path d="M492.227 355.251C492.76 368.579 497.737 381.552 496.493 394.881C496.137 399.146 494.893 403.589 495.071 407.854C495.248 412.297 497.026 416.918 500.759 419.05C505.559 421.716 511.958 419.228 515.514 414.963C519.069 410.698 520.491 405.188 521.913 399.679C523.335 394.348 525.113 388.661 529.024 384.751C537.734 376.043 547.511 375.866 546.978 361.293C546.8 353.296 542.534 345.654 535.779 341.389C522.091 332.681 491.338 334.28 492.227 355.251Z" stroke="#F3F3F3" stroke-miterlimit="10"/>
<path d="M318.73 581.481C307.886 596.587 298.465 612.581 290.288 629.286C287.088 635.862 284.066 642.615 284.066 649.901C283.888 666.962 299.531 679.402 313.575 688.998C337.395 705.348 361.215 721.698 385.035 738.047C397.657 746.578 410.811 755.463 425.921 757.241C441.564 759.018 458.274 752.975 472.495 759.551C478.539 762.394 483.516 767.193 489.205 770.391C509.292 781.587 534.534 771.991 553.911 759.906C561.91 754.93 570.62 747.999 570.798 738.403C570.976 728.095 561.021 720.631 551.422 716.899C541.823 713.345 530.979 711.568 523.335 704.815C508.759 691.842 512.669 668.739 509.648 649.546C505.914 624.666 488.849 603.518 468.406 588.945C447.075 573.839 416.855 556.424 392.146 547.538C362.282 536.697 335.262 558.378 318.73 581.481Z" stroke="#F3F3F3" stroke-miterlimit="10"/>
<path d="M347.705 615.069C342.728 623.955 337.573 632.84 334.017 642.259C332.595 645.991 331.173 649.723 331.529 653.633C332.417 663.585 342.55 670.16 351.438 675.492C366.37 684.377 381.125 693.796 395.701 703.571C403.345 708.724 411.344 714.233 420.233 716.011C429.121 717.788 438.542 715.655 446.719 719.387C450.275 720.987 453.297 723.652 456.674 725.252C468.762 731.294 483.339 725.963 494.893 718.854C500.226 715.477 505.381 711.212 506.092 705.348C506.981 698.95 502.359 693.796 497.56 690.597C492.76 687.399 487.249 685.088 482.983 680.29C474.984 671.227 475.339 657.187 471.962 645.636C469.651 637.639 465.207 630.53 459.696 624.665C454.719 619.334 448.497 614.536 441.92 610.626C427.343 602.273 407.611 593.21 391.613 589.656C372.77 585.213 356.949 598.897 347.705 615.069Z" stroke="#F3F3F3" stroke-miterlimit="10"/>
<path d="M376.68 648.479C376.503 651.5 377.214 654.699 379.169 657.009C381.658 659.853 385.746 660.741 389.302 661.63C398.545 664.118 407.256 668.561 414.544 674.425C416.677 676.025 418.633 677.98 420.944 679.046C425.565 681.356 431.432 680.645 435.876 677.802C452.941 667.139 440.497 641.193 425.565 634.973C410.811 628.93 377.925 625.376 376.68 648.479Z" stroke="#F3F3F3" stroke-miterlimit="10"/>
<path d="M1.95532 674.781C20.6205 698.24 56.1731 697.351 85.8596 692.02C115.368 686.688 148.61 679.757 173.319 696.818C192.518 709.791 201.228 733.782 218.649 749.066C236.958 765.06 262.556 769.325 283.71 781.588C317.663 801.314 342.194 842.544 381.658 843.61C392.857 843.965 404.056 840.589 415.255 841.477C433.031 842.899 448.319 854.45 464.851 861.026C502.004 875.776 544.489 865.113 580.219 847.342C615.95 829.57 648.303 805.046 685.278 790.118C722.252 775.012 767.226 771.102 800.113 793.672C853.442 830.281 848.109 912.918 889.883 962.145" stroke="#F3F3F3" stroke-miterlimit="10"/>
<path d="M514.802 919.493C552.844 893.725 592.13 869.733 632.66 847.874C656.124 835.257 680.3 823.172 706.609 818.907C732.918 814.82 761.716 819.618 781.447 837.567C796.735 851.606 804.735 871.866 812.201 891.237C816.111 901.189 819.844 911.141 823.755 921.093" stroke="#F3F3F3" stroke-miterlimit="10"/>
<path d="M588.574 921.271C605.106 909.187 621.638 897.28 638.348 885.195C650.969 875.954 663.946 866.713 678.523 860.848C693.099 854.984 709.809 852.851 724.386 858.36C748.561 867.424 761.005 893.37 771.315 917.006" stroke="#F3F3F3" stroke-miterlimit="10"/>
<path d="M-2.84424 725.785C20.4428 736.27 47.4628 730.761 72.5274 725.785C97.592 720.809 125.501 717.255 147.188 730.761C154.654 735.56 160.876 741.957 167.453 748.177C180.785 760.795 195.54 771.991 210.116 783.187C219.36 790.118 228.604 797.226 239.092 802.025C245.491 804.868 252.424 807.001 258.823 810.022C285.843 822.64 302.909 851.785 330.818 862.981C357.482 873.644 390.19 866.002 414.544 881.285C431.609 891.948 440.675 911.497 446.008 930.868" stroke="#F3F3F3" stroke-miterlimit="10"/>
<path d="M-5.51062 752.265C14.7544 760.973 38.2192 756.175 60.084 752.087C73.4163 749.599 87.6374 747.644 100.97 748.888C109.502 749.777 117.679 752.087 124.968 756.53C131.545 760.44 137.056 765.949 142.744 771.28C154.476 781.943 167.453 791.54 180.252 800.959C188.251 807.001 196.429 813.043 205.494 817.13C211.005 819.618 217.049 821.573 222.56 824.239C230.915 828.149 238.025 833.836 244.958 840.056C257.579 851.429 269.134 864.225 284.421 870.978C291.887 874.177 300.065 875.776 308.242 877.02C324.774 879.33 342.017 879.686 356.238 888.749C370.992 897.99 379.169 914.873 384.324 931.223" stroke="#F3F3F3" stroke-miterlimit="10"/>
<path d="M-8.17712 778.744C9.24368 785.497 29.1532 781.765 47.6406 778.567C59.0174 776.612 71.1053 775.012 82.4822 776.256C89.7705 776.967 96.7032 778.922 103.103 782.476C108.791 785.675 113.591 790.118 118.568 794.383C128.878 803.091 139.9 810.911 150.921 818.908C157.854 823.884 164.787 829.037 172.43 832.592C177.23 834.724 182.207 836.501 186.829 838.812C193.762 842.188 199.984 847.164 205.672 852.496C216.338 862.27 225.937 873.288 238.558 879.331C244.78 882.352 251.535 883.951 258.29 885.195C271.978 887.683 286.377 888.75 298.287 896.391C310.73 904.388 318.196 918.25 322.996 931.756" stroke="#F3F3F3" stroke-miterlimit="10"/>
<path d="M-10.8435 805.401C3.55533 810.199 19.9096 807.356 35.375 805.045C44.7964 803.624 54.7512 802.557 64.1726 803.446C70.2166 804.157 75.905 805.579 81.2379 808.422C86.0375 810.91 90.1261 814.287 94.2146 817.663C102.925 824.416 112.169 830.459 121.412 836.856C127.279 840.766 132.967 844.853 139.367 847.875C143.277 849.652 147.366 851.251 151.099 853.206C156.787 856.227 161.765 860.315 166.564 864.757C175.275 872.932 182.919 882.173 192.873 887.683C197.851 890.348 203.006 892.125 208.516 893.369C219.36 896.213 230.915 897.635 240.692 904.032C250.824 910.785 257.401 921.626 262.023 932.111" stroke="#F3F3F3" stroke-miterlimit="10"/>
<path d="M-13.51 831.881C-1.95539 834.902 10.6658 832.947 22.9315 831.526C30.3975 830.637 38.2191 830.104 45.5074 830.815C50.1293 831.348 54.7511 832.414 59.0174 834.369C62.7504 836.146 66.1279 838.456 69.6832 840.767C76.7937 845.565 84.2598 850.008 91.7259 854.629C96.3477 857.65 100.97 860.671 105.947 863.159C108.969 864.758 112.169 866.002 115.013 867.602C119.457 870.09 123.19 873.289 126.923 876.843C133.5 883.418 139.366 890.882 146.655 895.68C150.21 898.168 154.121 899.768 158.209 901.367C166.209 904.388 174.919 906.521 182.563 911.675C190.562 917.006 196.073 925.181 200.695 932.645" stroke="#F3F3F3" stroke-miterlimit="10"/>
<path d="M-16.1765 858.36C-7.64387 859.426 1.59982 858.36 10.488 857.827C15.9986 857.471 21.5093 857.294 27.02 857.827C30.3975 858.182 33.775 858.893 36.9747 859.959C39.8189 861.026 42.4854 862.27 45.1518 863.691C50.6625 866.535 56.5287 869.2 62.0394 872.399C65.5946 874.354 68.9721 876.487 72.5274 878.264C74.6606 879.508 76.9715 880.574 78.9269 881.818C81.9488 883.773 84.7931 886.261 87.2817 888.927C91.9036 893.903 95.8144 899.412 100.436 903.855C102.747 905.987 105.236 907.764 107.725 909.364C112.88 912.563 118.746 915.228 124.079 919.138C129.767 923.226 134.567 928.379 138.833 933" stroke="#F3F3F3" stroke-miterlimit="10"/>
<path d="M-18.6652 885.017C-9.59923 883.595 -0.533303 884.306 8.53263 885.195C23.1092 886.794 38.9302 889.993 48.1738 901.367C52.2624 906.343 54.5733 912.385 58.1286 917.716C62.9282 924.825 70.0387 930.512 78.0381 933.711" stroke="#F3F3F3" stroke-miterlimit="10"/>
<path d="M613.283 46.9165C606.528 56.6908 604.04 69.1308 596.396 78.3719C586.974 89.9234 571.509 94.3662 560.132 103.963C557.821 105.918 555.688 108.05 554.622 110.716C551.777 117.291 555.866 125.111 561.554 129.554C574.887 140.572 595.863 140.394 606.884 153.723C611.684 159.41 613.817 167.051 618.083 173.094C632.837 193.709 664.657 189.977 687.233 201.883C699.321 208.281 708.565 219.477 712.653 232.45C719.053 253.065 713.72 279.545 730.429 293.406C735.051 297.316 740.918 299.449 746.784 300.87C765.804 305.846 786.425 304.425 804.735 296.961C816.289 292.162 826.777 285.054 837.265 278.301C857.708 264.972 879.04 251.999 903.215 248.267C935.213 243.469 970.054 255.553 999.563 242.225C1026.94 229.785 1041.52 194.597 1030.85 166.341C1023.56 147.147 1006.85 132.397 1001.34 112.493C996.008 93.1222 1002.76 72.3296 1012.01 54.5582C1021.43 36.7868 1033.52 20.4371 1040.45 1.59937C1041.69 -1.59949 1042.76 -5.33149 1041.34 -8.53035C1040.45 -10.4852 1039.03 -11.9069 1037.43 -13.3286C1001.16 -45.6726 952.989 -63.0886 904.638 -66.1098C856.286 -69.3086 807.579 -58.8235 762.427 -40.6966C746.25 -34.1212 730.963 -26.4795 719.586 -13.1509C710.342 -2.31035 701.632 5.68679 688.122 11.3737C663.413 21.6811 629.993 22.9251 613.283 46.9165Z" stroke="#F3F3F3" stroke-miterlimit="10"/>
<path d="M777.715 -15.9944C765.093 -10.8407 753.005 -4.97613 743.762 5.3313C736.296 13.5062 729.363 19.7262 718.697 24.169C699.143 32.3439 673.012 33.4102 659.502 51.8924C653.991 59.3564 651.68 68.953 645.636 76.0616C637.993 84.9473 626.082 88.6793 617.017 96.1433C615.239 97.565 613.639 99.3422 612.572 101.475C610.262 106.451 613.283 112.493 617.372 116.047C627.149 124.578 642.792 124.755 650.792 135.063C654.347 139.506 655.947 145.37 659.146 149.991C670.168 165.985 693.988 163.675 711.053 173.094C720.653 178.425 728.652 186.955 732.563 196.73C734.518 201.528 735.585 206.682 736.651 212.013C738.784 223.387 740.562 234.583 749.983 241.691C753.894 244.535 758.516 246.312 763.316 247.556C778.426 251.643 794.424 251.288 808.645 246.312C817.711 243.113 825.711 238.315 833.888 233.694C844.376 227.652 855.219 221.787 866.774 217.7C872.818 215.567 879.04 213.968 885.617 213.257C911.037 210.058 938.59 218.766 961.522 207.57C982.676 197.44 993.875 170.25 986.231 148.214C981.076 133.286 968.455 121.556 965.077 106.273C961.7 90.8119 967.921 74.8176 975.743 60.7782C983.564 46.7387 993.164 33.5879 997.963 18.1267C998.852 15.461 999.563 12.6176 998.497 9.95187C997.786 8.35244 996.541 7.10845 995.475 6.04216C967.921 -19.7264 930.947 -34.1213 893.083 -36.787C892.194 -36.787 891.305 -36.9647 890.416 -36.9647C852.197 -39.6304 813.445 -30.2116 777.715 -15.9944Z" stroke="#F3F3F3" stroke-miterlimit="10"/>
<path d="M793.002 8.88541C783.758 12.6174 774.87 16.8826 767.938 23.9911C762.427 29.678 757.094 33.9431 749.272 37.142C734.874 43.0066 716.208 44.2506 705.898 56.8683C701.632 62.022 699.676 68.5974 695.055 73.7511C689.366 79.9711 680.656 82.9923 674.256 88.3237C673.012 89.39 671.768 90.634 671.057 92.0557C669.457 95.61 671.234 99.6974 673.901 102.185C680.122 108.228 690.255 108.761 695.588 116.047C697.899 119.246 698.788 123.333 700.921 126.532C708.031 137.906 724.03 137.017 735.762 143.771C743.051 148.213 749.628 154.078 753.361 160.298C755.316 163.497 756.561 166.696 757.805 170.072C760.471 177.181 762.782 184.289 770.426 189.088C773.448 191.043 777.181 192.287 780.914 193.353C791.936 196.552 803.49 197.085 813.445 194.775C819.844 193.353 825.533 190.687 831.399 188.199C838.865 185 846.687 181.801 855.042 179.669C859.486 178.603 864.107 177.714 868.729 177.359C887.394 175.759 907.837 180.913 924.369 172.205C939.124 164.385 947.123 145.015 942.501 129.198C939.301 118.357 931.124 109.827 929.702 98.9865C928.28 87.4351 933.968 75.8837 940.19 65.9317C946.59 55.6243 953.345 45.85 956.189 33.5877C956.722 31.6328 957.078 29.5003 956.189 27.5454C955.656 26.3014 954.767 25.4128 953.878 24.5243C934.324 4.44255 906.948 -7.10888 878.684 -8.53059C877.973 -8.53059 877.262 -8.53059 876.729 -8.53059C848.109 -10.13 819.489 -1.77745 793.002 8.88541Z" stroke="#F3F3F3" stroke-miterlimit="10"/>
<path d="M808.29 33.5882C802.601 35.8985 796.913 38.3865 792.113 42.2962C788.38 45.3174 784.825 47.8054 780.025 49.7602C770.782 53.3145 759.405 54.5585 752.472 61.6671C749.45 64.6882 747.672 68.2425 744.651 71.2637C740.74 74.9957 735.585 76.9505 731.496 80.3271C730.607 81.0379 729.896 81.7488 729.363 82.6374C728.296 84.5922 729.007 86.9025 730.252 88.3242C732.918 91.8785 737.54 92.7671 740.029 97.0322C741.095 98.8094 741.451 101.297 742.517 103.252C745.895 110.005 753.894 110.539 760.294 114.804C765.271 118.18 770.426 121.379 774.159 124.223C776.115 125.644 777.537 127.066 779.137 128.488C782.336 131.509 785.358 134.352 791.047 136.84C793.358 137.729 796.024 138.617 798.513 139.328C805.623 141.639 812.378 143.06 818.422 143.416C822.155 143.593 825.711 143.238 829.088 142.883C833.532 142.349 838.332 141.994 843.487 141.639C846.331 141.461 849.175 141.461 852.197 141.461C864.108 141.461 877.44 143.238 887.394 136.84C895.927 131.509 900.549 119.957 898.771 110.183C897.705 103.608 893.794 98.0985 894.149 91.7008C894.683 84.0591 899.838 77.1282 904.46 70.9082C909.259 64.3328 913.526 57.9351 914.237 48.8717C914.414 47.6277 914.414 46.0282 913.881 44.7842C913.526 44.0734 912.992 43.3625 912.459 42.6517C900.727 28.2568 883.128 19.7265 864.285 19.3711C863.93 19.3711 863.396 19.3711 863.041 19.3711C844.02 19.3711 825.355 26.6574 808.29 33.5882Z" stroke="#F3F3F3" stroke-miterlimit="10"/>
<path d="M787.314 73.3955C783.936 76.5944 781.981 81.7481 784.114 86.0133C788.025 89.5675 794.247 88.8567 799.402 87.2573C804.557 85.6578 810.067 83.703 815.045 85.6578C822.689 88.679 824.288 98.9864 830.866 103.785C836.376 107.872 845.087 106.806 849.531 101.474C853.619 96.4984 853.797 89.3898 858.063 84.5915C865.707 75.8835 877.262 75.3504 870.507 61.1333C866.418 52.603 858.774 46.7384 849.353 47.627C840.465 48.5155 831.577 54.9133 823.4 58.2898C812.378 62.9104 796.202 64.8653 787.314 73.3955Z" stroke="#F3F3F3" stroke-miterlimit="10"/>
<path d="M1369.13 172.205C1350.65 163.853 1331.45 156.744 1312.07 150.88C1301.76 147.859 1287.18 147.148 1283.63 157.277C1282.38 161.009 1283.1 165.097 1282.21 169.007C1280.07 179.136 1268.34 183.757 1258.03 185.001C1255.54 185.356 1252.88 185.534 1250.92 186.956C1247.37 189.266 1246.48 194.242 1246.12 198.507C1244.7 214.501 1244.52 231.384 1235.99 245.068C1223.19 265.683 1195.99 271.548 1171.82 272.081C1145.68 272.792 1119.55 269.415 1094.31 262.484C1076.36 257.508 1057.69 250.4 1039.38 254.665C1029.61 256.975 1020.89 262.307 1011.47 265.505C996.541 270.481 980.365 269.771 964.544 270.837C917.259 273.68 870.863 292.163 834.599 322.729C822.511 332.859 811.134 344.766 805.268 359.339C798.157 376.755 799.402 396.658 804.735 414.608C810.068 432.557 819.489 449.084 828.91 465.434C835.488 476.985 844.554 489.958 857.886 489.781C863.041 489.603 868.374 487.293 873.351 488.892C880.817 491.202 883.128 500.621 888.106 506.664C896.283 516.438 911.748 516.616 923.303 511.284C934.857 505.953 943.746 496.356 953.345 488.004C1004.36 443.575 1076.71 434.334 1144.44 433.801C1161.33 433.623 1178.57 433.979 1194.75 439.132C1204.52 442.331 1213.95 447.129 1223.72 450.15C1240.79 455.304 1258.92 454.416 1276.87 455.127C1316.16 456.726 1355.09 466.856 1390.46 484.449" stroke="#F3F3F3" stroke-miterlimit="10"/>
<path d="M1363.27 198.152C1354.73 190.865 1345.85 183.224 1335 180.38C1324.16 177.537 1310.65 180.736 1305.49 190.688C1304.43 192.643 1303.72 194.953 1301.94 196.552C1299.27 198.863 1295.54 198.507 1292.16 198.685C1280.43 199.396 1269.41 207.926 1265.85 219.122C1261.23 233.161 1267.27 250.044 1259.45 262.662C1254.65 270.481 1245.77 274.569 1237.23 277.768C1206.84 288.964 1173.95 293.407 1141.77 290.563C1111.2 287.897 1080.45 278.656 1050.23 284.343C1039.2 286.476 1028.54 290.385 1017.7 292.873C1004.01 295.895 989.964 296.605 976.098 298.56C950.323 302.115 925.258 310.289 902.149 322.374C881.173 333.392 861.441 348.143 850.064 368.935C838.865 389.728 837.799 417.273 852.197 435.933C854.508 438.954 857.353 441.798 861.086 442.864C866.063 444.286 871.396 442.331 876.551 443.22C888.639 445.352 893.439 462.591 905.526 464.723C911.037 465.612 916.548 463.124 921.525 460.636C958.144 441.976 994.053 420.295 1034.23 411.764C1053.78 407.677 1073.69 406.966 1093.6 406.255C1128.44 405.011 1163.82 403.767 1197.59 412.653C1208.97 415.674 1219.99 419.761 1231.54 422.249C1255.9 427.403 1280.96 424.737 1305.67 427.048C1328.43 429.18 1350.82 435.933 1371.27 446.419" stroke="#F3F3F3" stroke-miterlimit="10"/>
<path d="M922.947 352.941C915.837 356.85 908.726 361.116 904.282 367.869C899.838 374.622 898.949 384.396 904.46 390.261C907.304 393.46 911.748 395.414 913.704 399.146C915.126 402.168 914.592 405.9 915.837 409.098C917.614 414.252 923.48 416.918 928.991 416.918C934.502 416.918 939.657 414.608 944.457 412.297C974.321 398.613 1004.19 383.152 1036.72 378.532C1064.8 374.444 1093.6 378.709 1121.69 374.089C1132 372.489 1143.73 367.869 1146.04 357.739C1152.44 330.193 1110.31 310.112 1088.44 311.356C1053.43 313.488 1017.87 317.042 984.098 327.172C963.122 333.925 942.501 342.456 922.947 352.941Z" stroke="#F3F3F3" stroke-miterlimit="10"/>
<path d="M1371.8 227.652C1363.98 228.718 1356.51 224.098 1349.4 220.544C1342.29 216.812 1333.4 214.146 1326.83 218.589C1322.56 221.432 1320.43 226.586 1316.34 229.785C1313.14 232.273 1308.69 233.339 1305.85 236.36C1301.94 240.27 1301.58 246.49 1300.69 251.821C1298.38 264.972 1291.27 277.234 1280.78 285.765C1269.76 294.828 1255.72 299.271 1242.21 303.714C1228.7 308.157 1214.83 313.31 1204.35 323.085C1194.04 332.859 1188.17 348.853 1194.21 361.826C1200.08 374.622 1215.01 380.486 1228.88 383.152C1253.05 387.95 1278.12 386.884 1302.47 389.905C1327 392.926 1352.25 400.924 1368.42 419.584" stroke="#F3F3F3" stroke-miterlimit="10"/>
<path d="M1368.42 273.502C1365.4 268.348 1358.82 265.86 1353.13 266.927C1347.27 267.993 1342.29 272.258 1339.8 277.767C1338.38 280.966 1337.67 284.698 1336.25 287.897C1331.09 299.981 1317.23 304.957 1305.14 309.933C1295.18 314.021 1285.58 318.997 1276.52 324.506C1269.41 328.949 1261.76 335.169 1261.59 343.521C1261.59 349.564 1265.67 355.073 1270.83 358.094C1275.99 361.115 1282.21 362.004 1288.25 362.537C1302.83 363.603 1317.76 361.826 1332.34 364.492C1346.73 366.98 1360.24 373.911 1370.91 383.863" stroke="#F3F3F3" stroke-miterlimit="10"/>
<path d="M1363.44 310.822C1355.27 313.488 1347.09 315.976 1338.91 318.642C1336.07 319.53 1333.05 320.419 1330.74 322.374C1327 325.395 1325.23 330.193 1325.23 334.991C1325.23 338.013 1325.94 341.034 1327.89 343.166C1332.16 347.787 1339.62 346.01 1345.67 344.766C1357.4 342.455 1371.62 344.41 1378.02 354.54" stroke="#F3F3F3" stroke-miterlimit="10"/>
<path d="M984.809 353.652C982.676 354.718 980.365 355.784 979.12 357.739C977.876 359.694 977.876 362.893 980.009 364.137C981.431 365.025 983.387 364.67 985.164 364.315C1005.96 359.516 1026.94 354.363 1048.27 353.474C1055.03 353.119 1080.8 358.628 1074.22 348.498C1069.25 340.856 1049.51 338.902 1041.52 339.079C1022.32 339.257 1001.87 345.832 984.809 353.652Z" stroke="#F3F3F3" stroke-miterlimit="10"/>
<path d="M705.009 488.892C680.656 510.573 666.79 542.562 641.014 562.643C627.504 573.129 609.728 581.836 605.817 598.542C603.684 607.605 606.351 617.024 609.728 625.732C612.217 632.13 615.239 638.35 619.327 643.859C638.17 668.739 676.745 672.293 694.521 698.062C700.743 706.947 703.943 718.143 711.942 725.607C719.764 732.894 730.785 735.382 741.451 735.915C752.117 736.448 762.782 735.026 773.448 735.915C799.935 738.047 826.066 753.508 851.842 746.755C867.485 742.49 879.928 730.583 889.883 717.966C898.771 706.592 906.771 693.441 908.371 679.046C911.392 651.5 891.305 626.087 891.483 598.364C891.483 590.189 893.261 582.192 893.438 574.017C893.616 565.842 892.016 557.134 886.328 551.27C881.173 545.938 873.173 543.45 869.44 537.053C868.374 535.275 867.84 533.143 866.596 531.543C861.085 523.546 848.998 527.634 839.221 527.101C805.979 524.968 808.468 480.362 785.358 465.967C762.249 451.394 721.897 473.964 705.009 488.892Z" stroke="#F3F3F3" stroke-miterlimit="10"/>
<path d="M720.297 526.923C714.431 532.432 709.453 538.652 704.831 545.227C696.477 556.956 688.477 569.396 677.1 578.46C667.857 585.746 655.769 591.788 652.747 603.34C651.147 609.56 652.747 615.957 654.88 622C656.48 626.443 658.257 630.708 660.924 634.44C673.012 651.678 698.965 654.344 710.164 672.471C713.186 677.269 715.853 682.6 719.408 686.865C721.186 688.998 723.141 690.953 725.63 692.552C727.763 693.974 730.252 695.04 732.918 695.929C738.251 697.528 744.117 698.061 749.806 698.239C757.449 698.595 765.093 697.884 772.737 698.595C786.069 699.839 799.046 705.703 812.023 707.48C817.711 708.191 823.222 708.191 828.732 706.769C839.932 703.926 848.997 695.751 856.464 686.865C863.219 678.868 868.907 669.627 870.151 659.675C872.64 640.304 858.597 622.177 857.53 602.629C857.175 596.942 858.241 591.433 858.063 585.746C857.886 580.059 856.464 574.195 852.375 570.107C848.642 566.375 842.954 564.598 840.287 560.155C839.576 558.911 839.043 557.489 838.154 556.423C834.065 550.914 825.355 553.402 818.422 552.869C794.957 550.914 794.957 520.88 778.248 510.928C764.027 502.753 741.451 511.995 727.23 521.769C724.563 523.368 722.075 525.145 720.297 526.923Z" stroke="#F3F3F3" stroke-miterlimit="10"/>
<path d="M735.584 564.776C732.562 567.975 730.074 571.53 727.763 575.084C723.674 581.837 719.408 588.59 713.364 593.744C708.387 597.831 701.987 601.385 700.032 607.605C698.965 610.982 699.499 614.359 700.387 617.558C700.921 619.868 701.809 622.356 702.876 624.311C708.209 633.729 721.008 635.862 726.341 646.347C728.296 650.257 730.963 654.167 734.162 656.299C735.94 657.543 737.718 658.432 739.673 658.965C741.451 659.498 743.406 659.854 745.361 659.854C749.45 660.031 753.894 659.676 758.338 659.854C762.96 660.031 767.582 659.854 772.204 660.387C780.203 661.453 788.025 665.007 795.846 666.074C799.224 666.607 802.601 666.607 805.979 665.896C812.912 664.474 818.6 660.031 823.4 654.878C827.844 650.257 831.221 645.103 832.288 639.239C834.243 627.865 826.066 617.202 824.111 606.006C823.577 602.807 823.577 599.786 823.044 596.587C822.511 593.388 821.266 590.189 818.778 587.879C816.467 585.747 813.089 584.68 811.312 582.37C810.778 581.659 810.423 580.948 809.89 580.415C807.223 577.394 802.068 578.46 797.802 577.927C783.936 576.15 781.803 560.333 771.137 555.18C761.893 550.737 748.561 555.535 739.673 561.044C738.073 562.644 736.651 563.71 735.584 564.776Z" stroke="#F3F3F3" stroke-miterlimit="10"/>
<path d="M752.294 601.74C751.761 601.918 751.05 602.273 750.694 602.807C750.339 603.517 750.517 604.406 750.517 605.295C750.872 611.515 741.273 614.891 741.984 621.111C742.34 624.132 745.362 626.443 748.561 626.798C751.583 627.154 754.783 626.087 757.627 625.021C760.471 623.955 763.493 622.711 766.693 622.711C771.137 622.711 775.048 625.376 779.492 626.265C783.047 626.976 786.958 626.265 790.158 624.488C801.535 618.09 788.914 608.493 781.625 606.005C773.093 602.984 760.827 598.186 752.294 601.74Z" stroke="#F3F3F3" stroke-miterlimit="10"/>
<path d="M909.793 926.958C890.95 896.568 875.484 863.869 863.93 829.926C860.73 820.507 857.708 810.022 861.441 800.781C867.307 785.853 886.328 781.943 898.416 771.458C911.748 759.729 916.014 740.18 929.88 729.162C940.546 720.631 955.122 718.677 968.81 719.743C982.498 720.809 995.83 724.541 1009.34 725.963C1031.03 728.273 1052.89 725.074 1074.58 726.141C1096.27 727.207 1119.55 733.96 1132.53 751.376C1139.11 760.084 1142.48 770.569 1148 779.988C1160.62 801.136 1184.08 814.642 1208.61 818.552C1232.97 822.284 1258.21 817.308 1280.96 807.889C1296.78 801.314 1311.89 792.783 1328.43 788.696C1345.14 784.786 1364.33 786.386 1376.6 798.293C1380.51 802.025 1389.04 805.934 1392.78 810.022C1409.66 828.859 1419.62 853.029 1424.95 877.731C1430.11 902.433 1430.64 927.846 1430.46 953.082" stroke="#F3F3F3" stroke-miterlimit="10"/>
<path d="M956.544 924.647C941.612 901.189 929.524 875.954 920.636 849.652C918.148 842.366 915.837 834.191 918.681 827.082C923.125 815.531 937.346 812.154 946.412 803.802C956.545 794.383 960.1 778.922 971.121 770.036C979.476 763.105 991.031 761.328 1001.87 762.039C1006.14 762.217 1010.58 762.928 1014.85 763.638C1021.25 764.705 1027.65 765.949 1034.23 766.659C1051.47 768.614 1068.71 766.482 1085.96 767.548C1103.02 768.437 1121.15 773.413 1131.82 786.386C1137.15 792.783 1140 800.603 1144.62 807.534C1151.91 818.374 1162.93 826.549 1175.55 831.347C1181.06 833.48 1186.93 834.902 1192.79 835.79C1211.99 838.634 1231.9 834.902 1249.85 828.149C1262.3 823.528 1274.03 817.13 1287.01 814.998C1299.98 812.687 1314.74 815.175 1323.8 825.305C1326.83 828.504 1333.22 832.058 1335.89 835.435C1348.51 850.718 1356.33 869.911 1360.78 889.46C1365.04 909.009 1366.11 929.09 1366.82 948.817" stroke="#F3F3F3" stroke-miterlimit="10"/>
<path d="M1003.12 922.16C992.275 905.633 983.387 887.683 977.165 869.023C975.387 863.87 973.787 858.005 975.565 852.851C978.409 844.499 988.008 841.833 994.052 835.613C1001.16 828.327 1004.01 816.953 1012.01 810.378C1018.23 805.224 1026.58 803.624 1034.58 803.802C1037.78 803.802 1040.98 804.158 1044.18 804.691C1048.98 805.402 1053.78 806.29 1058.4 806.823C1071.02 808.423 1083.82 807.534 1096.62 808.245C1109.07 808.956 1122.22 812.155 1130.4 820.685C1134.49 824.95 1136.97 829.926 1140.53 834.547C1146.22 841.655 1154.39 846.809 1163.64 849.83C1167.73 851.252 1171.99 852.14 1176.26 852.674C1190.3 854.451 1204.88 852.141 1217.86 848.053C1226.92 845.21 1235.45 841.3 1244.52 840.767C1253.94 840.234 1263.9 843.433 1269.94 851.607C1271.9 854.273 1276.16 857.294 1278.12 859.96C1286.3 871.867 1292.16 885.906 1295.72 900.301C1299.09 914.696 1300.69 929.446 1302.12 943.663" stroke="#F3F3F3" stroke-miterlimit="10"/>
<path d="M1049.69 919.849C1042.76 910.431 1037.25 899.768 1033.52 888.572C1032.45 885.373 1031.56 881.996 1032.45 878.975C1033.69 873.999 1038.67 871.867 1041.69 867.779C1045.6 862.625 1047.74 855.517 1052.71 851.074C1056.63 847.697 1061.96 846.098 1067.11 845.92C1069.25 845.743 1071.2 845.92 1073.33 846.098C1076.53 846.453 1079.56 846.987 1082.58 847.342C1090.76 848.408 1099.11 848.764 1107.29 849.475C1115.11 850.008 1123.29 851.607 1128.97 855.517C1131.82 857.472 1133.77 859.782 1136.44 861.915C1140.53 865.113 1145.86 867.424 1151.73 868.668C1154.22 869.201 1157.06 869.556 1159.73 869.912C1168.62 870.623 1177.68 869.556 1185.86 868.312C1191.55 867.424 1196.88 866.002 1202.21 866.891C1208.26 868.135 1213.23 872.044 1216.26 878.442C1217.32 880.575 1219.28 882.885 1220.35 885.195C1224.43 893.548 1227.99 902.611 1230.66 912.03C1233.32 921.271 1235.28 930.69 1237.41 939.398" stroke="#F3F3F3" stroke-miterlimit="10"/>
<path d="M1096.44 917.538C1091.47 913.273 1088.44 906.342 1089.69 899.945C1090.93 893.547 1096.44 887.86 1103.02 887.327C1108.35 886.971 1113.33 889.637 1118.66 890.348C1125.95 891.414 1133.06 888.571 1140.35 887.149C1147.64 885.728 1156.17 886.616 1160.44 892.658C1163.82 897.457 1162.93 904.032 1163.28 909.897C1163.82 918.96 1167.55 927.668 1173.42 934.421" stroke="#F3F3F3" stroke-miterlimit="10"/>
</g>
<defs>
<clipPath id="clip0">
<rect width="1367" height="921" fill="white"/>
</clipPath>
</defs>
</svg>
