<svg width="1228" height="547" viewBox="0 0 1228 547" fill="none" xmlns="http://www.w3.org/2000/svg">
<g clip-path="url(#clip0)">
<path d="M0.000164703 -657.341C0.000173049 -689.751 30.3596 -713.596 61.8462 -705.918L1528.66 -348.215C1556.36 -341.46 1572.82 -312.943 1564.8 -285.58L1328.72 520.158C1320.96 546.658 1293.18 561.847 1266.68 554.082L35.9415 193.485C14.6374 187.243 1.75105e-05 167.702 2.68253e-05 145.502L0.000164703 -657.341Z" fill="#0094FF"/>
<mask id="mask0" mask-type="alpha" maskUnits="userSpaceOnUse" x="0" y="-698" width="1567" height="1265">
<path d="M0.000164703 -647.341C0.000173049 -679.751 30.3596 -703.596 61.8462 -695.918L1528.66 -338.215C1556.36 -331.46 1572.82 -302.943 1564.8 -275.58L1328.72 530.158C1320.96 556.658 1293.18 571.847 1266.68 564.082L35.9415 203.485C14.6374 197.243 1.75105e-05 177.702 2.68253e-05 155.502L0.000164703 -647.341Z" fill="#0094FF"/>
</mask>
<g mask="url(#mask0)">
<g opacity="0.2">
<path d="M519.902 -4.26511C500.171 -10.8405 485.061 4.08747 469.417 12.7955C454.663 21.148 439.198 24.5246 432.62 42.4738C429.954 49.76 429.243 57.9349 425.332 64.5103C422.31 69.4863 417.866 73.2183 413.422 76.7726C402.578 85.6583 391.557 94.7218 380.714 103.607C373.603 109.472 366.315 115.514 361.871 123.511C357.427 131.509 356.36 142.171 361.693 149.635C371.114 162.609 391.202 158.166 406.311 163.319C426.043 170.25 435.642 193.353 454.485 202.417C453.241 212.546 453.241 225.164 462.129 229.962C470.129 234.227 479.55 229.074 487.727 225.697C497.326 221.61 508.525 219.833 518.302 223.742C528.079 227.652 535.368 238.315 533.057 248.445C531.101 256.619 523.635 264.261 526.657 272.081C527.902 275.457 531.101 277.945 533.057 280.966C544.789 299.271 517.058 325.75 543.9 335.525C563.988 342.811 588.341 336.235 604.873 354.362C621.05 371.956 613.05 402.167 599.362 418.873C585.497 435.755 560.254 425.981 547.811 445.707C545.678 449.084 544.434 452.994 542.123 456.37C534.657 468.277 519.013 472.009 508.525 481.428C493.771 494.579 491.105 516.793 478.661 532.254C470.662 542.206 459.285 548.604 449.152 556.423C439.02 564.243 429.598 574.55 428.532 587.346C427.643 597.653 432.976 607.427 432.62 617.735C432.265 629.286 428.176 637.994 429.776 650.257C430.31 654.166 431.021 658.076 433.687 660.919C436.887 664.651 442.22 665.54 446.664 667.673C465.329 676.203 469.773 703.571 488.616 711.568C498.748 715.833 511.903 713.878 519.724 721.52C526.302 728.095 526.124 739.291 521.502 747.289C517.058 755.463 509.236 760.973 501.593 766.304C458.574 795.627 411.111 818.552 361.515 834.191C358.315 835.257 354.76 836.146 351.56 834.902C345.872 832.769 344.983 825.127 341.961 819.796C336.984 810.555 325.074 807.356 314.763 808.067C304.275 808.778 294.321 812.332 283.833 813.043C247.747 815.353 219.838 783.72 191.751 760.973C168.464 742.135 141.266 727.918 112.469 719.565C106.603 717.788 100.025 716.011 96.2922 711.035C91.1371 704.104 93.6258 694.507 93.0925 685.977C92.2037 671.582 81.1824 658.609 67.3168 655.233C60.0285 653.455 52.5624 654.166 45.0964 653.811C13.4545 652.211 -20.676 632.13 -47.3405 649.368C-54.0955 653.811 -59.9617 660.564 -67.9611 661.808C-74.005 662.874 -80.049 660.386 -85.7374 658.076C-111.513 647.235 -137.289 636.573 -163.064 625.732" stroke="#F3F3F3" stroke-width="3" stroke-miterlimit="10"/>
<path d="M1249.09 514.305C1231.13 515.549 1215.49 503.287 1198.78 496.889C1178.69 489.248 1156.65 490.136 1135.32 488.181C1082.35 483.383 1031.5 460.458 978.354 461.524C936.046 462.413 895.338 478.407 858.363 499.022C840.409 508.974 822.633 520.525 809.656 536.52C789.747 561.044 783.17 595.876 792.769 626.088C802.19 656.299 827.61 681.001 857.83 689.709C888.228 698.595 920.581 692.02 952.222 693.264C983.864 694.508 1019.59 708.192 1028.48 738.581C1030.08 744.268 1030.79 750.31 1033.64 755.464C1038.08 763.816 1047.33 768.259 1056.04 772.169C1073.28 779.811 1092.12 786.741 1110.61 783.365C1128.03 780.166 1142.43 768.437 1158.61 761.151C1190.07 747.111 1229.18 751.732 1256.38 773.057" stroke="#F3F3F3" stroke-width="3" stroke-miterlimit="10"/>
<path d="M952.756 -8.17383C937.113 8.53131 920.403 24.7033 909.204 44.6073C898.005 64.5113 893.028 89.569 902.094 110.539C911.337 131.51 934.091 148.926 930.002 171.495C928.758 178.782 924.67 185.357 923.425 192.643C921.47 205.439 929.114 218.234 939.424 226.054C949.912 233.695 962.711 237.427 975.332 240.626C994.886 245.78 1015.51 250.4 1035.42 246.491C1055.33 242.581 1074.52 227.831 1077.01 207.571C1078.26 198.152 1075.77 188.734 1075.95 179.137C1076.3 169.718 1080.75 159.055 1089.99 156.745C1097.63 154.79 1106.34 159.055 1113.28 155.501C1123.41 150.347 1120.39 134.886 1125.36 124.579C1131.76 111.072 1150.61 108.94 1164.47 114.094C1178.34 119.247 1190.07 129.377 1203.76 134.886C1221.18 141.639 1241.62 140.218 1257.8 130.976" stroke="#F3F3F3" stroke-width="3" stroke-miterlimit="10"/>
<path d="M1235.93 542.386C1205.54 529.057 1172.12 524.792 1139.41 520.705C1113.99 517.506 1088.74 514.307 1063.32 511.108C1032.93 507.376 1002.17 503.466 971.599 506.488C940.668 509.509 910.626 519.816 884.139 536.166C868.141 546.118 853.208 558.558 844.676 575.263C836.143 591.968 835.254 613.472 845.92 628.755C852.32 637.818 862.097 644.038 872.407 648.304C897.827 659.144 926.269 659.5 953.822 663.054C981.198 666.608 1010.17 674.605 1027.95 695.931C1037.9 707.838 1043.59 723.299 1054.79 733.962C1078.79 756.709 1117.54 750.134 1149.01 739.826C1180.47 729.519 1215.67 717.079 1245.35 731.829" stroke="#F3F3F3" stroke-miterlimit="10"/>
<path d="M1240.91 582.548C1202.16 564.777 1162.69 548.072 1121.1 538.475C1079.5 528.878 1035.59 526.568 994.53 537.586C978.532 541.852 962.888 548.427 950.801 559.801C938.89 571.174 931.424 588.235 934.446 604.407C937.646 620.579 950.445 633.197 964.844 641.016C979.243 648.836 995.419 652.923 1010.88 658.432C1026.35 664.119 1041.82 671.761 1051.59 684.734C1055.33 689.532 1058.17 695.041 1062.08 699.662C1072.75 711.924 1090.52 715.656 1106.7 714.234C1122.88 712.813 1138.16 706.77 1153.81 702.15C1184.91 693.086 1217.62 689.887 1249.8 692.731" stroke="#F3F3F3" stroke-miterlimit="10"/>
<path d="M964.133 2.66602C948.312 13.3289 934.624 27.7237 927.514 45.4952C920.403 63.0889 920.759 84.4146 931.069 100.409C936.935 109.65 945.823 116.759 950.978 126.355C957.556 138.617 957.378 153.19 956.311 167.052C955.778 175.049 954.889 183.757 958.622 190.865C962.178 197.796 969.11 202.239 976.221 205.616C986.353 210.414 997.375 213.968 1008.4 212.902C1021.55 211.48 1033.64 202.95 1039.5 191.221C1043.95 182.335 1044.84 172.028 1047.15 162.431C1049.64 152.835 1054.44 142.705 1063.32 138.617C1068.84 136.129 1075.06 135.952 1080.57 133.464C1098.52 125.111 1097.63 97.5654 1113.1 85.3032C1123.59 76.9506 1138.87 78.1946 1151.32 82.8152C1163.76 87.4357 1174.96 95.2552 1187.76 99.5203C1208.56 106.451 1232.38 102.719 1250.15 90.1014" stroke="#F3F3F3" stroke-miterlimit="10"/>
<path d="M1005.91 2.6672C995.774 7.99863 986.531 14.7518 978.354 22.7489C966.444 34.4781 956.667 51.0055 961.111 66.9998C964.666 79.7952 976.221 89.0363 979.954 101.832C981.909 108.585 981.553 115.871 982.62 122.802C983.864 129.733 987.42 137.197 994.175 139.507C996.841 140.396 999.863 140.396 1002.71 139.685C1016.22 136.486 1021.91 120.492 1032.22 111.073C1040.93 103.076 1052.84 99.6992 1062.61 93.1238C1077.19 83.1718 1085.72 65.7558 1087.86 48.1621C1090.17 30.5683 1086.61 12.7969 1081.46 -4.08594" stroke="#F3F3F3" stroke-miterlimit="10"/>
<path d="M1112.56 1.95508C1112.56 27.7236 1128.74 52.9591 1152.21 63.6219C1165.72 69.8419 1181 71.2637 1195.76 72.1522C1211.76 73.2185 1229 73.5739 1242.87 65.5768" stroke="#F3F3F3" stroke-miterlimit="10"/>
<path d="M1150.61 -0.533203C1150.07 9.77423 1157.72 19.0154 1166.43 24.7022C1178.52 32.6994 1193.09 36.0759 1207.49 36.4314C1221.89 36.7868 1236.29 33.9434 1250.15 30.2114" stroke="#F3F3F3" stroke-miterlimit="10"/>
<path d="M1031.15 3.19997C1031.33 12.6188 1023.15 19.9051 1018.71 28.08C1015.68 33.4114 1014.26 39.6314 1013.02 45.6737C1011.42 54.0263 1011.24 64.156 1018.17 69.132C1022.79 72.5085 1029.37 72.1531 1034.53 69.4874C1039.5 66.8217 1043.42 62.2011 1046.44 57.4028C1058.53 38.3874 1061.37 13.8628 1054.08 -7.46289" stroke="#F3F3F3" stroke-miterlimit="10"/>
<path d="M-138.533 203.84C-131.778 213.614 -122.179 221.078 -112.402 227.653C-79.8713 249.334 -42.3633 264.262 -3.43309 266.75C35.4971 269.238 75.8493 259.286 106.78 235.473C121.357 224.277 133.8 210.237 149.621 200.818C174.686 185.89 205.261 184.113 233.881 178.782C262.679 173.45 293.254 161.899 306.942 135.953C312.986 124.579 315.119 111.25 322.94 100.943C334.139 86.5481 354.227 82.1053 367.381 69.6653C379.825 57.9361 384.802 40.5201 394.401 26.4807C405.6 9.95328 423.199 -1.95359 442.753 -6.04102" stroke="#F3F3F3" stroke-miterlimit="10"/>
<path d="M-138.711 181.803C-132.845 190.333 -124.49 196.731 -115.957 202.595C-87.8706 221.611 -55.1622 234.762 -21.3871 237.25C12.3879 239.915 47.4073 231.385 74.7828 211.659C79.2269 208.46 83.4932 205.083 87.7595 201.351C96.1144 194.065 103.758 186.423 112.646 180.381C116.202 177.893 119.935 175.938 123.846 174.161C140.022 166.519 158.865 163.676 177.175 160.655C180.552 160.122 183.929 159.588 187.129 158.878C201.884 156.212 217.171 152.124 229.97 144.66C239.569 139.151 247.924 131.687 253.435 122.091C259.123 112.139 261.612 100.41 268.545 91.3462C278.677 78.373 295.92 73.5747 307.119 62.0233C311.564 57.4027 314.941 51.8936 317.963 46.029C321.874 38.2096 325.074 30.0347 329.518 22.7485C338.584 7.64274 353.338 -3.55326 370.225 -8.17383" stroke="#F3F3F3" stroke-miterlimit="10"/>
<path d="M-138.889 159.944C-133.911 167.052 -126.801 172.739 -119.512 177.715C-95.6922 194.065 -68.1389 205.438 -39.3412 207.926C-10.5435 210.592 18.9652 203.661 42.6077 187.845C46.6963 185.179 50.607 182.336 54.3401 179.137C61.8061 172.739 68.0278 165.63 75.3161 159.766C78.1604 157.456 81.3601 155.501 84.5598 153.724C98.0698 146.082 114.78 143.061 131.134 140.395C134.156 139.862 137 139.506 140.022 138.973C153.176 136.663 166.686 133.464 178.241 127.244C186.952 122.624 194.418 116.404 199.573 108.051C204.906 99.5208 207.572 89.5688 213.972 81.3939C222.86 70.0202 237.436 64.8665 246.68 54.2036C250.413 49.9385 253.079 44.9625 255.39 39.8088C258.59 32.8779 261.079 25.5916 264.456 18.8385C271.567 5.1545 283.121 -5.50836 297.52 -10.3066" stroke="#F3F3F3" stroke-miterlimit="10"/>
<path d="M-139.066 137.909C-134.8 143.773 -129.112 148.394 -123.245 152.481C-103.691 166.165 -81.1156 175.584 -57.473 178.25C-33.8305 180.916 -9.65469 175.762 10.4326 163.855C13.9878 161.722 17.7209 159.59 20.9206 156.746C27.4978 151.237 32.2975 144.662 38.1637 138.975C40.4746 136.842 42.7855 134.71 45.4519 133.11C56.4733 125.646 70.8721 122.27 85.0932 119.96C87.7596 119.604 90.2483 119.071 92.9148 118.716C104.292 116.938 116.202 114.45 126.512 109.474C134.156 105.742 140.911 100.589 145.888 93.6579C151.043 86.727 153.888 78.1967 159.398 71.2659C167.22 61.3139 178.774 55.8047 186.241 46.0304C189.085 42.1207 191.218 37.6779 192.996 33.0573C195.306 27.015 197.084 20.4396 199.573 14.575C204.728 2.31273 213.261 -7.63927 225.171 -12.9707" stroke="#F3F3F3" stroke-miterlimit="10"/>
<path d="M-139.244 115.872C-135.867 120.493 -131.423 124.047 -126.801 127.423C-111.691 138.442 -94.0923 146.083 -75.6049 148.749C-57.1175 151.415 -38.2746 148.038 -21.9204 140.041C-18.7206 138.442 -15.5209 137.02 -12.6767 134.71C-6.98824 130.089 -3.61073 124.047 0.655586 118.715C2.25546 116.583 4.03309 114.628 5.98849 113.029C14.3434 105.565 26.7868 102.01 38.8747 100.055C41.0079 99.6999 43.3188 99.3445 45.4519 98.9891C55.2289 97.5674 65.3614 95.9679 74.2496 92.2359C81.0046 89.3925 86.8708 85.3051 91.4927 79.9737C96.2923 74.4645 99.492 67.7114 104.292 61.6691C111.047 53.1388 119.757 47.2742 125.09 38.5662C127.223 35.0119 128.645 31.1022 129.89 27.1925C131.489 21.8611 132.378 16.3519 133.978 11.0205C137.178 0.179934 142.511 -9.06121 151.932 -14.9258" stroke="#F3F3F3" stroke-miterlimit="10"/>
<path d="M-139.422 94.0128C-136.933 97.2116 -133.733 100.055 -130.356 102.543C-119.512 110.896 -106.891 116.76 -93.5589 119.426C-80.2267 121.914 -66.3611 120.67 -53.9177 116.227C-51.0735 115.338 -48.2293 114.272 -45.9184 112.495C-41.1187 108.941 -39.1634 103.254 -36.4969 98.1002C-35.4303 96.1454 -34.3637 94.1905 -32.9416 92.4134C-27.2532 84.9494 -16.9429 81.2174 -6.81041 79.6179C-5.03278 79.2625 -3.0774 79.0848 -1.29976 78.9071C6.87735 77.8408 15.2322 77.1299 22.8761 74.6419C28.5645 72.6871 33.7196 69.8436 38.1637 65.7562C42.6078 61.6688 46.1631 56.5151 50.0739 51.7168C55.5845 44.7859 61.6285 38.5659 65.006 30.5688C66.4281 27.3699 67.3169 23.9934 67.8502 20.6168C68.5612 16.1739 68.9168 11.3756 69.4501 6.75508C70.5166 -2.66378 72.8276 -11.3718 79.7603 -17.4141" stroke="#F3F3F3" stroke-miterlimit="10"/>
<path d="M-139.6 71.9759C-126.445 86.7262 -106.002 94.5457 -86.2706 92.2354C-83.9597 91.8799 -81.471 91.5245 -79.5156 90.1028C-74.0049 86.3708 -74.8938 78.1959 -72.4051 71.9759C-69.2053 64.5119 -61.0282 60.6022 -53.2066 59.3582C-45.3851 57.9365 -37.2079 58.6474 -29.2086 56.8702C-9.83239 52.7828 5.27749 33.9451 4.92196 14.0411C4.7442 2.48966 0.122368 -10.3058 6.52185 -19.9023" stroke="#F3F3F3" stroke-miterlimit="10"/>
<path d="M-171.419 558.913C-154.354 580.771 -134.445 604.23 -106.891 607.429C-84.3154 610.094 -62.6283 598.187 -39.8746 597.832C-18.1874 597.299 2.43313 607.429 23.9425 610.45C53.9845 614.715 84.9153 605.296 110.158 588.235C153.354 559.09 180.552 507.731 180.196 455.661C180.019 437.178 176.819 418.341 180.196 400.214C182.863 386.53 189.262 373.912 193.529 360.761C201.706 336.059 202.95 309.046 197.084 283.811C195.484 276.702 192.995 269.594 188.196 264.262C179.13 254.488 163.664 253.599 151.221 257.865C138.6 262.13 128.112 270.482 116.913 277.591C71.7608 306.203 16.2987 314.022 -37.0303 312.245C-53.5623 311.712 -70.2721 310.113 -86.093 304.781C-107.247 297.495 -125.201 283.455 -142.8 269.771C-150.443 263.907 -159.865 261.597 -169.286 263.374C-178.708 265.151 -187.063 270.66 -194.529 276.88C-223.326 300.871 -240.569 338.191 -240.214 375.689C-240.036 391.15 -237.192 406.256 -233.459 421.362C-221.904 469.167 -201.817 520.171 -171.419 558.913Z" stroke="#F3F3F3" stroke-miterlimit="10"/>
<path d="M-69.2056 333.215C-86.2709 328.062 -101.381 318.11 -116.135 308.158C-122.535 303.893 -130.178 302.293 -137.822 303.715C-145.466 305.137 -152.399 309.402 -158.621 314.2C-182.796 333.038 -198.084 362.005 -198.973 392.394C-199.328 404.834 -197.373 417.274 -194.707 429.537C-184.93 467.034 -169.286 507.198 -145.288 537.765C-131.778 555.003 -115.602 573.307 -93.9147 576.151C-76.1384 578.461 -58.7176 569.753 -40.7635 569.22C-22.9872 568.687 -6.2774 575.44 10.9656 577.039C35.1415 579.172 59.8506 570.642 80.6489 556.958C114.957 534.21 137.355 495.113 138.6 454.417C138.955 440.022 136.822 425.449 139.844 411.232C142.155 400.569 147.132 390.617 150.51 380.31C156.909 360.761 157.62 339.791 152.821 319.887C151.399 314.378 149.621 308.869 145.71 304.603C138.777 296.962 126.69 295.895 116.913 298.739C107.136 301.582 98.7807 307.625 89.8926 312.778C54.5177 333.393 10.7879 339.08 -30.9865 337.836C-43.9632 338.014 -56.94 336.947 -69.2056 333.215Z" stroke="#F3F3F3" stroke-miterlimit="10"/>
<path d="M-52.4957 361.65C-65.4724 358.628 -77.5603 352.764 -89.4705 346.544C-94.4478 343.878 -100.492 342.99 -106.358 344.234C-112.402 345.478 -117.735 348.499 -122.712 351.875C-142.266 365.382 -155.598 386.174 -157.732 409.277C-158.443 418.696 -157.554 428.292 -155.776 438.067C-147.955 465.257 -136.756 494.58 -119.335 516.972C-109.202 529.767 -97.1143 542.918 -81.1156 545.406C-67.9611 547.361 -54.9844 541.674 -41.6521 541.141C-27.7866 540.608 -14.9876 544.162 -1.83313 543.984C16.4765 543.984 35.1416 536.343 51.1403 525.858C76.3827 509.508 94.3368 482.495 97.0033 453.528C97.8921 443.22 97.0033 432.913 99.492 422.783C101.27 414.964 104.825 407.855 107.314 400.391C111.935 386.174 112.291 370.891 108.38 356.674C107.314 352.764 105.891 348.676 103.047 345.655C98.0699 340.146 89.5372 338.902 82.6045 340.502C75.6717 342.101 69.45 345.833 63.0505 348.854C37.2748 361.472 5.63292 364.848 -24.7646 364.493C-34.1861 364.315 -43.6075 363.604 -52.4957 361.65Z" stroke="#F3F3F3" stroke-miterlimit="10"/>
<path d="M-35.7858 390.084C-44.674 389.373 -53.7399 387.418 -62.8058 384.93C-66.5389 383.864 -70.8052 383.686 -74.8938 384.575C-79.1601 385.464 -83.0709 387.241 -86.8039 389.373C-101.736 397.548 -113.291 409.988 -116.313 425.982C-117.557 432.38 -117.557 439.133 -116.668 446.42C-110.624 463.125 -104.225 481.785 -93.0256 496.002C-86.4484 504.354 -78.2713 512.352 -67.961 514.306C-59.4283 515.906 -50.8957 513.418 -42.3631 512.707C-32.5861 511.996 -23.6979 512.352 -14.632 510.752C-2.18855 508.442 10.2549 501.866 21.6317 494.758C37.986 484.628 51.1405 470.056 55.4068 452.64C56.8289 446.42 57.1844 440.2 58.962 434.157C60.3842 429.359 62.5173 424.916 63.9394 420.296C66.7836 411.232 66.6059 401.813 63.7617 393.283C63.0506 390.795 61.984 388.485 60.3842 386.53C57.3622 382.976 52.3848 381.909 48.1185 382.087C43.8522 382.265 40.1191 383.686 36.0306 384.753C19.8541 389.373 0.122372 390.44 -18.7205 390.795C-24.409 390.617 -30.2752 390.44 -35.7858 390.084Z" stroke="#F3F3F3" stroke-miterlimit="10"/>
<path d="M-77.916 454.238C-73.6497 460.636 -71.8721 468.455 -67.0725 474.32C-61.5618 481.251 -52.1403 484.983 -43.2522 483.739C-29.5644 481.784 -19.9652 469.521 -7.87728 462.946C-0.588983 459.036 7.94365 456.904 13.8098 451.039C36.7413 427.758 1.54419 409.632 -19.0764 418.34C-39.3414 426.87 -77.5605 423.671 -77.916 454.238Z" stroke="#F3F3F3" stroke-miterlimit="10"/>
<path d="M407.022 215.035C416.266 225.875 421.777 239.381 430.131 250.755C438.664 262.129 452.174 271.725 466.04 269.06C469.95 268.349 473.683 266.572 477.594 267.105C484.349 267.993 488.616 274.747 490.571 281.144C495.548 297.139 492.704 314.377 493.593 331.082C494.66 347.787 501.592 366.447 517.591 371.956C524.524 374.267 532.701 373.911 538.389 378.532C548.877 386.884 543.011 404.3 533.767 413.897C520.435 427.581 502.303 435.4 487.727 447.662C467.284 464.901 455.018 489.959 436.353 509.152C415.199 531.01 385.691 544.872 355.293 547.005C324.896 549.137 293.787 539.719 269.611 521.059C254.146 509.152 241.88 493.691 230.326 478.052C226.237 472.543 221.971 466.5 220.726 459.747C219.66 453.705 220.904 447.485 222.504 441.62C226.948 423.671 232.636 405.9 239.747 388.661C243.658 378.887 248.102 369.113 249.168 358.628C250.235 347.787 247.746 336.769 245.613 326.106C239.747 296.605 237.258 263.728 253.79 238.671C282.055 195.131 369.336 171.317 407.022 215.035Z" stroke="#F3F3F3" stroke-miterlimit="10"/>
<path d="M287.21 277.413C306.053 244.003 368.448 226.231 397.779 255.554C404.889 262.663 409.511 271.904 416.088 279.723C422.665 287.543 432.62 294.296 442.753 292.874C445.597 292.519 448.441 291.452 451.108 291.986C456.263 292.874 459.818 298.206 461.596 303.182C465.329 313.311 465.329 324.33 465.329 335.526C465.329 338.014 465.329 340.324 465.506 342.634C466.04 356.496 468.884 370.002 477.772 374.8C481.683 376.933 486.127 377.466 489.327 381.02C495.371 387.418 491.638 398.97 485.238 405.9C475.994 415.675 463.551 421.539 453.596 430.603C447.019 436.467 441.686 443.576 436.531 450.862C430.665 459.037 425.154 467.39 418.399 474.854C403.823 490.67 383.735 500.8 362.759 503.466C341.25 506.131 318.496 500.8 300.72 487.471C289.165 478.763 280.277 467.034 272.633 455.127C269.789 450.862 267.123 446.419 266.412 441.443C265.7 437 266.767 432.38 267.656 428.115C268.9 422.783 270.322 417.452 271.744 412.298C274.055 404.479 276.544 396.659 279.21 389.018C281.877 381.731 284.721 374.445 285.254 366.803C285.965 358.806 284.01 350.809 282.41 342.812C278.322 320.242 276.366 296.251 287.21 277.413Z" stroke="#F3F3F3" stroke-miterlimit="10"/>
<path d="M320.807 316.333C330.229 292.874 367.559 281.145 388.535 296.073C393.512 299.627 397.245 304.426 402.045 308.691C406.845 312.956 413.244 316.688 419.466 316.688C421.244 316.688 423.021 316.333 424.799 316.866C428.532 317.932 431.198 321.486 432.976 325.041C436.531 332.149 437.42 340.324 437.598 348.499C437.598 350.276 437.598 352.053 437.598 353.83C437.42 364.849 436.353 372.846 438.131 377.111C438.842 378.888 440.264 379.777 440.62 382.798C443.286 386.352 440.798 392.927 437.064 397.193C431.909 403.057 425.154 407.145 419.821 412.831C416.266 416.563 413.422 420.829 410.578 425.271C407.378 430.247 404.534 435.223 400.801 439.844C392.979 449.618 382.136 456.194 370.403 459.215C357.782 462.414 343.205 461.17 332.006 453.173C324.363 447.663 319.03 439.489 315.119 431.491C313.697 428.648 312.452 425.627 312.097 422.428C311.919 419.585 312.452 416.563 312.986 413.72C313.697 410.343 314.586 406.789 315.474 403.413C316.719 398.259 317.963 393.283 319.385 388.307C320.629 383.509 322.052 378.888 322.052 373.912C322.229 368.758 321.163 363.605 320.096 358.451C317.074 344.056 315.652 328.95 320.807 316.333Z" stroke="#F3F3F3" stroke-miterlimit="10"/>
<path d="M354.226 355.251C354.76 368.579 359.737 381.552 358.493 394.881C358.137 399.146 356.893 403.589 357.071 407.854C357.248 412.297 359.026 416.918 362.759 419.05C367.559 421.716 373.958 419.228 377.513 414.963C381.069 410.698 382.491 405.188 383.913 399.679C385.335 394.348 387.113 388.661 391.023 384.751C399.734 376.043 409.511 375.866 408.978 361.293C408.8 353.296 404.533 345.654 397.778 341.389C384.091 332.681 353.338 334.28 354.226 355.251Z" stroke="#F3F3F3" stroke-miterlimit="10"/>
<path d="M180.73 581.482C169.886 596.588 160.465 612.582 152.288 629.287C149.088 635.863 146.066 642.616 146.066 649.902C145.888 666.963 161.531 679.403 175.575 688.999C199.395 705.349 223.215 721.699 247.036 738.048C259.657 746.579 272.811 755.464 287.921 757.242C303.564 759.019 320.274 752.976 334.495 759.552C340.539 762.395 345.516 767.194 351.205 770.392C371.292 781.588 396.534 771.992 415.911 759.907C423.91 754.931 432.62 748 432.798 738.404C432.976 728.096 423.021 720.632 413.422 716.9C403.823 713.346 392.979 711.569 385.335 704.816C370.759 691.843 374.67 668.74 371.648 649.547C367.915 624.667 350.849 603.519 330.407 588.946C309.075 573.84 278.855 556.424 254.146 547.539C224.282 536.698 197.262 558.379 180.73 581.482Z" stroke="#F3F3F3" stroke-miterlimit="10"/>
<path d="M475.283 46.9175C468.528 56.6918 466.04 69.1318 458.396 78.3729C448.974 89.9243 433.509 94.3672 422.132 103.964C419.821 105.919 417.688 108.051 416.622 110.717C413.777 117.292 417.866 125.112 423.554 129.555C436.887 140.573 457.863 140.395 468.884 153.724C473.684 159.411 475.817 167.052 480.083 173.095C494.837 193.709 526.657 189.978 549.233 201.884C561.321 208.282 570.565 219.478 574.653 232.451C581.053 253.066 575.72 279.546 592.429 293.407C597.051 297.317 602.918 299.449 608.784 300.871C627.804 305.847 648.425 304.426 666.735 296.962C678.289 292.163 688.777 285.055 699.265 278.302C719.708 264.973 741.04 252 765.215 248.268C797.213 243.469 832.054 255.554 861.563 242.225C888.939 229.785 903.515 194.598 892.85 166.342C885.561 147.148 868.851 132.398 863.341 112.494C858.008 93.1232 864.763 72.3306 874.007 54.5592C883.428 36.7878 895.516 20.4381 902.449 1.60034C903.693 -1.59852 904.76 -5.33052 903.338 -8.52937C902.449 -10.4842 901.027 -11.9059 899.427 -13.3277C863.163 -45.6717 814.989 -63.0877 766.638 -66.1088C718.286 -69.3077 669.579 -58.8225 624.427 -40.6957C608.25 -34.1202 592.963 -26.4785 581.586 -13.1499C572.342 -2.30938 563.632 5.68777 550.122 11.3746C525.413 21.6821 491.993 22.9261 475.283 46.9175Z" stroke="#F3F3F3" stroke-miterlimit="10"/>
<path d="M639.714 -15.9925C627.093 -10.8387 615.005 -4.97417 605.762 5.33326C598.296 13.5081 591.363 19.7281 580.697 24.171C561.143 32.3458 535.012 33.4121 521.502 51.8944C515.991 59.3584 513.68 68.955 507.636 76.0635C499.992 84.9493 488.082 88.6813 479.016 96.1453C477.239 97.567 475.639 99.3441 474.572 101.477C472.261 106.453 475.283 112.495 479.372 116.049C489.149 124.58 504.792 124.757 512.791 135.065C516.347 139.508 517.947 145.372 521.146 149.993C532.168 165.987 555.988 163.677 573.053 173.096C582.652 178.427 590.652 186.957 594.563 196.732C596.518 201.53 597.585 206.684 598.651 212.015C600.784 223.389 602.562 234.585 611.983 241.693C615.894 244.537 620.516 246.314 625.316 247.558C640.425 251.645 656.424 251.29 670.645 246.314C679.711 243.115 687.71 238.317 695.888 233.696C706.376 227.654 717.219 221.789 728.774 217.702C734.818 215.569 741.039 213.97 747.617 213.259C773.037 210.06 800.59 218.768 823.522 207.572C844.676 197.442 855.875 170.252 848.231 148.216C843.076 133.288 830.454 121.558 827.077 106.275C823.699 90.8138 829.921 74.8195 837.743 60.7801C845.564 46.7407 855.164 33.5898 859.963 18.1287C860.852 15.463 861.563 12.6195 860.496 9.95382C859.785 8.3544 858.541 7.1104 857.474 6.04412C829.921 -19.7245 792.946 -34.1193 755.083 -36.785C754.194 -36.785 753.305 -36.9627 752.416 -36.9627C714.197 -39.6285 675.445 -30.2096 639.714 -15.9925Z" stroke="#F3F3F3" stroke-miterlimit="10"/>
<path d="M655.002 8.88639C645.758 12.6184 636.87 16.8835 629.937 23.9921C624.427 29.679 619.094 33.9441 611.272 37.143C596.873 43.0075 578.208 44.2515 567.898 56.8692C563.632 62.023 561.676 68.5984 557.054 73.7521C551.366 79.9721 542.656 82.9932 536.256 88.3247C535.012 89.391 533.767 90.635 533.056 92.0567C531.457 95.611 533.234 99.6984 535.901 102.186C542.122 108.229 552.255 108.762 557.588 116.048C559.899 119.247 560.787 123.334 562.921 126.533C570.031 137.907 586.03 137.018 597.762 143.772C605.051 148.214 611.628 154.079 615.361 160.299C617.316 163.498 618.561 166.697 619.805 170.073C622.471 177.182 624.782 184.29 632.426 189.089C635.448 191.044 639.181 192.288 642.914 193.354C653.935 196.553 665.49 197.086 675.445 194.776C681.844 193.354 687.533 190.688 693.399 188.2C700.865 185.001 708.687 181.802 717.041 179.67C721.486 178.604 726.107 177.715 730.729 177.36C749.394 175.76 769.837 180.914 786.369 172.206C801.123 164.386 809.123 145.016 804.501 129.199C801.301 118.358 793.124 109.828 791.702 98.9875C790.28 87.4361 795.968 75.8847 802.19 65.9327C808.59 55.6252 815.345 45.851 818.189 33.5887C818.722 31.6338 819.078 29.5012 818.189 27.5464C817.655 26.3024 816.767 25.4138 815.878 24.5252C796.324 4.44353 768.948 -7.1079 740.684 -8.52961C739.973 -8.52961 739.262 -8.52961 738.729 -8.52961C710.109 -10.129 681.489 -1.77647 655.002 8.88639Z" stroke="#F3F3F3" stroke-miterlimit="10"/>
<path d="M670.29 33.5882C664.601 35.8985 658.913 38.3865 654.113 42.2962C650.38 45.3174 646.825 47.8054 642.025 49.7602C632.782 53.3145 621.405 54.5585 614.472 61.6671C611.45 64.6882 609.672 68.2425 606.651 71.2637C602.74 74.9957 597.585 76.9505 593.496 80.3271C592.607 81.0379 591.896 81.7488 591.363 82.6374C590.296 84.5922 591.007 86.9025 592.252 88.3242C594.918 91.8785 599.54 92.7671 602.029 97.0322C603.095 98.8094 603.451 101.297 604.517 103.252C607.895 110.005 615.894 110.539 622.294 114.804C627.271 118.18 632.426 121.379 636.159 124.223C638.115 125.644 639.537 127.066 641.137 128.488C644.336 131.509 647.358 134.352 653.047 136.84C655.358 137.729 658.024 138.617 660.513 139.328C667.623 141.639 674.378 143.06 680.422 143.416C684.155 143.593 687.711 143.238 691.088 142.883C695.532 142.349 700.332 141.994 705.487 141.639C708.331 141.461 711.175 141.461 714.197 141.461C726.108 141.461 739.44 143.238 749.394 136.84C757.927 131.509 762.549 119.957 760.771 110.183C759.705 103.608 755.794 98.0985 756.149 91.7008C756.683 84.0591 761.838 77.1282 766.46 70.9082C771.259 64.3328 775.526 57.9351 776.237 48.8717C776.414 47.6277 776.414 46.0282 775.881 44.7842C775.526 44.0734 774.992 43.3625 774.459 42.6517C762.727 28.2568 745.128 19.7265 726.285 19.3711C725.93 19.3711 725.396 19.3711 725.041 19.3711C706.02 19.3711 687.355 26.6574 670.29 33.5882Z" stroke="#F3F3F3" stroke-miterlimit="10"/>
<path d="M649.314 73.3965C645.936 76.5954 643.981 81.7491 646.114 86.0142C650.025 89.5685 656.247 88.8577 661.402 87.2582C666.557 85.6588 672.067 83.7039 677.045 85.6588C684.689 88.6799 686.288 98.9874 692.866 103.786C698.376 107.873 707.087 106.807 711.531 101.475C715.619 96.4994 715.797 89.3908 720.063 84.5925C727.707 75.8845 739.262 75.3514 732.507 61.1342C728.418 52.6039 720.774 46.7394 711.353 47.628C702.465 48.5165 693.577 54.9142 685.4 58.2908C674.378 62.9114 658.202 64.8662 649.314 73.3965Z" stroke="#F3F3F3" stroke-miterlimit="10"/>
<path d="M1231.13 172.205C1212.65 163.853 1193.45 156.744 1174.07 150.88C1163.76 147.859 1149.18 147.148 1145.63 157.277C1144.38 161.009 1145.1 165.097 1144.21 169.007C1142.07 179.136 1130.34 183.757 1120.03 185.001C1117.54 185.356 1114.88 185.534 1112.92 186.956C1109.37 189.266 1108.48 194.242 1108.12 198.507C1106.7 214.501 1106.52 231.384 1097.99 245.068C1085.19 265.683 1057.99 271.548 1033.82 272.081C1007.68 272.792 981.554 269.415 956.311 262.484C938.357 257.508 919.692 250.4 901.382 254.665C891.605 256.975 882.895 262.307 873.473 265.505C858.541 270.481 842.365 269.771 826.544 270.837C779.259 273.68 732.863 292.163 696.599 322.729C684.511 332.859 673.134 344.766 667.268 359.339C660.157 376.755 661.402 396.658 666.735 414.608C672.068 432.557 681.489 449.084 690.911 465.434C697.488 476.985 706.554 489.958 719.886 489.781C725.041 489.603 730.374 487.293 735.351 488.892C742.817 491.202 745.128 500.621 750.106 506.664C758.283 516.438 773.748 516.616 785.303 511.284C796.858 505.953 805.746 496.356 815.345 488.004C866.363 443.575 938.713 434.334 1006.44 433.801C1023.33 433.623 1040.57 433.979 1056.75 439.132C1066.52 442.331 1075.95 447.129 1085.72 450.15C1102.79 455.304 1120.92 454.416 1138.87 455.127C1178.16 456.726 1217.09 466.856 1252.46 484.449" stroke="#F3F3F3" stroke-miterlimit="10"/>
<path d="M1225.27 198.153C1216.73 190.866 1207.85 183.225 1197 180.381C1186.16 177.538 1172.65 180.737 1167.49 190.689C1166.43 192.643 1165.72 194.954 1163.94 196.553C1161.27 198.864 1157.54 198.508 1154.16 198.686C1142.43 199.397 1131.41 207.927 1127.85 219.123C1123.23 233.162 1129.27 250.045 1121.45 262.663C1116.65 270.482 1107.77 274.57 1099.23 277.769C1068.84 288.965 1035.95 293.407 1003.77 290.564C973.199 287.898 942.446 278.657 912.226 284.344C901.205 286.477 890.539 290.386 879.695 292.874C866.007 295.895 851.964 296.606 838.099 298.561C812.323 302.115 787.258 310.29 764.149 322.375C743.173 333.393 723.441 348.143 712.064 368.936C700.865 389.729 699.799 417.274 714.198 435.934C716.508 438.955 719.353 441.799 723.086 442.865C728.063 444.287 733.396 442.332 738.551 443.221C750.639 445.353 755.439 462.591 767.527 464.724C773.037 465.613 778.548 463.125 783.525 460.637C820.145 441.977 856.053 420.296 896.227 411.765C915.781 407.678 935.691 406.967 955.6 406.256C990.442 405.012 1025.82 403.768 1059.59 412.654C1070.97 415.675 1081.99 419.762 1093.54 422.25C1117.9 427.404 1142.96 424.738 1167.67 427.049C1190.43 429.181 1212.82 435.934 1233.27 446.42" stroke="#F3F3F3" stroke-miterlimit="10"/>
<path d="M784.947 352.941C777.837 356.85 770.726 361.116 766.282 367.869C761.838 374.622 760.949 384.396 766.46 390.261C769.304 393.46 773.748 395.414 775.704 399.146C777.126 402.168 776.592 405.9 777.837 409.098C779.614 414.252 785.481 416.918 790.991 416.918C796.502 416.918 801.657 414.608 806.457 412.297C836.321 398.613 866.185 383.152 898.716 378.532C926.802 374.444 955.6 378.709 983.687 374.089C993.997 372.489 1005.73 367.869 1008.04 357.739C1014.44 330.193 972.31 310.112 950.445 311.356C915.426 313.488 879.873 317.042 846.098 327.172C825.122 333.925 804.501 342.456 784.947 352.941Z" stroke="#F3F3F3" stroke-miterlimit="10"/>
<path d="M1233.8 227.653C1225.98 228.719 1218.51 224.099 1211.4 220.545C1204.29 216.813 1195.4 214.147 1188.83 218.59C1184.56 221.433 1182.43 226.587 1178.34 229.786C1175.14 232.274 1170.69 233.34 1167.85 236.361C1163.94 240.271 1163.58 246.491 1162.69 251.822C1160.38 264.973 1153.27 277.235 1142.78 285.766C1131.76 294.829 1117.72 299.272 1104.21 303.715C1090.7 308.158 1076.83 313.311 1066.35 323.086C1056.04 332.86 1050.17 348.854 1056.21 361.827C1062.08 374.623 1077.01 380.487 1090.88 383.153C1115.05 387.951 1140.12 386.885 1164.47 389.906C1189 392.927 1214.25 400.925 1230.42 419.585" stroke="#F3F3F3" stroke-miterlimit="10"/>
<path d="M1230.42 273.504C1227.4 268.35 1220.82 265.862 1215.13 266.929C1209.27 267.995 1204.29 272.26 1201.8 277.769C1200.38 280.968 1199.67 284.7 1198.25 287.899C1193.09 299.983 1179.23 304.959 1167.14 309.935C1157.18 314.023 1147.58 318.999 1138.52 324.508C1131.41 328.951 1123.76 335.171 1123.59 343.523C1123.59 349.566 1127.68 355.075 1132.83 358.096C1137.99 361.117 1144.21 362.006 1150.25 362.539C1164.83 363.605 1179.76 361.828 1194.34 364.494C1208.74 366.982 1222.25 373.913 1232.91 383.865" stroke="#F3F3F3" stroke-miterlimit="10"/>
<path d="M1225.44 310.822C1217.27 313.488 1209.09 315.976 1200.91 318.642C1198.07 319.53 1195.05 320.419 1192.74 322.374C1189 325.395 1187.23 330.193 1187.23 334.991C1187.23 338.013 1187.94 341.034 1189.89 343.166C1194.16 347.787 1201.62 346.01 1207.67 344.766C1219.4 342.455 1233.62 344.41 1240.02 354.54" stroke="#F3F3F3" stroke-miterlimit="10"/>
<path d="M846.809 353.652C844.676 354.718 842.365 355.784 841.12 357.739C839.876 359.694 839.876 362.893 842.009 364.137C843.431 365.025 845.387 364.67 847.164 364.315C867.963 359.516 888.939 354.363 910.27 353.474C917.025 353.119 942.801 358.628 936.224 348.498C931.246 340.856 911.515 338.902 903.515 339.079C884.317 339.257 863.874 345.832 846.809 353.652Z" stroke="#F3F3F3" stroke-miterlimit="10"/>
<path d="M567.01 488.893C542.656 510.574 528.79 542.563 503.015 562.644C489.505 573.129 471.728 581.837 467.818 598.543C465.684 607.606 468.351 617.025 471.728 625.733C474.217 632.131 477.239 638.351 481.328 643.86C500.17 668.74 538.745 672.294 556.521 698.063C562.743 706.948 565.943 718.144 573.942 725.608C581.764 732.895 592.785 735.383 603.451 735.916C614.117 736.449 624.783 735.027 635.448 735.916C661.935 738.048 688.066 753.509 713.842 746.756C729.485 742.491 741.929 730.584 751.883 717.967C760.771 706.593 768.771 693.442 770.371 679.047C773.393 651.501 753.305 626.088 753.483 598.365C753.483 590.19 755.261 582.193 755.439 574.018C755.616 565.843 754.016 557.135 748.328 551.271C743.173 545.939 735.174 543.451 731.441 537.053C730.374 535.276 729.841 533.144 728.596 531.544C723.086 523.547 710.998 527.635 701.221 527.101C667.979 524.969 670.468 480.363 647.359 465.968C624.249 451.395 583.897 473.965 567.01 488.893Z" stroke="#F3F3F3" stroke-miterlimit="10"/>
<path d="M582.297 526.925C576.431 532.434 571.454 538.654 566.832 545.229C558.477 556.958 550.477 569.398 539.101 578.462C529.857 585.748 517.769 591.79 514.747 603.342C513.147 609.562 514.747 615.959 516.88 622.002C518.48 626.445 520.258 630.71 522.924 634.442C535.012 651.68 560.966 654.346 572.165 672.472C575.187 677.271 577.853 682.602 581.408 686.867C583.186 689 585.141 690.955 587.63 692.554C589.763 693.976 592.252 695.042 594.918 695.931C600.251 697.53 606.117 698.063 611.806 698.241C619.45 698.596 627.093 697.886 634.737 698.597C648.07 699.841 661.046 705.705 674.023 707.482C679.711 708.193 685.222 708.193 690.733 706.771C701.932 703.928 710.998 695.753 718.464 686.867C725.219 678.87 730.907 669.629 732.152 659.677C734.64 640.306 720.597 622.179 719.53 602.631C719.175 596.944 720.241 591.435 720.064 585.748C719.886 580.061 718.464 574.196 714.375 570.109C710.642 566.377 704.954 564.6 702.287 560.157C701.576 558.913 701.043 557.491 700.154 556.425C696.066 550.916 687.355 553.404 680.422 552.871C656.958 550.916 656.958 520.882 640.248 510.93C626.027 502.755 603.451 511.997 589.23 521.771C586.563 523.37 584.075 525.147 582.297 526.925Z" stroke="#F3F3F3" stroke-miterlimit="10"/>
</g>
</g>
</g>
<defs>
<clipPath id="clip0">
<rect width="1228" height="547" fill="white"/>
</clipPath>
</defs>
</svg>
